G75*
%MOIN*%
%OFA0B0*%
%FSLAX24Y24*%
%IPPOS*%
%LPD*%
%AMOC8*
5,1,8,0,0,1.08239X$1,22.5*
%
%ADD10OC8,0.0680*%
%ADD11R,0.0880X0.0880*%
%ADD12C,0.2080*%
%ADD13R,0.0946X0.0316*%
%ADD14R,0.0710X0.0790*%
%ADD15R,0.0710X0.0789*%
%ADD16C,0.0785*%
%ADD17R,0.0790X0.0710*%
%ADD18R,0.1080X0.0907*%
%ADD19OC8,0.0700*%
%ADD20C,0.0700*%
%ADD21R,0.0395X0.0631*%
%ADD22R,0.0395X0.0828*%
%ADD23C,0.0660*%
%ADD24C,0.1175*%
%ADD25R,0.0789X0.0710*%
%ADD26C,0.0674*%
%ADD27C,0.0474*%
%ADD28OC8,0.0600*%
%ADD29C,0.0710*%
%ADD30C,0.0513*%
%ADD31R,0.0580X0.0380*%
%ADD32R,0.0356X0.0631*%
%ADD33C,0.1143*%
%ADD34R,0.0395X0.0316*%
%ADD35R,0.0395X0.0277*%
%ADD36R,0.1852X0.0552*%
%ADD37R,0.1852X0.0474*%
%ADD38R,0.0394X0.0630*%
%ADD39R,0.0832X0.0332*%
%ADD40OC8,0.0780*%
%ADD41R,0.0710X0.0395*%
%ADD42R,0.0474X0.0631*%
D10*
X019790Y007895D03*
X020910Y007355D03*
X020910Y008435D03*
X020910Y009515D03*
X020910Y010595D03*
X019790Y011135D03*
D11*
X019790Y010055D03*
X019790Y008975D03*
X019790Y006815D03*
D12*
X020350Y004045D03*
X020350Y013905D03*
D13*
X007499Y015225D03*
X007499Y015725D03*
X007499Y016225D03*
X007499Y016725D03*
X007499Y017225D03*
X007499Y017725D03*
X007499Y018225D03*
X007499Y018725D03*
X005451Y018725D03*
X005451Y018225D03*
X005451Y017725D03*
X005451Y017225D03*
X005451Y016725D03*
X005451Y016225D03*
X005451Y015725D03*
X005451Y015225D03*
D14*
X004035Y014109D03*
X002915Y014109D03*
X002915Y021031D03*
X002915Y022031D03*
X004035Y022031D03*
X004035Y021031D03*
X007025Y023069D03*
X008145Y023069D03*
D15*
X004026Y023271D03*
X002924Y023271D03*
X002924Y016069D03*
X002924Y015109D03*
X004026Y015109D03*
X004026Y016069D03*
X005674Y014290D03*
X005634Y013283D03*
X006737Y013283D03*
X006776Y014290D03*
D16*
X007366Y028373D02*
X007366Y029078D01*
X005334Y029078D02*
X005334Y028373D01*
X003366Y028373D02*
X003366Y029078D01*
X009334Y029078D02*
X009334Y028373D01*
D17*
X005501Y023607D03*
X005501Y022488D03*
X007725Y014410D03*
X007725Y013290D03*
X007725Y012160D03*
X007725Y011040D03*
X017659Y011824D03*
X018683Y011824D03*
X018683Y012943D03*
X017659Y012943D03*
X018937Y022601D03*
X018937Y023721D03*
D18*
X010659Y027408D03*
X009163Y027408D03*
D19*
X008763Y025324D03*
X002682Y025324D03*
X011523Y005367D03*
D20*
X011523Y004367D03*
X008763Y024324D03*
X002682Y024324D03*
D21*
X006810Y021777D03*
X007990Y021777D03*
X013014Y026392D03*
X014194Y026392D03*
D22*
X007400Y021677D03*
D23*
X007510Y020199D02*
X007290Y020199D01*
X007290Y021055D01*
X007510Y021055D01*
X007510Y020199D01*
X007510Y020858D02*
X007290Y020858D01*
X013494Y024814D02*
X013714Y024814D01*
X013494Y024814D02*
X013494Y025670D01*
X013714Y025670D01*
X013714Y024814D01*
X013714Y025473D02*
X013494Y025473D01*
D24*
X013625Y028278D02*
X013625Y029373D01*
X011775Y029373D02*
X011775Y028278D01*
X015475Y028278D02*
X015475Y029373D01*
D25*
X015158Y026385D03*
X015158Y025283D03*
X011781Y025285D03*
X011781Y026387D03*
D26*
X021678Y026600D02*
X022272Y026600D01*
X022272Y025600D02*
X021678Y025600D01*
X021678Y024600D02*
X022272Y024600D01*
X022272Y023600D02*
X021678Y023600D01*
X021678Y022600D02*
X022272Y022600D01*
X022272Y021600D02*
X021678Y021600D01*
X021678Y020600D02*
X022272Y020600D01*
X022272Y019600D02*
X021678Y019600D01*
X021678Y018600D02*
X022272Y018600D01*
X022272Y017600D02*
X021678Y017600D01*
X021678Y016600D02*
X022272Y016600D01*
X022272Y027600D02*
X021678Y027600D01*
D27*
X000850Y000850D03*
X022350Y000850D03*
X022350Y030350D03*
X000850Y030350D03*
D28*
X017475Y030225D03*
X018350Y030225D03*
X019225Y030225D03*
X020100Y030225D03*
X020100Y027225D03*
X019225Y027225D03*
X018350Y027225D03*
X017475Y027225D03*
D29*
X014359Y012282D03*
D30*
X014359Y020562D03*
D31*
X012829Y020333D03*
X012829Y020833D03*
X012829Y021333D03*
X012829Y021833D03*
X012829Y022333D03*
X012829Y022833D03*
X012829Y023333D03*
X012829Y019833D03*
X012829Y019333D03*
X012829Y018833D03*
X012829Y018333D03*
X012829Y017833D03*
X012829Y017333D03*
X012829Y016833D03*
X016593Y016833D03*
X016593Y017333D03*
X016593Y017833D03*
X016593Y018333D03*
X016593Y018833D03*
X016593Y019333D03*
X016593Y019833D03*
X016593Y020333D03*
X016593Y020833D03*
X016593Y021333D03*
X016593Y021833D03*
X016593Y022333D03*
X016593Y022833D03*
X016593Y023333D03*
D32*
X012959Y015463D03*
X012459Y015463D03*
X011959Y015463D03*
X011459Y015463D03*
X010959Y015463D03*
X010459Y015463D03*
X009959Y015463D03*
X009959Y012786D03*
X010459Y012786D03*
X010959Y012786D03*
X011459Y012786D03*
X011959Y012786D03*
X012459Y012786D03*
X012959Y012786D03*
D33*
X006006Y009379D02*
X004944Y009379D01*
X004944Y001071D02*
X006006Y001071D01*
D34*
X010744Y023205D03*
X011334Y023205D03*
X011334Y024209D03*
X010744Y024209D03*
D35*
X010744Y023865D03*
X010744Y023550D03*
X011334Y023550D03*
X011334Y023865D03*
D36*
X011066Y021765D03*
X011066Y020387D03*
D37*
X011066Y021076D03*
D38*
X013604Y026391D03*
D39*
X014517Y010000D03*
X014517Y009500D03*
X014517Y009000D03*
X014517Y008500D03*
X014517Y008000D03*
X014517Y007500D03*
X014517Y007000D03*
X014517Y006500D03*
X011667Y006500D03*
X011667Y007000D03*
X011667Y007500D03*
X011667Y008000D03*
X011667Y008500D03*
X011667Y009000D03*
X011667Y009500D03*
X011667Y010000D03*
D40*
X018092Y024561D03*
X018092Y025561D03*
D41*
X004076Y019943D03*
X004076Y019116D03*
X004076Y018289D03*
X004076Y017462D03*
X002738Y017462D03*
X002738Y018289D03*
X002738Y019116D03*
X002738Y019943D03*
X002738Y012856D03*
X004076Y012856D03*
D42*
X005100Y012305D03*
X004726Y011439D03*
X005474Y011439D03*
M02*
