G75*
%MOIN*%
%OFA0B0*%
%FSLAX24Y24*%
%IPPOS*%
%LPD*%
%AMOC8*
5,1,8,0,0,1.08239X$1,22.5*
%
%ADD10C,0.0000*%
%ADD11C,0.0120*%
%ADD12C,0.0070*%
%ADD13C,0.0060*%
%ADD14C,0.0050*%
%ADD15C,0.0100*%
%ADD16C,0.0040*%
%ADD17R,0.0200X0.0150*%
%ADD18C,0.0080*%
D10*
X000100Y000100D02*
X000100Y031100D01*
X023100Y031100D01*
X023100Y000100D01*
X000100Y000100D01*
X014044Y012282D02*
X014046Y012317D01*
X014052Y012352D01*
X014062Y012386D01*
X014075Y012419D01*
X014092Y012450D01*
X014113Y012478D01*
X014136Y012505D01*
X014163Y012528D01*
X014191Y012549D01*
X014222Y012566D01*
X014255Y012579D01*
X014289Y012589D01*
X014324Y012595D01*
X014359Y012597D01*
X014394Y012595D01*
X014429Y012589D01*
X014463Y012579D01*
X014496Y012566D01*
X014527Y012549D01*
X014555Y012528D01*
X014582Y012505D01*
X014605Y012478D01*
X014626Y012450D01*
X014643Y012419D01*
X014656Y012386D01*
X014666Y012352D01*
X014672Y012317D01*
X014674Y012282D01*
X014672Y012247D01*
X014666Y012212D01*
X014656Y012178D01*
X014643Y012145D01*
X014626Y012114D01*
X014605Y012086D01*
X014582Y012059D01*
X014555Y012036D01*
X014527Y012015D01*
X014496Y011998D01*
X014463Y011985D01*
X014429Y011975D01*
X014394Y011969D01*
X014359Y011967D01*
X014324Y011969D01*
X014289Y011975D01*
X014255Y011985D01*
X014222Y011998D01*
X014191Y012015D01*
X014163Y012036D01*
X014136Y012059D01*
X014113Y012086D01*
X014092Y012114D01*
X014075Y012145D01*
X014062Y012178D01*
X014052Y012212D01*
X014046Y012247D01*
X014044Y012282D01*
X014142Y020562D02*
X014144Y020591D01*
X014150Y020619D01*
X014159Y020647D01*
X014172Y020673D01*
X014189Y020696D01*
X014208Y020718D01*
X014230Y020737D01*
X014255Y020752D01*
X014281Y020765D01*
X014309Y020773D01*
X014337Y020778D01*
X014366Y020779D01*
X014395Y020776D01*
X014423Y020769D01*
X014450Y020759D01*
X014476Y020745D01*
X014499Y020728D01*
X014520Y020708D01*
X014538Y020685D01*
X014553Y020660D01*
X014564Y020633D01*
X014572Y020605D01*
X014576Y020576D01*
X014576Y020548D01*
X014572Y020519D01*
X014564Y020491D01*
X014553Y020464D01*
X014538Y020439D01*
X014520Y020416D01*
X014499Y020396D01*
X014476Y020379D01*
X014450Y020365D01*
X014423Y020355D01*
X014395Y020348D01*
X014366Y020345D01*
X014337Y020346D01*
X014309Y020351D01*
X014281Y020359D01*
X014255Y020372D01*
X014230Y020387D01*
X014208Y020406D01*
X014189Y020428D01*
X014172Y020451D01*
X014159Y020477D01*
X014150Y020505D01*
X014144Y020533D01*
X014142Y020562D01*
D11*
X019700Y013905D02*
X019702Y013955D01*
X019708Y014005D01*
X019718Y014055D01*
X019731Y014103D01*
X019748Y014151D01*
X019769Y014197D01*
X019793Y014241D01*
X019821Y014283D01*
X019852Y014323D01*
X019886Y014360D01*
X019923Y014395D01*
X019962Y014426D01*
X020003Y014455D01*
X020047Y014480D01*
X020093Y014502D01*
X020140Y014520D01*
X020188Y014534D01*
X020237Y014545D01*
X020287Y014552D01*
X020337Y014555D01*
X020388Y014554D01*
X020438Y014549D01*
X020488Y014540D01*
X020536Y014528D01*
X020584Y014511D01*
X020630Y014491D01*
X020675Y014468D01*
X020718Y014441D01*
X020758Y014411D01*
X020796Y014378D01*
X020831Y014342D01*
X020864Y014303D01*
X020893Y014262D01*
X020919Y014219D01*
X020942Y014174D01*
X020961Y014127D01*
X020976Y014079D01*
X020988Y014030D01*
X020996Y013980D01*
X021000Y013930D01*
X021000Y013880D01*
X020996Y013830D01*
X020988Y013780D01*
X020976Y013731D01*
X020961Y013683D01*
X020942Y013636D01*
X020919Y013591D01*
X020893Y013548D01*
X020864Y013507D01*
X020831Y013468D01*
X020796Y013432D01*
X020758Y013399D01*
X020718Y013369D01*
X020675Y013342D01*
X020630Y013319D01*
X020584Y013299D01*
X020536Y013282D01*
X020488Y013270D01*
X020438Y013261D01*
X020388Y013256D01*
X020337Y013255D01*
X020287Y013258D01*
X020237Y013265D01*
X020188Y013276D01*
X020140Y013290D01*
X020093Y013308D01*
X020047Y013330D01*
X020003Y013355D01*
X019962Y013384D01*
X019923Y013415D01*
X019886Y013450D01*
X019852Y013487D01*
X019821Y013527D01*
X019793Y013569D01*
X019769Y013613D01*
X019748Y013659D01*
X019731Y013707D01*
X019718Y013755D01*
X019708Y013805D01*
X019702Y013855D01*
X019700Y013905D01*
X019700Y004045D02*
X019702Y004095D01*
X019708Y004145D01*
X019718Y004195D01*
X019731Y004243D01*
X019748Y004291D01*
X019769Y004337D01*
X019793Y004381D01*
X019821Y004423D01*
X019852Y004463D01*
X019886Y004500D01*
X019923Y004535D01*
X019962Y004566D01*
X020003Y004595D01*
X020047Y004620D01*
X020093Y004642D01*
X020140Y004660D01*
X020188Y004674D01*
X020237Y004685D01*
X020287Y004692D01*
X020337Y004695D01*
X020388Y004694D01*
X020438Y004689D01*
X020488Y004680D01*
X020536Y004668D01*
X020584Y004651D01*
X020630Y004631D01*
X020675Y004608D01*
X020718Y004581D01*
X020758Y004551D01*
X020796Y004518D01*
X020831Y004482D01*
X020864Y004443D01*
X020893Y004402D01*
X020919Y004359D01*
X020942Y004314D01*
X020961Y004267D01*
X020976Y004219D01*
X020988Y004170D01*
X020996Y004120D01*
X021000Y004070D01*
X021000Y004020D01*
X020996Y003970D01*
X020988Y003920D01*
X020976Y003871D01*
X020961Y003823D01*
X020942Y003776D01*
X020919Y003731D01*
X020893Y003688D01*
X020864Y003647D01*
X020831Y003608D01*
X020796Y003572D01*
X020758Y003539D01*
X020718Y003509D01*
X020675Y003482D01*
X020630Y003459D01*
X020584Y003439D01*
X020536Y003422D01*
X020488Y003410D01*
X020438Y003401D01*
X020388Y003396D01*
X020337Y003395D01*
X020287Y003398D01*
X020237Y003405D01*
X020188Y003416D01*
X020140Y003430D01*
X020093Y003448D01*
X020047Y003470D01*
X020003Y003495D01*
X019962Y003524D01*
X019923Y003555D01*
X019886Y003590D01*
X019852Y003627D01*
X019821Y003667D01*
X019793Y003709D01*
X019769Y003753D01*
X019748Y003799D01*
X019731Y003847D01*
X019718Y003895D01*
X019708Y003945D01*
X019702Y003995D01*
X019700Y004045D01*
D12*
X017565Y003920D02*
X017565Y003710D01*
X017460Y003605D01*
X017460Y003380D02*
X017040Y003380D01*
X016934Y003275D01*
X016934Y002960D01*
X017565Y002960D01*
X017565Y003275D01*
X017460Y003380D01*
X017145Y003605D02*
X017250Y003710D01*
X017250Y003920D01*
X017355Y004025D01*
X017460Y004025D01*
X017565Y003920D01*
X017460Y004249D02*
X017565Y004354D01*
X017565Y004564D01*
X017460Y004669D01*
X016934Y004669D01*
X016934Y004894D02*
X016934Y005209D01*
X017040Y005314D01*
X017145Y005314D01*
X017250Y005209D01*
X017250Y004894D01*
X017250Y005209D02*
X017355Y005314D01*
X017460Y005314D01*
X017565Y005209D01*
X017565Y004894D01*
X016934Y004894D01*
X016934Y004249D02*
X017460Y004249D01*
X017040Y004025D02*
X016934Y003920D01*
X016934Y003710D01*
X017040Y003605D01*
X017145Y003605D01*
D13*
X017092Y025061D02*
X017094Y025124D01*
X017100Y025186D01*
X017110Y025248D01*
X017123Y025310D01*
X017141Y025370D01*
X017162Y025429D01*
X017187Y025487D01*
X017216Y025543D01*
X017248Y025597D01*
X017283Y025649D01*
X017321Y025698D01*
X017363Y025746D01*
X017407Y025790D01*
X017455Y025832D01*
X017504Y025870D01*
X017556Y025905D01*
X017610Y025937D01*
X017666Y025966D01*
X017724Y025991D01*
X017783Y026012D01*
X017843Y026030D01*
X017905Y026043D01*
X017967Y026053D01*
X018029Y026059D01*
X018092Y026061D01*
X018155Y026059D01*
X018217Y026053D01*
X018279Y026043D01*
X018341Y026030D01*
X018401Y026012D01*
X018460Y025991D01*
X018518Y025966D01*
X018574Y025937D01*
X018628Y025905D01*
X018680Y025870D01*
X018729Y025832D01*
X018777Y025790D01*
X018821Y025746D01*
X018863Y025698D01*
X018901Y025649D01*
X018936Y025597D01*
X018968Y025543D01*
X018997Y025487D01*
X019022Y025429D01*
X019043Y025370D01*
X019061Y025310D01*
X019074Y025248D01*
X019084Y025186D01*
X019090Y025124D01*
X019092Y025061D01*
X019090Y024998D01*
X019084Y024936D01*
X019074Y024874D01*
X019061Y024812D01*
X019043Y024752D01*
X019022Y024693D01*
X018997Y024635D01*
X018968Y024579D01*
X018936Y024525D01*
X018901Y024473D01*
X018863Y024424D01*
X018821Y024376D01*
X018777Y024332D01*
X018729Y024290D01*
X018680Y024252D01*
X018628Y024217D01*
X018574Y024185D01*
X018518Y024156D01*
X018460Y024131D01*
X018401Y024110D01*
X018341Y024092D01*
X018279Y024079D01*
X018217Y024069D01*
X018155Y024063D01*
X018092Y024061D01*
X018029Y024063D01*
X017967Y024069D01*
X017905Y024079D01*
X017843Y024092D01*
X017783Y024110D01*
X017724Y024131D01*
X017666Y024156D01*
X017610Y024185D01*
X017556Y024217D01*
X017504Y024252D01*
X017455Y024290D01*
X017407Y024332D01*
X017363Y024376D01*
X017321Y024424D01*
X017283Y024473D01*
X017248Y024525D01*
X017216Y024579D01*
X017187Y024635D01*
X017162Y024693D01*
X017141Y024752D01*
X017123Y024812D01*
X017110Y024874D01*
X017100Y024936D01*
X017094Y024998D01*
X017092Y025061D01*
X017175Y027725D02*
X017775Y027725D01*
X017792Y027727D01*
X017809Y027731D01*
X017825Y027738D01*
X017839Y027748D01*
X017852Y027761D01*
X017862Y027775D01*
X017869Y027791D01*
X017873Y027808D01*
X017875Y027825D01*
X017875Y027975D01*
X017825Y028025D01*
X017825Y029425D01*
X017875Y029475D01*
X017875Y029625D01*
X017950Y029625D02*
X017950Y029475D01*
X018000Y029425D01*
X018000Y028025D01*
X017950Y027975D01*
X017950Y027825D01*
X017952Y027808D01*
X017956Y027791D01*
X017963Y027775D01*
X017973Y027761D01*
X017986Y027748D01*
X018000Y027738D01*
X018016Y027731D01*
X018033Y027727D01*
X018050Y027725D01*
X018650Y027725D01*
X018667Y027727D01*
X018684Y027731D01*
X018700Y027738D01*
X018714Y027748D01*
X018727Y027761D01*
X018737Y027775D01*
X018744Y027791D01*
X018748Y027808D01*
X018750Y027825D01*
X018750Y027975D01*
X018700Y028025D01*
X018700Y029425D01*
X018750Y029475D01*
X018750Y029625D01*
X018825Y029625D02*
X018825Y029475D01*
X018875Y029425D01*
X018875Y028025D01*
X018825Y027975D01*
X018825Y027825D01*
X018827Y027808D01*
X018831Y027791D01*
X018838Y027775D01*
X018848Y027761D01*
X018861Y027748D01*
X018875Y027738D01*
X018891Y027731D01*
X018908Y027727D01*
X018925Y027725D01*
X019525Y027725D01*
X019542Y027727D01*
X019559Y027731D01*
X019575Y027738D01*
X019589Y027748D01*
X019602Y027761D01*
X019612Y027775D01*
X019619Y027791D01*
X019623Y027808D01*
X019625Y027825D01*
X019625Y027975D01*
X019575Y028025D01*
X019575Y029425D01*
X019625Y029475D01*
X019625Y029625D01*
X019700Y029625D02*
X019700Y029475D01*
X019750Y029425D01*
X019750Y028025D01*
X019700Y027975D01*
X019700Y027825D01*
X019702Y027808D01*
X019706Y027791D01*
X019713Y027775D01*
X019723Y027761D01*
X019736Y027748D01*
X019750Y027738D01*
X019766Y027731D01*
X019783Y027727D01*
X019800Y027725D01*
X020400Y027725D01*
X020417Y027727D01*
X020434Y027731D01*
X020450Y027738D01*
X020464Y027748D01*
X020477Y027761D01*
X020487Y027775D01*
X020494Y027791D01*
X020498Y027808D01*
X020500Y027825D01*
X020500Y027975D01*
X020450Y028025D01*
X020450Y029425D01*
X020500Y029475D01*
X020500Y029625D01*
X020498Y029642D01*
X020494Y029659D01*
X020487Y029675D01*
X020477Y029689D01*
X020464Y029702D01*
X020450Y029712D01*
X020434Y029719D01*
X020417Y029723D01*
X020400Y029725D01*
X019800Y029725D01*
X019783Y029723D01*
X019766Y029719D01*
X019750Y029712D01*
X019736Y029702D01*
X019723Y029689D01*
X019713Y029675D01*
X019706Y029659D01*
X019702Y029642D01*
X019700Y029625D01*
X019625Y029625D02*
X019623Y029642D01*
X019619Y029659D01*
X019612Y029675D01*
X019602Y029689D01*
X019589Y029702D01*
X019575Y029712D01*
X019559Y029719D01*
X019542Y029723D01*
X019525Y029725D01*
X018925Y029725D01*
X018908Y029723D01*
X018891Y029719D01*
X018875Y029712D01*
X018861Y029702D01*
X018848Y029689D01*
X018838Y029675D01*
X018831Y029659D01*
X018827Y029642D01*
X018825Y029625D01*
X018750Y029625D02*
X018748Y029642D01*
X018744Y029659D01*
X018737Y029675D01*
X018727Y029689D01*
X018714Y029702D01*
X018700Y029712D01*
X018684Y029719D01*
X018667Y029723D01*
X018650Y029725D01*
X018050Y029725D01*
X018033Y029723D01*
X018016Y029719D01*
X018000Y029712D01*
X017986Y029702D01*
X017973Y029689D01*
X017963Y029675D01*
X017956Y029659D01*
X017952Y029642D01*
X017950Y029625D01*
X017875Y029625D02*
X017873Y029642D01*
X017869Y029659D01*
X017862Y029675D01*
X017852Y029689D01*
X017839Y029702D01*
X017825Y029712D01*
X017809Y029719D01*
X017792Y029723D01*
X017775Y029725D01*
X017175Y029725D01*
X017158Y029723D01*
X017141Y029719D01*
X017125Y029712D01*
X017111Y029702D01*
X017098Y029689D01*
X017088Y029675D01*
X017081Y029659D01*
X017077Y029642D01*
X017075Y029625D01*
X017075Y029475D01*
X017125Y029425D01*
X017125Y028025D01*
X017075Y027975D01*
X017075Y027825D01*
X017077Y027808D01*
X017081Y027791D01*
X017088Y027775D01*
X017098Y027761D01*
X017111Y027748D01*
X017125Y027738D01*
X017141Y027731D01*
X017158Y027727D01*
X017175Y027725D01*
X010316Y028015D02*
X010316Y027075D01*
X006386Y027075D01*
X006386Y028015D01*
X006386Y030615D01*
X006386Y030695D01*
X010316Y030695D01*
X010316Y030615D01*
X010316Y028015D01*
X009686Y028015D01*
X008986Y028015D02*
X007716Y028015D01*
X007016Y028015D02*
X006386Y028015D01*
X006316Y028015D02*
X006316Y030615D01*
X002386Y030615D01*
X002386Y030695D01*
X006316Y030695D01*
X006316Y030615D01*
X006386Y030615D02*
X010316Y030615D01*
X009136Y030095D02*
X009138Y030123D01*
X009144Y030150D01*
X009153Y030176D01*
X009166Y030201D01*
X009183Y030224D01*
X009202Y030244D01*
X009224Y030261D01*
X009248Y030275D01*
X009274Y030285D01*
X009301Y030292D01*
X009329Y030295D01*
X009357Y030294D01*
X009384Y030289D01*
X009411Y030280D01*
X009436Y030268D01*
X009459Y030253D01*
X009480Y030234D01*
X009498Y030213D01*
X009513Y030189D01*
X009524Y030163D01*
X009532Y030137D01*
X009536Y030109D01*
X009536Y030081D01*
X009532Y030053D01*
X009524Y030027D01*
X009513Y030001D01*
X009498Y029977D01*
X009480Y029956D01*
X009459Y029937D01*
X009436Y029922D01*
X009411Y029910D01*
X009384Y029901D01*
X009357Y029896D01*
X009329Y029895D01*
X009301Y029898D01*
X009274Y029905D01*
X009248Y029915D01*
X009224Y029929D01*
X009202Y029946D01*
X009183Y029966D01*
X009166Y029989D01*
X009153Y030014D01*
X009144Y030040D01*
X009138Y030067D01*
X009136Y030095D01*
X007166Y030095D02*
X007168Y030123D01*
X007174Y030150D01*
X007183Y030176D01*
X007196Y030201D01*
X007213Y030224D01*
X007232Y030244D01*
X007254Y030261D01*
X007278Y030275D01*
X007304Y030285D01*
X007331Y030292D01*
X007359Y030295D01*
X007387Y030294D01*
X007414Y030289D01*
X007441Y030280D01*
X007466Y030268D01*
X007489Y030253D01*
X007510Y030234D01*
X007528Y030213D01*
X007543Y030189D01*
X007554Y030163D01*
X007562Y030137D01*
X007566Y030109D01*
X007566Y030081D01*
X007562Y030053D01*
X007554Y030027D01*
X007543Y030001D01*
X007528Y029977D01*
X007510Y029956D01*
X007489Y029937D01*
X007466Y029922D01*
X007441Y029910D01*
X007414Y029901D01*
X007387Y029896D01*
X007359Y029895D01*
X007331Y029898D01*
X007304Y029905D01*
X007278Y029915D01*
X007254Y029929D01*
X007232Y029946D01*
X007213Y029966D01*
X007196Y029989D01*
X007183Y030014D01*
X007174Y030040D01*
X007168Y030067D01*
X007166Y030095D01*
X006316Y028015D02*
X005686Y028015D01*
X006316Y028015D02*
X006316Y027075D01*
X002386Y027075D01*
X002386Y028015D01*
X002386Y030615D01*
X003166Y030095D02*
X003168Y030123D01*
X003174Y030150D01*
X003183Y030176D01*
X003196Y030201D01*
X003213Y030224D01*
X003232Y030244D01*
X003254Y030261D01*
X003278Y030275D01*
X003304Y030285D01*
X003331Y030292D01*
X003359Y030295D01*
X003387Y030294D01*
X003414Y030289D01*
X003441Y030280D01*
X003466Y030268D01*
X003489Y030253D01*
X003510Y030234D01*
X003528Y030213D01*
X003543Y030189D01*
X003554Y030163D01*
X003562Y030137D01*
X003566Y030109D01*
X003566Y030081D01*
X003562Y030053D01*
X003554Y030027D01*
X003543Y030001D01*
X003528Y029977D01*
X003510Y029956D01*
X003489Y029937D01*
X003466Y029922D01*
X003441Y029910D01*
X003414Y029901D01*
X003387Y029896D01*
X003359Y029895D01*
X003331Y029898D01*
X003304Y029905D01*
X003278Y029915D01*
X003254Y029929D01*
X003232Y029946D01*
X003213Y029966D01*
X003196Y029989D01*
X003183Y030014D01*
X003174Y030040D01*
X003168Y030067D01*
X003166Y030095D01*
X003016Y028015D02*
X002386Y028015D01*
X003716Y028015D02*
X004986Y028015D01*
X005136Y030095D02*
X005138Y030123D01*
X005144Y030150D01*
X005153Y030176D01*
X005166Y030201D01*
X005183Y030224D01*
X005202Y030244D01*
X005224Y030261D01*
X005248Y030275D01*
X005274Y030285D01*
X005301Y030292D01*
X005329Y030295D01*
X005357Y030294D01*
X005384Y030289D01*
X005411Y030280D01*
X005436Y030268D01*
X005459Y030253D01*
X005480Y030234D01*
X005498Y030213D01*
X005513Y030189D01*
X005524Y030163D01*
X005532Y030137D01*
X005536Y030109D01*
X005536Y030081D01*
X005532Y030053D01*
X005524Y030027D01*
X005513Y030001D01*
X005498Y029977D01*
X005480Y029956D01*
X005459Y029937D01*
X005436Y029922D01*
X005411Y029910D01*
X005384Y029901D01*
X005357Y029896D01*
X005329Y029895D01*
X005301Y029898D01*
X005274Y029905D01*
X005248Y029915D01*
X005224Y029929D01*
X005202Y029946D01*
X005183Y029966D01*
X005166Y029989D01*
X005153Y030014D01*
X005144Y030040D01*
X005138Y030067D01*
X005136Y030095D01*
D14*
X004841Y029875D02*
X004766Y029950D01*
X004616Y029950D01*
X004541Y029875D01*
X004841Y029875D02*
X004841Y029800D01*
X004541Y029500D01*
X004841Y029500D01*
X004542Y027730D02*
X004242Y027730D01*
X004392Y027730D02*
X004392Y027280D01*
X004082Y027280D02*
X004082Y027730D01*
X003782Y027730D02*
X004082Y027280D01*
X003782Y027280D02*
X003782Y027730D01*
X003621Y027580D02*
X003621Y027280D01*
X003621Y027505D02*
X003321Y027505D01*
X003321Y027580D02*
X003471Y027730D01*
X003621Y027580D01*
X003321Y027580D02*
X003321Y027280D01*
X003161Y027355D02*
X003086Y027280D01*
X002936Y027280D01*
X002861Y027355D01*
X002936Y027505D02*
X003086Y027505D01*
X003161Y027430D01*
X003161Y027355D01*
X002936Y027505D02*
X002861Y027580D01*
X002861Y027655D01*
X002936Y027730D01*
X003086Y027730D01*
X003161Y027655D01*
X002891Y029500D02*
X002591Y029500D01*
X002741Y029500D02*
X002741Y029950D01*
X002591Y029800D01*
X006591Y029800D02*
X006741Y029950D01*
X006741Y029500D01*
X006591Y029500D02*
X006891Y029500D01*
X006936Y027730D02*
X006861Y027655D01*
X006861Y027580D01*
X006936Y027505D01*
X007086Y027505D01*
X007161Y027430D01*
X007161Y027355D01*
X007086Y027280D01*
X006936Y027280D01*
X006861Y027355D01*
X006936Y027730D02*
X007086Y027730D01*
X007161Y027655D01*
X007321Y027730D02*
X007546Y027730D01*
X007621Y027655D01*
X007621Y027505D01*
X007546Y027430D01*
X007321Y027430D01*
X007321Y027280D02*
X007321Y027730D01*
X007782Y027730D02*
X007782Y027280D01*
X007932Y027430D01*
X008082Y027280D01*
X008082Y027730D01*
X008242Y027730D02*
X008242Y027280D01*
X008242Y027430D02*
X008467Y027430D01*
X008542Y027505D01*
X008542Y027655D01*
X008467Y027730D01*
X008242Y027730D01*
X008392Y027430D02*
X008542Y027280D01*
X008541Y029500D02*
X008841Y029800D01*
X008841Y029875D01*
X008766Y029950D01*
X008616Y029950D01*
X008541Y029875D01*
X008541Y029500D02*
X008841Y029500D01*
X010625Y029825D02*
X010625Y027825D01*
X012125Y027825D01*
X013125Y028825D01*
X012125Y029825D01*
X012625Y029825D01*
X013125Y029325D01*
X012125Y028325D01*
X012625Y027825D01*
X013125Y028325D01*
X012125Y029325D01*
X012625Y029825D01*
X013125Y029825D01*
X012125Y028825D01*
X013125Y027825D01*
X013125Y028325D01*
X013125Y028825D01*
X013125Y029325D01*
X013125Y029825D01*
X016625Y029825D01*
X016625Y027825D01*
X013125Y027825D01*
X012625Y027825D01*
X012125Y027825D01*
X012125Y028325D01*
X012125Y028825D01*
X012125Y029325D01*
X012125Y029825D01*
X010625Y029825D01*
X010461Y024337D02*
X010461Y024037D01*
X010161Y024337D01*
X010086Y024337D01*
X010010Y024262D01*
X010010Y024112D01*
X010086Y024037D01*
X010086Y023877D02*
X010010Y023802D01*
X010010Y023652D01*
X010086Y023577D01*
X010386Y023577D01*
X010461Y023652D01*
X010461Y023802D01*
X010386Y023877D01*
X016240Y023754D02*
X016690Y023754D01*
X016690Y024054D01*
X016690Y024214D02*
X016690Y024439D01*
X016615Y024514D01*
X016315Y024514D01*
X016240Y024439D01*
X016240Y024214D01*
X016690Y024214D01*
X016465Y023904D02*
X016465Y023754D01*
X016240Y023754D02*
X016240Y024054D01*
X016390Y024674D02*
X016240Y024825D01*
X016690Y024825D01*
X016690Y024975D02*
X016690Y024674D01*
X016690Y023594D02*
X016690Y023293D01*
X016240Y023293D01*
X012430Y011231D02*
X011524Y010325D01*
X012491Y006427D02*
X012566Y006427D01*
X012642Y006352D01*
X012717Y006427D01*
X012792Y006427D01*
X012867Y006352D01*
X012867Y006202D01*
X012792Y006127D01*
X012792Y005966D02*
X012867Y005891D01*
X012867Y005741D01*
X012792Y005666D01*
X012491Y005666D01*
X012416Y005741D01*
X012416Y005891D01*
X012491Y005966D01*
X012491Y006127D02*
X012416Y006202D01*
X012416Y006352D01*
X012491Y006427D01*
X012642Y006352D02*
X012642Y006277D01*
X004344Y023577D02*
X004044Y023577D01*
X003969Y023652D01*
X003969Y023802D01*
X004044Y023877D01*
X004119Y024037D02*
X003969Y024187D01*
X004419Y024187D01*
X004419Y024037D02*
X004419Y024337D01*
X004344Y023877D02*
X004419Y023802D01*
X004419Y023652D01*
X004344Y023577D01*
D15*
X017342Y026061D02*
X017288Y026018D01*
X017236Y025972D01*
X017187Y025923D01*
X017140Y025871D01*
X017097Y025817D01*
X017056Y025761D01*
X017019Y025702D01*
X016985Y025642D01*
X016955Y025579D01*
X016928Y025516D01*
X016904Y025450D01*
X016884Y025384D01*
X016868Y025316D01*
X016856Y025248D01*
X016848Y025179D01*
X016843Y025110D01*
X016842Y025040D01*
X016845Y024971D01*
X016852Y024902D01*
X016863Y024834D01*
X016877Y024766D01*
X016896Y024699D01*
X016918Y024633D01*
X016943Y024568D01*
X016972Y024505D01*
X017005Y024444D01*
X017041Y024385D01*
X017080Y024328D01*
X017122Y024272D01*
X017167Y024220D01*
X017215Y024170D01*
X017266Y024123D01*
X017320Y024078D01*
X017375Y024037D01*
X017433Y023999D01*
X017493Y023964D01*
X017555Y023932D01*
X017618Y023904D01*
X017683Y023880D01*
X017749Y023859D01*
X017817Y023842D01*
X017885Y023828D01*
X017954Y023819D01*
X018023Y023813D01*
X018092Y023811D01*
X018161Y023813D01*
X018230Y023819D01*
X018299Y023828D01*
X018367Y023842D01*
X018435Y023859D01*
X018501Y023880D01*
X018566Y023904D01*
X018629Y023932D01*
X018691Y023964D01*
X018751Y023999D01*
X018809Y024037D01*
X018864Y024078D01*
X018918Y024123D01*
X018969Y024170D01*
X019017Y024220D01*
X019062Y024272D01*
X019104Y024328D01*
X019143Y024385D01*
X019179Y024444D01*
X019212Y024505D01*
X019241Y024568D01*
X019266Y024633D01*
X019288Y024699D01*
X019307Y024766D01*
X019321Y024834D01*
X019332Y024902D01*
X019339Y024971D01*
X019342Y025040D01*
X019341Y025110D01*
X019336Y025179D01*
X019328Y025248D01*
X019316Y025316D01*
X019300Y025384D01*
X019280Y025450D01*
X019256Y025516D01*
X019229Y025579D01*
X019199Y025642D01*
X019165Y025702D01*
X019128Y025761D01*
X019087Y025817D01*
X019044Y025871D01*
X018997Y025923D01*
X018948Y025972D01*
X018896Y026018D01*
X018842Y026061D01*
X021225Y024100D02*
X022725Y024100D01*
X022725Y021100D01*
X021225Y021100D01*
X021225Y024100D01*
X022725Y024100D01*
X022725Y028100D01*
X021225Y028100D01*
X021225Y024100D01*
X021225Y021100D02*
X022725Y021100D01*
X022725Y016100D01*
X021225Y016100D01*
X021225Y021100D01*
D16*
X019395Y027845D02*
X019045Y027845D01*
X019045Y028020D01*
X019103Y028079D01*
X019220Y028079D01*
X019278Y028020D01*
X019278Y027845D01*
X019278Y027962D02*
X019395Y028079D01*
X019395Y028204D02*
X019395Y028438D01*
X019395Y028321D02*
X019045Y028321D01*
X019161Y028204D01*
X019161Y028563D02*
X019045Y028680D01*
X019395Y028680D01*
X019395Y028563D02*
X019395Y028797D01*
X019930Y028743D02*
X019930Y028568D01*
X020280Y028568D01*
X020163Y028568D02*
X020163Y028743D01*
X020105Y028801D01*
X019988Y028801D01*
X019930Y028743D01*
X020046Y028927D02*
X019930Y029044D01*
X020280Y029044D01*
X020280Y029160D02*
X020280Y028927D01*
X020280Y028801D02*
X020163Y028684D01*
X020222Y029286D02*
X019988Y029286D01*
X019930Y029344D01*
X019930Y029461D01*
X019988Y029519D01*
X020222Y029286D01*
X020280Y029344D01*
X020280Y029461D01*
X020222Y029519D01*
X019988Y029519D01*
X018530Y029519D02*
X018530Y029286D01*
X018296Y029519D01*
X018238Y029519D01*
X018180Y029461D01*
X018180Y029344D01*
X018238Y029286D01*
X018180Y029044D02*
X018530Y029044D01*
X018530Y029160D02*
X018530Y028927D01*
X018530Y028801D02*
X018413Y028684D01*
X018413Y028743D02*
X018413Y028568D01*
X018530Y028568D02*
X018180Y028568D01*
X018180Y028743D01*
X018238Y028801D01*
X018355Y028801D01*
X018413Y028743D01*
X018296Y028927D02*
X018180Y029044D01*
X017645Y028738D02*
X017645Y028622D01*
X017587Y028563D01*
X017645Y028438D02*
X017645Y028204D01*
X017645Y028321D02*
X017295Y028321D01*
X017411Y028204D01*
X017353Y028079D02*
X017470Y028079D01*
X017528Y028020D01*
X017528Y027845D01*
X017528Y027962D02*
X017645Y028079D01*
X017645Y027845D02*
X017295Y027845D01*
X017295Y028020D01*
X017353Y028079D01*
X017353Y028563D02*
X017295Y028622D01*
X017295Y028738D01*
X017353Y028797D01*
X017411Y028797D01*
X017470Y028738D01*
X017528Y028797D01*
X017587Y028797D01*
X017645Y028738D01*
X017470Y028738D02*
X017470Y028680D01*
D17*
X017475Y027650D03*
X018350Y027650D03*
X019225Y027650D03*
X020100Y027650D03*
X020100Y029800D03*
X019225Y029800D03*
X018350Y029800D03*
X017475Y029800D03*
D18*
X017342Y026061D02*
X018842Y026061D01*
M02*
