%
M48
M72
T01C0.0236
T02C0.0276
T03C0.0320
T04C0.0394
T05C0.0400
T06C0.0433
T07C0.0470
T08C0.0630
T09C0.0709
T10C0.0730
T11C0.1300
%
T01
X6202Y11360
X5966Y12462
X6725Y12540
X6320Y15218
X6242Y16242
X6439Y18092
X5887Y19509
X4076Y16911
X3286Y18874
X6281Y24313
X7383Y23958
X9706Y23092
X10494Y22423
X9706Y19833
X11911Y18131
X13998Y18210
X14588Y16990
X14352Y15887
X14549Y13722
X16399Y12226
X15336Y10021
X12580Y12029
X11754Y12029
X11163Y12029
X10572Y12029
X9982Y12029
X10218Y14076
X11675Y14076
X12108Y10927
X9470Y16596
X13525Y22344
X13801Y20927
X15927Y18643
X17226Y20336
X17305Y21793
X17305Y22462
X18013Y23486
X16163Y23801
X15572Y24391
X16635Y26399
X12698Y27187
X20297Y19155
X19628Y15651
X18407Y14706
X17817Y14706
T02
X1600Y1600
X21600Y1600
X21600Y29600
X1600Y29600
T03
X2682Y25324
X2682Y24324
X8763Y24324
X8763Y25324
X17475Y27225
X18350Y27225
X19225Y27225
X20100Y27225
X18092Y25561
X18092Y24561
X18350Y30225
X19225Y30225
X20100Y30225
X17475Y30225
X11523Y5367
X11523Y4367
T04
X21975Y16600
X21975Y17600
X21975Y18600
X21975Y19600
X21975Y20600
X21975Y21600
X21975Y22600
X21975Y23600
X21975Y24600
X21975Y25600
X21975Y26600
X21975Y27600
T05
X19790Y11135
X19790Y10055
X19790Y8975
X19790Y7895
X19790Y6815
X20910Y7355
X20910Y8435
X20910Y9515
X20910Y10595
T06
X14359Y20562
T07
X9334Y28725
X7366Y28725
X5334Y28725
X3366Y28725
T08
X14359Y12282
T09
X5475Y9379
X5475Y1071
T10
X11775Y28825
X13625Y28825
X15475Y28825
T11
X20350Y13905
X20350Y4045
M30
