G75*
%MOIN*%
%OFA0B0*%
%FSLAX24Y24*%
%IPPOS*%
%LPD*%
%AMOC8*
5,1,8,0,0,1.08239X$1,22.5*
%
%ADD10OC8,0.0600*%
%ADD11R,0.0800X0.0800*%
%ADD12C,0.2000*%
%ADD13R,0.0866X0.0236*%
%ADD14R,0.0630X0.0710*%
%ADD15R,0.0630X0.0709*%
%ADD16C,0.0705*%
%ADD17R,0.0710X0.0630*%
%ADD18R,0.1000X0.0827*%
%ADD19OC8,0.0620*%
%ADD20C,0.0620*%
%ADD21R,0.0315X0.0551*%
%ADD22R,0.0315X0.0748*%
%ADD23C,0.0600*%
%ADD24C,0.1095*%
%ADD25R,0.0709X0.0630*%
%ADD26C,0.0594*%
%ADD27C,0.0394*%
%ADD28OC8,0.0520*%
%ADD29R,0.0500X0.0300*%
%ADD30R,0.0276X0.0551*%
%ADD31C,0.1063*%
%ADD32R,0.0315X0.0236*%
%ADD33R,0.0315X0.0197*%
%ADD34R,0.1772X0.0472*%
%ADD35R,0.1772X0.0394*%
%ADD36R,0.0752X0.0252*%
%ADD37OC8,0.0700*%
%ADD38R,0.0630X0.0315*%
%ADD39R,0.0394X0.0551*%
%ADD40C,0.0240*%
%ADD41C,0.0320*%
%ADD42C,0.0400*%
%ADD43C,0.0160*%
%ADD44C,0.0396*%
%ADD45C,0.0100*%
%ADD46C,0.0120*%
%ADD47C,0.0500*%
%ADD48C,0.0560*%
%ADD49R,0.0660X0.0660*%
%ADD50R,0.0396X0.0396*%
D10*
X019790Y007895D03*
X020910Y007355D03*
X020910Y008435D03*
X020910Y009515D03*
X020910Y010595D03*
X019790Y011135D03*
D11*
X019790Y010055D03*
X019790Y008975D03*
X019790Y006815D03*
D12*
X020350Y004045D03*
X020350Y013905D03*
D13*
X007499Y015225D03*
X007499Y015725D03*
X007499Y016225D03*
X007499Y016725D03*
X007499Y017225D03*
X007499Y017725D03*
X007499Y018225D03*
X007499Y018725D03*
X005451Y018725D03*
X005451Y018225D03*
X005451Y017725D03*
X005451Y017225D03*
X005451Y016725D03*
X005451Y016225D03*
X005451Y015725D03*
X005451Y015225D03*
D14*
X004035Y014109D03*
X002915Y014109D03*
X002915Y021031D03*
X002915Y022031D03*
X004035Y022031D03*
X004035Y021031D03*
X007025Y023069D03*
X008145Y023069D03*
D15*
X004026Y023271D03*
X002924Y023271D03*
X002924Y016069D03*
X002924Y015109D03*
X004026Y015109D03*
X004026Y016069D03*
X005674Y014290D03*
X005634Y013283D03*
X006737Y013283D03*
X006776Y014290D03*
D16*
X007366Y028373D02*
X007366Y029078D01*
X005334Y029078D02*
X005334Y028373D01*
X003366Y028373D02*
X003366Y029078D01*
X009334Y029078D02*
X009334Y028373D01*
D17*
X005501Y023607D03*
X005501Y022488D03*
X007725Y014410D03*
X007725Y013290D03*
X007725Y012160D03*
X007725Y011040D03*
X017659Y011824D03*
X018683Y011824D03*
X018683Y012943D03*
X017659Y012943D03*
X018937Y022601D03*
X018937Y023721D03*
D18*
X010659Y027408D03*
X009163Y027408D03*
D19*
X008763Y025324D03*
X002682Y025324D03*
X011523Y005367D03*
D20*
X011523Y004367D03*
X008763Y024324D03*
X002682Y024324D03*
D21*
X006810Y021777D03*
X007990Y021777D03*
X013014Y026392D03*
X014194Y026392D03*
D22*
X013604Y026292D03*
X007400Y021677D03*
D23*
X007500Y020209D02*
X007300Y020209D01*
X007300Y021045D01*
X007500Y021045D01*
X007500Y020209D01*
X007500Y020808D02*
X007300Y020808D01*
X013504Y024824D02*
X013704Y024824D01*
X013504Y024824D02*
X013504Y025660D01*
X013704Y025660D01*
X013704Y024824D01*
X013704Y025423D02*
X013504Y025423D01*
D24*
X013625Y028278D02*
X013625Y029373D01*
X011775Y029373D02*
X011775Y028278D01*
X015475Y028278D02*
X015475Y029373D01*
D25*
X015158Y026385D03*
X015158Y025283D03*
X011781Y025285D03*
X011781Y026387D03*
D26*
X021678Y026600D02*
X022272Y026600D01*
X022272Y025600D02*
X021678Y025600D01*
X021678Y024600D02*
X022272Y024600D01*
X022272Y023600D02*
X021678Y023600D01*
X021678Y022600D02*
X022272Y022600D01*
X022272Y021600D02*
X021678Y021600D01*
X021678Y020600D02*
X022272Y020600D01*
X022272Y019600D02*
X021678Y019600D01*
X021678Y018600D02*
X022272Y018600D01*
X022272Y017600D02*
X021678Y017600D01*
X021678Y016600D02*
X022272Y016600D01*
X022272Y027600D02*
X021678Y027600D01*
D27*
X000850Y000850D03*
X022350Y000850D03*
X022350Y030350D03*
X000850Y030350D03*
D28*
X017475Y030225D03*
X018350Y030225D03*
X019225Y030225D03*
X020100Y030225D03*
X020100Y027225D03*
X019225Y027225D03*
X018350Y027225D03*
X017475Y027225D03*
D29*
X016593Y023333D03*
X016593Y022833D03*
X016593Y022333D03*
X016593Y021833D03*
X016593Y021333D03*
X016593Y020833D03*
X016593Y020333D03*
X016593Y019833D03*
X016593Y019333D03*
X016593Y018833D03*
X016593Y018333D03*
X016593Y017833D03*
X016593Y017333D03*
X016593Y016833D03*
X012829Y016833D03*
X012829Y017333D03*
X012829Y017833D03*
X012829Y018333D03*
X012829Y018833D03*
X012829Y019333D03*
X012829Y019833D03*
X012829Y020333D03*
X012829Y020833D03*
X012829Y021333D03*
X012829Y021833D03*
X012829Y022333D03*
X012829Y022833D03*
X012829Y023333D03*
D30*
X012959Y015463D03*
X012459Y015463D03*
X011959Y015463D03*
X011459Y015463D03*
X010959Y015463D03*
X010459Y015463D03*
X009959Y015463D03*
X009959Y012786D03*
X010459Y012786D03*
X010959Y012786D03*
X011459Y012786D03*
X011959Y012786D03*
X012459Y012786D03*
X012959Y012786D03*
D31*
X006006Y009379D02*
X004944Y009379D01*
X004944Y001071D02*
X006006Y001071D01*
D32*
X010744Y023205D03*
X011334Y023205D03*
X011334Y024209D03*
X010744Y024209D03*
D33*
X010744Y023865D03*
X010744Y023550D03*
X011334Y023550D03*
X011334Y023865D03*
D34*
X011066Y021765D03*
X011066Y020387D03*
D35*
X011066Y021076D03*
D36*
X011667Y010000D03*
X011667Y009500D03*
X011667Y009000D03*
X011667Y008500D03*
X011667Y008000D03*
X011667Y007500D03*
X011667Y007000D03*
X011667Y006500D03*
X014517Y006500D03*
X014517Y007000D03*
X014517Y007500D03*
X014517Y008000D03*
X014517Y008500D03*
X014517Y009000D03*
X014517Y009500D03*
X014517Y010000D03*
D37*
X018092Y024561D03*
X018092Y025561D03*
D38*
X004076Y019943D03*
X004076Y019116D03*
X004076Y018289D03*
X004076Y017462D03*
X002738Y017462D03*
X002738Y018289D03*
X002738Y019116D03*
X002738Y019943D03*
X002738Y012856D03*
X004076Y012856D03*
D39*
X005100Y012305D03*
X004726Y011439D03*
X005474Y011439D03*
D40*
X006725Y012540D02*
X007105Y012160D01*
X007725Y012160D01*
X007725Y011040D02*
X008350Y011040D01*
X008350Y008325D01*
X010691Y005985D01*
X010691Y005179D01*
X011503Y004367D01*
X011523Y004367D01*
X014517Y008998D02*
X014517Y009000D01*
X014517Y008998D02*
X016399Y008998D01*
X016399Y012226D01*
X017659Y011824D02*
X017659Y010494D01*
X019178Y008975D01*
X019790Y008975D01*
X019790Y010055D02*
X018691Y011154D01*
X018683Y011824D01*
X018683Y012943D02*
X018683Y014431D01*
X018407Y014706D01*
X017817Y014706D02*
X017817Y013101D01*
X017659Y012943D01*
X019352Y015376D02*
X019628Y015651D01*
X019352Y015376D02*
X014037Y015376D01*
X013840Y015572D01*
X013840Y016124D01*
X013131Y016833D01*
X012829Y016833D01*
X012959Y015463D02*
X012959Y014879D01*
X013328Y014509D01*
X014982Y014509D01*
X015336Y014155D01*
X015336Y010021D01*
X015315Y010000D01*
X014517Y010000D01*
X012108Y010441D02*
X011667Y010000D01*
X012108Y010441D02*
X012108Y010927D01*
X011959Y012786D02*
X011959Y013722D01*
X014549Y013722D01*
X015848Y016281D02*
X021656Y016281D01*
X021975Y016600D01*
X021975Y017600D02*
X019569Y017600D01*
X018802Y016833D01*
X016593Y016833D01*
X016593Y017333D02*
X016596Y017336D01*
X016596Y017344D01*
X015848Y017344D01*
X015848Y016281D01*
X016593Y017833D02*
X018030Y017833D01*
X021124Y020927D01*
X021124Y021202D01*
X021521Y021600D01*
X021975Y021600D01*
X021975Y022600D02*
X021557Y022600D01*
X020691Y021734D01*
X020691Y021084D01*
X017940Y018333D01*
X016593Y018333D01*
X016593Y018833D02*
X017810Y018833D01*
X020257Y021281D01*
X020257Y022226D01*
X021631Y023600D01*
X021975Y023600D01*
X021975Y022600D02*
X021813Y022600D01*
X021647Y024600D02*
X021975Y024600D01*
X021647Y024600D02*
X019785Y022738D01*
X019785Y021399D01*
X017719Y019333D01*
X016593Y019333D01*
X016593Y019833D02*
X017542Y019833D01*
X018937Y021228D01*
X018937Y022601D01*
X018013Y023486D02*
X018013Y021163D01*
X017684Y020833D01*
X016593Y020833D01*
X016593Y020333D02*
X016869Y020333D01*
X017226Y020336D01*
X016593Y021333D02*
X015927Y021333D01*
X015861Y021333D01*
X015691Y021504D01*
X015691Y022698D01*
X014313Y024076D01*
X014313Y024116D01*
X015340Y025101D02*
X015158Y025283D01*
X012698Y024509D02*
X012659Y024470D01*
X013525Y022344D02*
X013514Y022333D01*
X012829Y021333D02*
X012528Y021333D01*
X012194Y021667D01*
X011066Y021765D01*
X011066Y020387D02*
X012100Y020486D01*
X012447Y020833D01*
X012829Y020833D01*
X012829Y019833D02*
X009706Y019833D01*
X009313Y019431D02*
X009313Y018092D01*
X008445Y017225D01*
X007499Y017225D01*
X007499Y017725D02*
X008237Y017725D01*
X008801Y018289D01*
X008801Y019234D01*
X008289Y019746D01*
X008289Y021478D01*
X007990Y021777D01*
X008145Y022567D02*
X008145Y023069D01*
X008145Y022567D02*
X008893Y021819D01*
X008893Y019890D01*
X009313Y019431D01*
X008250Y019076D02*
X008250Y018446D01*
X008028Y018225D01*
X007499Y018225D01*
X007499Y018725D02*
X006672Y018725D01*
X005887Y019509D01*
X005887Y021786D01*
X005501Y022173D01*
X005501Y022488D01*
X004785Y022462D02*
X004785Y021320D01*
X005257Y020848D01*
X005257Y018725D01*
X005451Y018725D01*
X005451Y018225D02*
X006306Y018225D01*
X006439Y018092D01*
X005975Y017725D02*
X005975Y017225D01*
X005451Y017225D01*
X005451Y017725D02*
X005975Y017725D01*
X005975Y017225D02*
X006225Y017225D01*
X006714Y016736D01*
X006714Y016517D01*
X007006Y016225D01*
X007499Y016225D01*
X008600Y016225D01*
X008600Y014672D01*
X008350Y014422D01*
X008350Y011040D01*
X009959Y012786D02*
X009959Y013888D01*
X008225Y014910D02*
X007725Y014410D01*
X008225Y014910D02*
X008225Y015725D01*
X007499Y015725D01*
X007499Y015225D02*
X007170Y015225D01*
X006776Y014831D01*
X006776Y014290D01*
X006737Y013283D02*
X007725Y013290D01*
X006737Y013283D02*
X006725Y012540D01*
X005634Y013283D02*
X005674Y014290D01*
X005674Y015225D01*
X005451Y015225D01*
X005146Y014634D01*
X005132Y014345D01*
X004035Y014109D01*
X004026Y014984D01*
X004026Y015109D01*
X004271Y015258D01*
X004350Y015257D01*
X004706Y015257D01*
X004768Y016225D01*
X005451Y016225D01*
X006225Y016225D01*
X006242Y016242D01*
X006168Y015725D02*
X005451Y015725D01*
X006168Y015725D02*
X006320Y015572D01*
X006320Y015218D01*
X005451Y016725D02*
X005112Y016725D01*
X004704Y016739D01*
X004026Y016069D01*
X004076Y016911D02*
X004076Y017462D01*
X003286Y018874D02*
X003044Y019116D01*
X002738Y019116D01*
X002974Y019116D01*
X003801Y019943D01*
X004076Y019943D01*
X004035Y021031D02*
X004035Y022031D01*
X003840Y022226D01*
X003840Y022265D01*
X002945Y023160D01*
X002924Y023271D01*
X004026Y023271D02*
X004048Y023199D01*
X004785Y022462D01*
X004035Y022031D02*
X004035Y021850D01*
X002915Y022031D02*
X001990Y022031D01*
X001990Y019943D01*
X002738Y019943D01*
X001990Y019943D02*
X001990Y017462D01*
X002738Y017462D01*
X002924Y016069D02*
X002924Y015109D01*
X002924Y014984D01*
X002915Y014109D01*
X002915Y013368D01*
X004076Y013368D01*
X004076Y012856D01*
X002738Y012856D02*
X002187Y012856D01*
X002187Y015691D01*
X001350Y016551D01*
X001350Y025553D01*
X003366Y027569D01*
X005334Y028725D02*
X005501Y028537D01*
X005501Y023607D01*
X006281Y024313D02*
X006281Y022306D01*
X006810Y021777D01*
X006517Y021523D01*
X006517Y019785D01*
X007029Y019273D01*
X008053Y019273D01*
X008250Y019076D01*
X007725Y018725D02*
X007499Y018725D01*
X007499Y016725D02*
X008615Y016725D01*
X011223Y019333D01*
X012829Y019333D01*
X012829Y018833D02*
X011707Y018833D01*
X009470Y016596D01*
X011959Y015463D02*
X011959Y014116D01*
X011959Y013919D01*
X011959Y013888D02*
X011959Y013722D01*
X011911Y018131D02*
X012113Y018333D01*
X012829Y018333D01*
X016593Y021833D02*
X017264Y021833D01*
X017305Y021793D01*
X017176Y022333D02*
X017305Y022462D01*
X017176Y022333D02*
X016593Y022333D01*
X020297Y019155D02*
X020742Y019600D01*
X021975Y019600D01*
X020100Y030225D02*
X019225Y030225D01*
X018350Y030225D01*
X017475Y030225D01*
D41*
X016635Y029385D01*
X016635Y026399D01*
X015158Y026385D01*
X015152Y026392D01*
X014194Y026392D01*
X015158Y025283D02*
X015158Y024961D01*
X014313Y024116D01*
X013092Y024116D01*
X012698Y024509D01*
X012698Y025257D01*
X012671Y025285D01*
X011899Y026387D02*
X012698Y027187D01*
X013625Y028113D01*
X015158Y025283D02*
X016897Y025283D01*
X017175Y025561D01*
X018092Y025561D01*
X019537Y025561D01*
X021576Y027600D01*
X021975Y027600D01*
X018097Y024561D02*
X018937Y023721D01*
X018097Y024561D02*
X018092Y024561D01*
X011066Y021076D02*
X009950Y021076D01*
X009470Y021557D01*
X009470Y022187D01*
X008958Y022698D01*
X008958Y023407D01*
X009470Y023919D01*
X009470Y025319D01*
X009431Y025358D01*
X008763Y024324D02*
X008145Y023706D01*
X008145Y023069D01*
X007400Y022209D02*
X007025Y022584D01*
X007025Y023069D01*
X007025Y023600D01*
X007383Y023958D01*
X007400Y022209D02*
X007400Y021677D01*
X003368Y023694D02*
X003368Y025297D01*
X003366Y025299D01*
X003366Y027569D01*
X003366Y028725D01*
X003368Y023694D02*
X002924Y023271D01*
D42*
X007366Y026722D02*
X007366Y028725D01*
X007366Y026722D02*
X008763Y025324D01*
X008796Y025358D01*
X009431Y025358D01*
X011708Y025358D01*
X011781Y025285D01*
X012698Y025285D01*
X012698Y026076D01*
X013014Y026392D01*
X013604Y026292D02*
X013604Y028804D01*
X013625Y028825D01*
X013625Y028113D01*
X011899Y026387D02*
X011781Y026387D01*
D43*
X012659Y024470D02*
X012398Y024209D01*
X011334Y024209D01*
X011334Y023865D01*
X011334Y023550D02*
X011872Y023550D01*
X011872Y023205D01*
X011334Y023205D01*
X010744Y023205D02*
X010539Y023001D01*
X010539Y022462D01*
X009760Y023092D02*
X010218Y023550D01*
X010744Y023550D01*
X010744Y023865D02*
X010218Y023865D01*
X010218Y024209D01*
X010744Y024209D01*
X010218Y023865D02*
X010218Y023550D01*
X009760Y023092D02*
X009706Y023092D01*
X012829Y023333D02*
X014268Y023333D01*
X015336Y022265D01*
X015336Y016990D01*
X014588Y016990D01*
X014982Y017423D02*
X014116Y017423D01*
X014116Y016596D01*
X014352Y016360D01*
X014352Y015887D01*
X013722Y014943D02*
X015100Y014943D01*
X015887Y014155D01*
X015887Y009500D01*
X014517Y009500D01*
X012580Y009706D02*
X012374Y009500D01*
X011667Y009500D01*
X011667Y009000D02*
X011240Y009000D01*
X011006Y009234D01*
X011006Y010533D01*
X011163Y010691D01*
X011163Y012029D01*
X011459Y012442D02*
X011459Y012786D01*
X011459Y012442D02*
X011754Y012147D01*
X011754Y012029D01*
X012580Y012029D02*
X012580Y009706D01*
X011667Y008500D02*
X010913Y008500D01*
X010572Y008840D01*
X010572Y012029D01*
X009982Y012029D02*
X009982Y008801D01*
X010783Y008000D01*
X011667Y008000D01*
X011667Y007000D02*
X011114Y007000D01*
X009194Y008919D01*
X009194Y014155D01*
X009588Y014549D01*
X009588Y015932D01*
X009849Y016192D01*
X010459Y016192D01*
X011801Y017534D01*
X012061Y017534D01*
X012361Y017833D01*
X012829Y017833D01*
X012829Y017333D02*
X012455Y017333D01*
X012195Y017073D01*
X012195Y016226D01*
X012181Y016212D01*
X011310Y016212D01*
X010952Y015854D01*
X010959Y015463D01*
X010459Y015463D02*
X010459Y016192D01*
X009470Y016596D02*
X009116Y016242D01*
X009116Y014588D01*
X008801Y014273D01*
X008801Y008840D01*
X011141Y006500D01*
X011667Y006500D01*
X006202Y011360D02*
X005553Y011360D01*
X005474Y011439D01*
X005100Y012305D02*
X005257Y012462D01*
X005966Y012462D01*
X004726Y011439D02*
X004726Y010002D01*
X005021Y009706D01*
X009959Y013888D02*
X010030Y013888D01*
X010218Y014076D01*
X011675Y014076D02*
X011920Y014076D01*
X011959Y014116D01*
X011959Y013919D02*
X011959Y013888D01*
X013368Y015297D02*
X013368Y015809D01*
X012951Y016212D01*
X012181Y016212D01*
X013368Y015297D02*
X013722Y014943D01*
X014982Y017423D02*
X014982Y021872D01*
X014020Y022833D01*
X012829Y022833D01*
X012829Y022333D02*
X013514Y022333D01*
X013249Y021833D02*
X013801Y021281D01*
X013801Y020927D01*
X013253Y020333D02*
X013998Y019588D01*
X013998Y018210D01*
X013253Y020333D02*
X012829Y020333D01*
X012829Y021833D02*
X013249Y021833D01*
X015572Y023486D02*
X015572Y024391D01*
X016163Y023801D02*
X016158Y023766D01*
X016593Y023333D01*
X016593Y022833D02*
X016225Y022833D01*
X015572Y023486D01*
X015927Y021333D02*
X015927Y018643D01*
X005257Y018725D02*
X004706Y018725D01*
X004706Y017895D01*
X003131Y017895D01*
X002738Y018289D01*
X004076Y018289D02*
X004076Y019116D01*
X004824Y019352D01*
X004824Y020406D01*
X002915Y020406D01*
X002915Y021031D01*
D44*
X003286Y018874D03*
X004076Y016911D03*
X005887Y019509D03*
X006439Y018092D03*
X006242Y016242D03*
X006320Y015218D03*
X006725Y012540D03*
X005966Y012462D03*
X006202Y011360D03*
X009982Y012029D03*
X010572Y012029D03*
X011163Y012029D03*
X011754Y012029D03*
X012580Y012029D03*
X012108Y010927D03*
X011675Y014076D03*
X010218Y014076D03*
X009470Y016596D03*
X009706Y019833D03*
X010494Y022423D03*
X009706Y023092D03*
X007383Y023958D03*
X006281Y024313D03*
X011911Y018131D03*
X013998Y018210D03*
X014588Y016990D03*
X014352Y015887D03*
X014549Y013722D03*
X016399Y012226D03*
X015336Y010021D03*
X017817Y014706D03*
X018407Y014706D03*
X019628Y015651D03*
X020297Y019155D03*
X017226Y020336D03*
X017305Y021793D03*
X017305Y022462D03*
X018013Y023486D03*
X016163Y023801D03*
X015572Y024391D03*
X013525Y022344D03*
X013801Y020927D03*
X015927Y018643D03*
X012698Y027187D03*
D45*
X012576Y027814D02*
X012692Y028095D01*
X012692Y029555D01*
X012553Y029892D01*
X012295Y030150D01*
X011958Y030290D01*
X011592Y030290D01*
X011255Y030150D01*
X010997Y029892D01*
X010858Y029555D01*
X010858Y028192D01*
X010086Y028192D01*
X010032Y028170D01*
X010057Y028229D01*
X010057Y029221D01*
X009947Y029487D01*
X009744Y029690D01*
X009478Y029800D01*
X009191Y029800D01*
X008925Y029690D01*
X008722Y029487D01*
X008612Y029221D01*
X008612Y028229D01*
X008627Y028192D01*
X008590Y028192D01*
X008454Y028135D01*
X008349Y028031D01*
X008293Y027895D01*
X008293Y026921D01*
X008349Y026785D01*
X008454Y026681D01*
X008590Y026625D01*
X009737Y026625D01*
X009873Y026681D01*
X009911Y026720D01*
X009950Y026681D01*
X010086Y026625D01*
X011057Y026625D01*
X011057Y025999D01*
X011113Y025863D01*
X011217Y025759D01*
X011328Y025713D01*
X011307Y025692D01*
X011287Y025658D01*
X011277Y025620D01*
X011277Y025335D01*
X011731Y025335D01*
X011731Y025235D01*
X011277Y025235D01*
X011277Y024950D01*
X011287Y024912D01*
X011307Y024878D01*
X011335Y024850D01*
X011369Y024830D01*
X011407Y024820D01*
X011731Y024820D01*
X011731Y025235D01*
X011831Y025235D01*
X011831Y024820D01*
X012155Y024820D01*
X012193Y024830D01*
X012228Y024850D01*
X012255Y024878D01*
X012275Y024912D01*
X012285Y024950D01*
X012285Y025235D01*
X011831Y025235D01*
X011831Y025335D01*
X012285Y025335D01*
X012285Y025620D01*
X012275Y025658D01*
X012255Y025692D01*
X012235Y025713D01*
X012345Y025759D01*
X012449Y025863D01*
X012505Y025999D01*
X012505Y026244D01*
X012706Y026445D01*
X012706Y026420D01*
X012985Y026420D01*
X012985Y026363D01*
X012706Y026363D01*
X012706Y026096D01*
X012717Y026058D01*
X012736Y026024D01*
X012764Y025996D01*
X012798Y025976D01*
X012837Y025966D01*
X012905Y025966D01*
X012834Y025794D01*
X012834Y024690D01*
X012936Y024444D01*
X013124Y024255D01*
X013371Y024153D01*
X013837Y024153D01*
X014083Y024255D01*
X014272Y024444D01*
X014374Y024690D01*
X014374Y025746D01*
X014425Y025746D01*
X014552Y025799D01*
X014594Y025757D01*
X014705Y025711D01*
X014684Y025690D01*
X014664Y025656D01*
X014654Y025618D01*
X014654Y025333D01*
X015108Y025333D01*
X015108Y025233D01*
X015208Y025233D01*
X015208Y024830D01*
X015091Y024713D01*
X015004Y024504D01*
X015004Y024278D01*
X015091Y024070D01*
X015122Y024038D01*
X015122Y023396D01*
X015191Y023231D01*
X015318Y023104D01*
X015970Y022452D01*
X015973Y022451D01*
X015973Y022110D01*
X015984Y022083D01*
X015973Y022057D01*
X015973Y021610D01*
X016029Y021474D01*
X016134Y021370D01*
X016221Y021333D01*
X016134Y021297D01*
X016029Y021193D01*
X015973Y021057D01*
X015973Y020610D01*
X015984Y020583D01*
X015973Y020557D01*
X015973Y020110D01*
X015984Y020083D01*
X015973Y020057D01*
X015973Y019610D01*
X015984Y019583D01*
X015973Y019557D01*
X015973Y019110D01*
X015984Y019083D01*
X015973Y019057D01*
X015973Y018610D01*
X015984Y018583D01*
X015973Y018557D01*
X015973Y018110D01*
X015984Y018083D01*
X015973Y018057D01*
X015973Y017834D01*
X015786Y017834D01*
X015786Y022355D01*
X015718Y022520D01*
X014650Y023588D01*
X014523Y023715D01*
X014358Y023783D01*
X013303Y023783D01*
X013289Y023797D01*
X013153Y023853D01*
X012506Y023853D01*
X012370Y023797D01*
X012290Y023717D01*
X012253Y023805D01*
X012127Y023931D01*
X011961Y024000D01*
X011637Y024000D01*
X011632Y024021D01*
X011628Y024027D01*
X011632Y024033D01*
X011642Y024071D01*
X011642Y024200D01*
X011343Y024200D01*
X011343Y024218D01*
X011325Y024218D01*
X011325Y024477D01*
X011240Y024477D01*
X011215Y024537D01*
X011111Y024641D01*
X010975Y024697D01*
X010513Y024697D01*
X010421Y024659D01*
X010129Y024659D01*
X009963Y024591D01*
X009837Y024464D01*
X009768Y024299D01*
X009768Y023736D01*
X009692Y023660D01*
X009593Y023660D01*
X009384Y023574D01*
X009225Y023414D01*
X009138Y023205D01*
X009138Y022979D01*
X009225Y022770D01*
X009384Y022611D01*
X009593Y022524D01*
X009819Y022524D01*
X009942Y022575D01*
X009926Y022536D01*
X009926Y022310D01*
X009937Y022282D01*
X009866Y022211D01*
X009810Y022075D01*
X009810Y021456D01*
X009866Y021320D01*
X009970Y021215D01*
X010030Y021191D01*
X010030Y021125D01*
X011017Y021125D01*
X011017Y021028D01*
X010030Y021028D01*
X010030Y020962D01*
X009970Y020937D01*
X009866Y020833D01*
X009810Y020697D01*
X009810Y020401D01*
X009593Y020401D01*
X009384Y020315D01*
X009383Y020314D01*
X009383Y021916D01*
X009309Y022096D01*
X008811Y022594D01*
X008830Y022640D01*
X008830Y023497D01*
X008788Y023599D01*
X008833Y023644D01*
X008898Y023644D01*
X009148Y023748D01*
X009339Y023939D01*
X009443Y024189D01*
X009443Y024460D01*
X009339Y024710D01*
X009148Y024901D01*
X009036Y024947D01*
X009223Y025134D01*
X009223Y025294D01*
X008793Y025294D01*
X008793Y025354D01*
X009223Y025354D01*
X009223Y025515D01*
X008954Y025784D01*
X008793Y025784D01*
X008793Y025354D01*
X008733Y025354D01*
X008733Y025294D01*
X008303Y025294D01*
X008303Y025134D01*
X008490Y024947D01*
X008378Y024901D01*
X008187Y024710D01*
X008083Y024460D01*
X008083Y024394D01*
X007896Y024207D01*
X007865Y024280D01*
X007705Y024440D01*
X007496Y024526D01*
X007270Y024526D01*
X007062Y024440D01*
X006902Y024280D01*
X006864Y024188D01*
X006831Y024155D01*
X006849Y024200D01*
X006849Y024426D01*
X006763Y024634D01*
X006603Y024794D01*
X006394Y024881D01*
X006168Y024881D01*
X005991Y024807D01*
X005991Y028069D01*
X006057Y028229D01*
X006057Y029221D01*
X005947Y029487D01*
X005744Y029690D01*
X005478Y029800D01*
X005191Y029800D01*
X004925Y029690D01*
X004722Y029487D01*
X004612Y029221D01*
X004612Y028229D01*
X004722Y027963D01*
X004925Y027760D01*
X005011Y027725D01*
X005011Y024267D01*
X004936Y024236D01*
X004832Y024132D01*
X004776Y023996D01*
X004776Y023219D01*
X004814Y023126D01*
X004711Y023229D01*
X004711Y023699D01*
X004655Y023835D01*
X004551Y023939D01*
X004415Y023996D01*
X003898Y023996D01*
X003898Y025402D01*
X003896Y025407D01*
X003896Y027881D01*
X003978Y027963D01*
X004088Y028229D01*
X004088Y029221D01*
X003978Y029487D01*
X003775Y029690D01*
X003509Y029800D01*
X003222Y029800D01*
X002956Y029690D01*
X002753Y029487D01*
X002643Y029221D01*
X002643Y028229D01*
X002753Y027963D01*
X002836Y027881D01*
X002836Y027731D01*
X001072Y025968D01*
X000935Y025830D01*
X000860Y025650D01*
X000860Y016554D01*
X000859Y016460D01*
X000860Y016457D01*
X000860Y016453D01*
X000896Y016366D01*
X000931Y016279D01*
X000933Y016276D01*
X000935Y016273D01*
X001001Y016207D01*
X001697Y015492D01*
X001697Y012758D01*
X001771Y012578D01*
X001909Y012441D01*
X002089Y012366D01*
X002259Y012366D01*
X002349Y012328D01*
X003126Y012328D01*
X003262Y012385D01*
X003366Y012489D01*
X003407Y012587D01*
X003448Y012489D01*
X003552Y012385D01*
X003688Y012328D01*
X004465Y012328D01*
X004533Y012357D01*
X004533Y012084D01*
X004456Y012084D01*
X004320Y012028D01*
X004215Y011924D01*
X004159Y011788D01*
X004159Y011089D01*
X004215Y010953D01*
X004276Y010893D01*
X004276Y009986D01*
X004179Y009889D01*
X004042Y009558D01*
X004042Y009199D01*
X004179Y008868D01*
X004433Y008614D01*
X004764Y008477D01*
X006186Y008477D01*
X006517Y008614D01*
X006771Y008868D01*
X006908Y009199D01*
X006908Y009558D01*
X006771Y009889D01*
X006517Y010143D01*
X006186Y010280D01*
X005176Y010280D01*
X005176Y010804D01*
X005204Y010793D01*
X005744Y010793D01*
X005880Y010849D01*
X005901Y010870D01*
X006089Y010792D01*
X006315Y010792D01*
X006524Y010878D01*
X006684Y011038D01*
X006770Y011247D01*
X006770Y011473D01*
X006684Y011682D01*
X006524Y011841D01*
X006315Y011928D01*
X006161Y011928D01*
X006288Y011981D01*
X006384Y012077D01*
X006403Y012058D01*
X006592Y011980D01*
X006828Y011744D01*
X007008Y011670D01*
X007042Y011670D01*
X007056Y011635D01*
X007092Y011600D01*
X007056Y011565D01*
X007000Y011429D01*
X007000Y010652D01*
X007056Y010516D01*
X007160Y010412D01*
X007296Y010355D01*
X007860Y010355D01*
X007860Y008228D01*
X007935Y008048D01*
X010201Y005782D01*
X010201Y005081D01*
X010275Y004901D01*
X010843Y004333D01*
X010843Y004231D01*
X010947Y003982D01*
X011138Y003790D01*
X011388Y003687D01*
X011658Y003687D01*
X011908Y003790D01*
X012100Y003982D01*
X012203Y004231D01*
X012203Y004502D01*
X012100Y004752D01*
X011908Y004943D01*
X011797Y004990D01*
X011983Y005176D01*
X011983Y005337D01*
X011553Y005337D01*
X011553Y005397D01*
X011493Y005397D01*
X011493Y005827D01*
X011333Y005827D01*
X011181Y005675D01*
X011181Y006019D01*
X011217Y006004D01*
X012117Y006004D01*
X012253Y006060D01*
X012357Y006164D01*
X012413Y006300D01*
X012413Y006699D01*
X012392Y006750D01*
X012413Y006800D01*
X012413Y007199D01*
X012392Y007250D01*
X012413Y007300D01*
X012413Y007699D01*
X012392Y007750D01*
X012413Y007800D01*
X012413Y008199D01*
X012392Y008250D01*
X012413Y008300D01*
X012413Y008699D01*
X012392Y008750D01*
X012413Y008800D01*
X012413Y009050D01*
X012463Y009050D01*
X012629Y009118D01*
X012755Y009245D01*
X012962Y009451D01*
X013030Y009617D01*
X013030Y011676D01*
X013062Y011707D01*
X013148Y011916D01*
X013148Y012140D01*
X013171Y012140D01*
X013307Y012197D01*
X013411Y012301D01*
X013467Y012437D01*
X013467Y013135D01*
X013411Y013271D01*
X013307Y013375D01*
X013171Y013432D01*
X012748Y013432D01*
X012709Y013416D01*
X012671Y013432D01*
X012248Y013432D01*
X012112Y013375D01*
X012008Y013271D01*
X011983Y013212D01*
X011978Y013212D01*
X011978Y013200D01*
X011959Y013154D01*
X011940Y013200D01*
X011940Y013212D01*
X011935Y013212D01*
X011911Y013271D01*
X011807Y013375D01*
X011671Y013432D01*
X011248Y013432D01*
X011209Y013416D01*
X011171Y013432D01*
X010748Y013432D01*
X010709Y013416D01*
X010671Y013432D01*
X010248Y013432D01*
X010112Y013375D01*
X010008Y013271D01*
X009983Y013212D01*
X009978Y013212D01*
X009978Y013200D01*
X009951Y013135D01*
X009951Y012805D01*
X009940Y012805D01*
X009940Y012767D01*
X009671Y012767D01*
X009671Y012515D01*
X009660Y012511D01*
X009644Y012495D01*
X009644Y013969D01*
X009843Y014167D01*
X009970Y014294D01*
X010038Y014459D01*
X010038Y014818D01*
X010171Y014818D01*
X010209Y014834D01*
X010248Y014818D01*
X010671Y014818D01*
X010709Y014834D01*
X010748Y014818D01*
X011171Y014818D01*
X011209Y014834D01*
X011248Y014818D01*
X011671Y014818D01*
X011807Y014874D01*
X011911Y014978D01*
X011935Y015038D01*
X011940Y015038D01*
X011940Y015050D01*
X011959Y015095D01*
X011978Y015050D01*
X011978Y015038D01*
X011983Y015038D01*
X012008Y014978D01*
X012112Y014874D01*
X012248Y014818D01*
X012469Y014818D01*
X012469Y014781D01*
X012544Y014601D01*
X012913Y014232D01*
X013051Y014094D01*
X013231Y014019D01*
X014779Y014019D01*
X014846Y013952D01*
X014846Y012877D01*
X014792Y012931D01*
X014511Y013047D01*
X014207Y013047D01*
X013926Y012931D01*
X013710Y012715D01*
X013594Y012434D01*
X013594Y012130D01*
X013710Y011849D01*
X013926Y011634D01*
X014207Y011517D01*
X014511Y011517D01*
X014792Y011634D01*
X014846Y011688D01*
X014846Y010496D01*
X014068Y010496D01*
X013932Y010439D01*
X013828Y010335D01*
X013771Y010199D01*
X013771Y009800D01*
X013792Y009750D01*
X013771Y009699D01*
X013771Y009300D01*
X013792Y009250D01*
X013771Y009199D01*
X013771Y008800D01*
X013792Y008750D01*
X013771Y008699D01*
X013771Y008300D01*
X013792Y008250D01*
X013771Y008199D01*
X013771Y007800D01*
X013792Y007750D01*
X013771Y007699D01*
X013771Y007300D01*
X013792Y007250D01*
X013771Y007199D01*
X013771Y006800D01*
X013792Y006750D01*
X013771Y006699D01*
X013771Y006300D01*
X013828Y006164D01*
X013932Y006060D01*
X014068Y006004D01*
X014967Y006004D01*
X015103Y006060D01*
X015207Y006164D01*
X015263Y006300D01*
X015263Y006699D01*
X015242Y006750D01*
X015263Y006800D01*
X015263Y007199D01*
X015242Y007250D01*
X015263Y007300D01*
X015263Y007699D01*
X015242Y007750D01*
X015263Y007800D01*
X015263Y008199D01*
X015242Y008250D01*
X015263Y008300D01*
X015263Y008508D01*
X016497Y008508D01*
X016677Y008582D01*
X016815Y008720D01*
X016889Y008900D01*
X016889Y011924D01*
X016934Y012033D01*
X016934Y011435D01*
X016990Y011299D01*
X017095Y011195D01*
X017169Y011164D01*
X017169Y010396D01*
X017244Y010216D01*
X018900Y008560D01*
X019020Y008510D01*
X019020Y008501D01*
X019076Y008365D01*
X019180Y008261D01*
X019200Y008253D01*
X019120Y008173D01*
X019120Y007617D01*
X019372Y007365D01*
X019370Y007365D01*
X019332Y007355D01*
X019298Y007335D01*
X019270Y007307D01*
X019250Y007273D01*
X019240Y007235D01*
X019240Y006865D01*
X019740Y006865D01*
X019740Y006765D01*
X019840Y006765D01*
X019840Y006865D01*
X020340Y006865D01*
X020340Y006977D01*
X020632Y006685D01*
X021188Y006685D01*
X021580Y007077D01*
X021580Y007633D01*
X021318Y007895D01*
X021580Y008157D01*
X021580Y008713D01*
X021318Y008975D01*
X021580Y009237D01*
X021580Y009793D01*
X021318Y010055D01*
X021580Y010317D01*
X021580Y010873D01*
X021188Y011265D01*
X020632Y011265D01*
X020460Y011093D01*
X020460Y011413D01*
X020068Y011805D01*
X019512Y011805D01*
X019408Y011700D01*
X019408Y012212D01*
X019351Y012348D01*
X019316Y012383D01*
X019351Y012419D01*
X019408Y012555D01*
X019408Y012910D01*
X019509Y012809D01*
X019821Y012628D01*
X020170Y012535D01*
X020530Y012535D01*
X020879Y012628D01*
X021191Y012809D01*
X021446Y013064D01*
X021627Y013376D01*
X021720Y013725D01*
X021720Y014085D01*
X021627Y014434D01*
X021446Y014746D01*
X021191Y015001D01*
X020879Y015182D01*
X020530Y015275D01*
X020170Y015275D01*
X020013Y015233D01*
X020109Y015329D01*
X020196Y015538D01*
X020196Y015764D01*
X020185Y015791D01*
X021754Y015791D01*
X021934Y015866D01*
X022001Y015933D01*
X022404Y015933D01*
X022650Y016035D01*
X022650Y002131D01*
X022599Y001999D01*
X022452Y001719D01*
X022359Y001581D01*
X022300Y001581D01*
X022300Y002004D01*
X022244Y002140D01*
X022140Y002244D01*
X022004Y002300D01*
X021196Y002300D01*
X021060Y002244D01*
X020956Y002140D01*
X020900Y002004D01*
X020900Y001196D01*
X020956Y001060D01*
X021060Y000956D01*
X021196Y000900D01*
X021612Y000900D01*
X021600Y000850D01*
X021605Y000828D01*
X021587Y000814D01*
X021314Y000656D01*
X021074Y000550D01*
X006760Y000550D01*
X006771Y000561D01*
X006908Y000892D01*
X006908Y001251D01*
X006771Y001582D01*
X006517Y001836D01*
X006186Y001973D01*
X004764Y001973D01*
X004433Y001836D01*
X004179Y001582D01*
X004042Y001251D01*
X004042Y000892D01*
X004179Y000561D01*
X004190Y000550D01*
X002126Y000550D01*
X001886Y000656D01*
X001613Y000814D01*
X001595Y000828D01*
X001600Y000850D01*
X001588Y000900D01*
X002004Y000900D01*
X002140Y000956D01*
X002244Y001060D01*
X002300Y001196D01*
X002300Y002004D01*
X002244Y002140D01*
X002140Y002244D01*
X002004Y002300D01*
X001196Y002300D01*
X001060Y002244D01*
X000956Y002140D01*
X000900Y002004D01*
X000900Y001581D01*
X000841Y001581D01*
X000748Y001719D01*
X000601Y001999D01*
X000550Y002131D01*
X000550Y029083D01*
X000599Y029210D01*
X000759Y029511D01*
X000835Y029619D01*
X000900Y029619D01*
X000900Y029196D01*
X000956Y029060D01*
X001060Y028956D01*
X001196Y028900D01*
X002004Y028900D01*
X002140Y028956D01*
X002244Y029060D01*
X002300Y029196D01*
X002300Y030004D01*
X002244Y030140D01*
X002140Y030244D01*
X002004Y030300D01*
X001588Y030300D01*
X001600Y030350D01*
X001594Y030374D01*
X001719Y030459D01*
X002021Y030615D01*
X002116Y030650D01*
X017009Y030650D01*
X016845Y030486D01*
X016845Y030345D01*
X016294Y029793D01*
X016253Y029892D01*
X015995Y030150D01*
X015658Y030290D01*
X015292Y030290D01*
X014955Y030150D01*
X014697Y029892D01*
X014558Y029555D01*
X014558Y028095D01*
X014697Y027758D01*
X014955Y027500D01*
X015292Y027360D01*
X015658Y027360D01*
X015995Y027500D01*
X016105Y027610D01*
X016105Y026924D01*
X015814Y026922D01*
X015722Y027014D01*
X015586Y027070D01*
X014730Y027070D01*
X014594Y027014D01*
X014561Y026981D01*
X014425Y027037D01*
X014174Y027037D01*
X014174Y027529D01*
X014403Y027758D01*
X014542Y028095D01*
X014542Y029555D01*
X014403Y029892D01*
X014145Y030150D01*
X013808Y030290D01*
X013442Y030290D01*
X013105Y030150D01*
X012847Y029892D01*
X012708Y029555D01*
X012708Y028095D01*
X012751Y027989D01*
X012576Y027814D01*
X012602Y027877D02*
X012639Y027877D01*
X012643Y027976D02*
X012738Y027976D01*
X012716Y028074D02*
X012684Y028074D01*
X012692Y028173D02*
X012708Y028173D01*
X012708Y028271D02*
X012692Y028271D01*
X012692Y028370D02*
X012708Y028370D01*
X012708Y028468D02*
X012692Y028468D01*
X012692Y028567D02*
X012708Y028567D01*
X012708Y028665D02*
X012692Y028665D01*
X012692Y028764D02*
X012708Y028764D01*
X012708Y028862D02*
X012692Y028862D01*
X012692Y028961D02*
X012708Y028961D01*
X012708Y029059D02*
X012692Y029059D01*
X012692Y029158D02*
X012708Y029158D01*
X012708Y029256D02*
X012692Y029256D01*
X012692Y029355D02*
X012708Y029355D01*
X012708Y029453D02*
X012692Y029453D01*
X012692Y029552D02*
X012708Y029552D01*
X012747Y029650D02*
X012653Y029650D01*
X012612Y029749D02*
X012788Y029749D01*
X012828Y029847D02*
X012572Y029847D01*
X012499Y029946D02*
X012901Y029946D01*
X012999Y030044D02*
X012401Y030044D01*
X012302Y030143D02*
X013098Y030143D01*
X013324Y030241D02*
X012076Y030241D01*
X011474Y030241D02*
X002142Y030241D01*
X002241Y030143D02*
X011248Y030143D01*
X011149Y030044D02*
X002283Y030044D01*
X002300Y029946D02*
X011051Y029946D01*
X010978Y029847D02*
X002300Y029847D01*
X002300Y029749D02*
X003098Y029749D01*
X002917Y029650D02*
X002300Y029650D01*
X002300Y029552D02*
X002818Y029552D01*
X002739Y029453D02*
X002300Y029453D01*
X002300Y029355D02*
X002698Y029355D01*
X002658Y029256D02*
X002300Y029256D01*
X002284Y029158D02*
X002643Y029158D01*
X002643Y029059D02*
X002242Y029059D01*
X002144Y028961D02*
X002643Y028961D01*
X002643Y028862D02*
X000550Y028862D01*
X000550Y028764D02*
X002643Y028764D01*
X002643Y028665D02*
X000550Y028665D01*
X000550Y028567D02*
X002643Y028567D01*
X002643Y028468D02*
X000550Y028468D01*
X000550Y028370D02*
X002643Y028370D01*
X002643Y028271D02*
X000550Y028271D01*
X000550Y028173D02*
X002667Y028173D01*
X002707Y028074D02*
X000550Y028074D01*
X000550Y027976D02*
X002748Y027976D01*
X002836Y027877D02*
X000550Y027877D01*
X000550Y027779D02*
X002836Y027779D01*
X002784Y027680D02*
X000550Y027680D01*
X000550Y027582D02*
X002686Y027582D01*
X002587Y027483D02*
X000550Y027483D01*
X000550Y027385D02*
X002489Y027385D01*
X002390Y027286D02*
X000550Y027286D01*
X000550Y027188D02*
X002292Y027188D01*
X002193Y027089D02*
X000550Y027089D01*
X000550Y026991D02*
X002095Y026991D01*
X001996Y026892D02*
X000550Y026892D01*
X000550Y026794D02*
X001898Y026794D01*
X001799Y026695D02*
X000550Y026695D01*
X000550Y026597D02*
X001701Y026597D01*
X001602Y026498D02*
X000550Y026498D01*
X000550Y026400D02*
X001504Y026400D01*
X001405Y026301D02*
X000550Y026301D01*
X000550Y026203D02*
X001307Y026203D01*
X001208Y026104D02*
X000550Y026104D01*
X000550Y026006D02*
X001110Y026006D01*
X001011Y025907D02*
X000550Y025907D01*
X000550Y025809D02*
X000926Y025809D01*
X000885Y025710D02*
X000550Y025710D01*
X000550Y025612D02*
X000860Y025612D01*
X000860Y025513D02*
X000550Y025513D01*
X000550Y025415D02*
X000860Y025415D01*
X000860Y025316D02*
X000550Y025316D01*
X000550Y025218D02*
X000860Y025218D01*
X000860Y025119D02*
X000550Y025119D01*
X000550Y025021D02*
X000860Y025021D01*
X000860Y024922D02*
X000550Y024922D01*
X000550Y024824D02*
X000860Y024824D01*
X000860Y024725D02*
X000550Y024725D01*
X000550Y024627D02*
X000860Y024627D01*
X000860Y024528D02*
X000550Y024528D01*
X000550Y024430D02*
X000860Y024430D01*
X000860Y024331D02*
X000550Y024331D01*
X000550Y024233D02*
X000860Y024233D01*
X000860Y024134D02*
X000550Y024134D01*
X000550Y024036D02*
X000860Y024036D01*
X000860Y023937D02*
X000550Y023937D01*
X000550Y023839D02*
X000860Y023839D01*
X000860Y023740D02*
X000550Y023740D01*
X000550Y023642D02*
X000860Y023642D01*
X000860Y023543D02*
X000550Y023543D01*
X000550Y023445D02*
X000860Y023445D01*
X000860Y023346D02*
X000550Y023346D01*
X000550Y023248D02*
X000860Y023248D01*
X000860Y023149D02*
X000550Y023149D01*
X000550Y023051D02*
X000860Y023051D01*
X000860Y022952D02*
X000550Y022952D01*
X000550Y022854D02*
X000860Y022854D01*
X000860Y022755D02*
X000550Y022755D01*
X000550Y022657D02*
X000860Y022657D01*
X000860Y022558D02*
X000550Y022558D01*
X000550Y022460D02*
X000860Y022460D01*
X000860Y022361D02*
X000550Y022361D01*
X000550Y022263D02*
X000860Y022263D01*
X000860Y022164D02*
X000550Y022164D01*
X000550Y022066D02*
X000860Y022066D01*
X000860Y021967D02*
X000550Y021967D01*
X000550Y021869D02*
X000860Y021869D01*
X000860Y021770D02*
X000550Y021770D01*
X000550Y021672D02*
X000860Y021672D01*
X000860Y021573D02*
X000550Y021573D01*
X000550Y021475D02*
X000860Y021475D01*
X000860Y021376D02*
X000550Y021376D01*
X000550Y021278D02*
X000860Y021278D01*
X000860Y021179D02*
X000550Y021179D01*
X000550Y021081D02*
X000860Y021081D01*
X000860Y020982D02*
X000550Y020982D01*
X000550Y020884D02*
X000860Y020884D01*
X000860Y020785D02*
X000550Y020785D01*
X000550Y020687D02*
X000860Y020687D01*
X000860Y020588D02*
X000550Y020588D01*
X000550Y020490D02*
X000860Y020490D01*
X000860Y020391D02*
X000550Y020391D01*
X000550Y020293D02*
X000860Y020293D01*
X000860Y020194D02*
X000550Y020194D01*
X000550Y020096D02*
X000860Y020096D01*
X000860Y019997D02*
X000550Y019997D01*
X000550Y019899D02*
X000860Y019899D01*
X000860Y019800D02*
X000550Y019800D01*
X000550Y019702D02*
X000860Y019702D01*
X000860Y019603D02*
X000550Y019603D01*
X000550Y019505D02*
X000860Y019505D01*
X000860Y019406D02*
X000550Y019406D01*
X000550Y019308D02*
X000860Y019308D01*
X000860Y019209D02*
X000550Y019209D01*
X000550Y019111D02*
X000860Y019111D01*
X000860Y019012D02*
X000550Y019012D01*
X000550Y018914D02*
X000860Y018914D01*
X000860Y018815D02*
X000550Y018815D01*
X000550Y018717D02*
X000860Y018717D01*
X000860Y018618D02*
X000550Y018618D01*
X000550Y018520D02*
X000860Y018520D01*
X000860Y018421D02*
X000550Y018421D01*
X000550Y018323D02*
X000860Y018323D01*
X000860Y018224D02*
X000550Y018224D01*
X000550Y018126D02*
X000860Y018126D01*
X000860Y018027D02*
X000550Y018027D01*
X000550Y017929D02*
X000860Y017929D01*
X000860Y017830D02*
X000550Y017830D01*
X000550Y017732D02*
X000860Y017732D01*
X000860Y017633D02*
X000550Y017633D01*
X000550Y017535D02*
X000860Y017535D01*
X000860Y017436D02*
X000550Y017436D01*
X000550Y017338D02*
X000860Y017338D01*
X000860Y017239D02*
X000550Y017239D01*
X000550Y017141D02*
X000860Y017141D01*
X000860Y017042D02*
X000550Y017042D01*
X000550Y016944D02*
X000860Y016944D01*
X000860Y016845D02*
X000550Y016845D01*
X000550Y016747D02*
X000860Y016747D01*
X000860Y016648D02*
X000550Y016648D01*
X000550Y016550D02*
X000860Y016550D01*
X000861Y016451D02*
X000550Y016451D01*
X000550Y016353D02*
X000902Y016353D01*
X000954Y016254D02*
X000550Y016254D01*
X000550Y016156D02*
X001051Y016156D01*
X001147Y016057D02*
X000550Y016057D01*
X000550Y015959D02*
X001242Y015959D01*
X001338Y015860D02*
X000550Y015860D01*
X000550Y015762D02*
X001434Y015762D01*
X001530Y015663D02*
X000550Y015663D01*
X000550Y015565D02*
X001626Y015565D01*
X001697Y015466D02*
X000550Y015466D01*
X000550Y015368D02*
X001697Y015368D01*
X001697Y015269D02*
X000550Y015269D01*
X000550Y015171D02*
X001697Y015171D01*
X001697Y015072D02*
X000550Y015072D01*
X000550Y014974D02*
X001697Y014974D01*
X001697Y014875D02*
X000550Y014875D01*
X000550Y014777D02*
X001697Y014777D01*
X001697Y014678D02*
X000550Y014678D01*
X000550Y014580D02*
X001697Y014580D01*
X001697Y014481D02*
X000550Y014481D01*
X000550Y014383D02*
X001697Y014383D01*
X001697Y014284D02*
X000550Y014284D01*
X000550Y014186D02*
X001697Y014186D01*
X001697Y014087D02*
X000550Y014087D01*
X000550Y013989D02*
X001697Y013989D01*
X001697Y013890D02*
X000550Y013890D01*
X000550Y013792D02*
X001697Y013792D01*
X001697Y013693D02*
X000550Y013693D01*
X000550Y013595D02*
X001697Y013595D01*
X001697Y013496D02*
X000550Y013496D01*
X000550Y013398D02*
X001697Y013398D01*
X001697Y013299D02*
X000550Y013299D01*
X000550Y013201D02*
X001697Y013201D01*
X001697Y013102D02*
X000550Y013102D01*
X000550Y013004D02*
X001697Y013004D01*
X001697Y012905D02*
X000550Y012905D01*
X000550Y012807D02*
X001697Y012807D01*
X001717Y012708D02*
X000550Y012708D01*
X000550Y012610D02*
X001758Y012610D01*
X001839Y012511D02*
X000550Y012511D01*
X000550Y012413D02*
X001977Y012413D01*
X003290Y012413D02*
X003524Y012413D01*
X003439Y012511D02*
X003376Y012511D01*
X004214Y011920D02*
X000550Y011920D01*
X000550Y011822D02*
X004173Y011822D01*
X004159Y011723D02*
X000550Y011723D01*
X000550Y011625D02*
X004159Y011625D01*
X004159Y011526D02*
X000550Y011526D01*
X000550Y011428D02*
X004159Y011428D01*
X004159Y011329D02*
X000550Y011329D01*
X000550Y011231D02*
X004159Y011231D01*
X004159Y011132D02*
X000550Y011132D01*
X000550Y011034D02*
X004182Y011034D01*
X004234Y010935D02*
X000550Y010935D01*
X000550Y010837D02*
X004276Y010837D01*
X004276Y010738D02*
X000550Y010738D01*
X000550Y010640D02*
X004276Y010640D01*
X004276Y010541D02*
X000550Y010541D01*
X000550Y010443D02*
X004276Y010443D01*
X004276Y010344D02*
X000550Y010344D01*
X000550Y010246D02*
X004276Y010246D01*
X004276Y010147D02*
X000550Y010147D01*
X000550Y010049D02*
X004276Y010049D01*
X004240Y009950D02*
X000550Y009950D01*
X000550Y009852D02*
X004164Y009852D01*
X004123Y009753D02*
X000550Y009753D01*
X000550Y009655D02*
X004082Y009655D01*
X004042Y009556D02*
X000550Y009556D01*
X000550Y009458D02*
X004042Y009458D01*
X004042Y009359D02*
X000550Y009359D01*
X000550Y009261D02*
X004042Y009261D01*
X004057Y009162D02*
X000550Y009162D01*
X000550Y009064D02*
X004098Y009064D01*
X004139Y008965D02*
X000550Y008965D01*
X000550Y008867D02*
X004181Y008867D01*
X004279Y008768D02*
X000550Y008768D01*
X000550Y008670D02*
X004378Y008670D01*
X004537Y008571D02*
X000550Y008571D01*
X000550Y008473D02*
X007860Y008473D01*
X007860Y008571D02*
X006413Y008571D01*
X006572Y008670D02*
X007860Y008670D01*
X007860Y008768D02*
X006671Y008768D01*
X006769Y008867D02*
X007860Y008867D01*
X007860Y008965D02*
X006811Y008965D01*
X006852Y009064D02*
X007860Y009064D01*
X007860Y009162D02*
X006893Y009162D01*
X006908Y009261D02*
X007860Y009261D01*
X007860Y009359D02*
X006908Y009359D01*
X006908Y009458D02*
X007860Y009458D01*
X007860Y009556D02*
X006908Y009556D01*
X006868Y009655D02*
X007860Y009655D01*
X007860Y009753D02*
X006827Y009753D01*
X006786Y009852D02*
X007860Y009852D01*
X007860Y009950D02*
X006710Y009950D01*
X006611Y010049D02*
X007860Y010049D01*
X007860Y010147D02*
X006507Y010147D01*
X006269Y010246D02*
X007860Y010246D01*
X007860Y010344D02*
X005176Y010344D01*
X005176Y010443D02*
X007129Y010443D01*
X007046Y010541D02*
X005176Y010541D01*
X005176Y010640D02*
X007005Y010640D01*
X007000Y010738D02*
X005176Y010738D01*
X005850Y010837D02*
X005981Y010837D01*
X006424Y010837D02*
X007000Y010837D01*
X007000Y010935D02*
X006581Y010935D01*
X006679Y011034D02*
X007000Y011034D01*
X007000Y011132D02*
X006723Y011132D01*
X006764Y011231D02*
X007000Y011231D01*
X007000Y011329D02*
X006770Y011329D01*
X006770Y011428D02*
X007000Y011428D01*
X007040Y011526D02*
X006748Y011526D01*
X006708Y011625D02*
X007067Y011625D01*
X006879Y011723D02*
X006643Y011723D01*
X006544Y011822D02*
X006750Y011822D01*
X006652Y011920D02*
X006334Y011920D01*
X006326Y012019D02*
X006499Y012019D01*
X005584Y013233D02*
X005169Y013233D01*
X005169Y012950D01*
X004830Y012950D01*
X004761Y012922D01*
X004761Y013087D01*
X004705Y013223D01*
X004601Y013327D01*
X004566Y013341D01*
X004566Y013465D01*
X004492Y013645D01*
X004472Y013665D01*
X004490Y013696D01*
X004500Y013734D01*
X004500Y014059D01*
X004085Y014059D01*
X004085Y014159D01*
X004500Y014159D01*
X004500Y014484D01*
X004490Y014522D01*
X004470Y014556D01*
X004442Y014584D01*
X004408Y014604D01*
X004382Y014610D01*
X004399Y014615D01*
X004433Y014634D01*
X004461Y014662D01*
X004481Y014697D01*
X004491Y014735D01*
X004491Y015059D01*
X004076Y015059D01*
X004076Y014605D01*
X004085Y014605D01*
X004085Y014159D01*
X003985Y014159D01*
X003985Y014614D01*
X003976Y014614D01*
X003976Y015059D01*
X004076Y015059D01*
X004076Y015159D01*
X004491Y015159D01*
X004491Y015377D01*
X004551Y015401D01*
X004655Y015506D01*
X004657Y015512D01*
X004705Y015397D01*
X004809Y015293D01*
X004868Y015269D01*
X004868Y015234D01*
X005442Y015234D01*
X005442Y015216D01*
X004868Y015216D01*
X004868Y015087D01*
X004879Y015049D01*
X004898Y015015D01*
X004926Y014987D01*
X004960Y014967D01*
X004999Y014957D01*
X005442Y014957D01*
X005442Y015216D01*
X005460Y015216D01*
X005460Y014957D01*
X005814Y014957D01*
X005839Y014896D01*
X005941Y014794D01*
X005724Y014794D01*
X005724Y014340D01*
X005624Y014340D01*
X005624Y014794D01*
X005339Y014794D01*
X005301Y014784D01*
X005267Y014764D01*
X005239Y014736D01*
X005219Y014702D01*
X005209Y014664D01*
X005209Y014340D01*
X005624Y014340D01*
X005624Y014240D01*
X005724Y014240D01*
X005724Y013787D01*
X005684Y013787D01*
X005684Y013333D01*
X005584Y013333D01*
X005584Y013233D01*
X005584Y013299D02*
X004629Y013299D01*
X004566Y013398D02*
X005169Y013398D01*
X005169Y013333D02*
X005584Y013333D01*
X005584Y013786D01*
X005624Y013786D01*
X005624Y014240D01*
X005209Y014240D01*
X005209Y013916D01*
X005219Y013878D01*
X005239Y013844D01*
X005267Y013816D01*
X005301Y013796D01*
X005333Y013787D01*
X005300Y013787D01*
X005262Y013777D01*
X005227Y013757D01*
X005199Y013730D01*
X005180Y013695D01*
X005169Y013657D01*
X005169Y013333D01*
X005169Y013201D02*
X004714Y013201D01*
X004755Y013102D02*
X005169Y013102D01*
X005169Y013004D02*
X004761Y013004D01*
X004554Y013496D02*
X005169Y013496D01*
X005169Y013595D02*
X004513Y013595D01*
X004488Y013693D02*
X005179Y013693D01*
X005317Y013792D02*
X004500Y013792D01*
X004500Y013890D02*
X005216Y013890D01*
X005209Y013989D02*
X004500Y013989D01*
X004500Y014186D02*
X005209Y014186D01*
X005209Y014087D02*
X004085Y014087D01*
X004085Y014186D02*
X003985Y014186D01*
X003985Y014284D02*
X004085Y014284D01*
X004085Y014383D02*
X003985Y014383D01*
X003985Y014481D02*
X004085Y014481D01*
X004085Y014580D02*
X003985Y014580D01*
X003976Y014678D02*
X004076Y014678D01*
X004076Y014777D02*
X003976Y014777D01*
X003976Y014875D02*
X004076Y014875D01*
X004076Y014974D02*
X003976Y014974D01*
X004076Y015072D02*
X004872Y015072D01*
X004868Y015171D02*
X004491Y015171D01*
X004491Y015269D02*
X004867Y015269D01*
X004734Y015368D02*
X004491Y015368D01*
X004615Y015466D02*
X004676Y015466D01*
X004491Y014974D02*
X004949Y014974D01*
X005213Y014678D02*
X004470Y014678D01*
X004491Y014777D02*
X005288Y014777D01*
X005209Y014580D02*
X004446Y014580D01*
X004500Y014481D02*
X005209Y014481D01*
X005209Y014383D02*
X004500Y014383D01*
X004500Y014284D02*
X005624Y014284D01*
X005624Y014186D02*
X005724Y014186D01*
X005724Y014087D02*
X005624Y014087D01*
X005624Y013989D02*
X005724Y013989D01*
X005724Y013890D02*
X005624Y013890D01*
X005624Y013792D02*
X005724Y013792D01*
X005684Y013693D02*
X005584Y013693D01*
X005584Y013595D02*
X005684Y013595D01*
X005684Y013496D02*
X005584Y013496D01*
X005584Y013398D02*
X005684Y013398D01*
X005724Y014383D02*
X005624Y014383D01*
X005624Y014481D02*
X005724Y014481D01*
X005724Y014580D02*
X005624Y014580D01*
X005624Y014678D02*
X005724Y014678D01*
X005724Y014777D02*
X005624Y014777D01*
X005860Y014875D02*
X004491Y014875D01*
X005442Y014974D02*
X005460Y014974D01*
X005460Y015072D02*
X005442Y015072D01*
X005442Y015171D02*
X005460Y015171D01*
X005460Y015216D02*
X005752Y015216D01*
X005752Y015234D01*
X005460Y015234D01*
X005460Y015216D01*
X005460Y016216D02*
X005460Y016234D01*
X006034Y016234D01*
X006034Y016269D01*
X006094Y016293D01*
X006198Y016397D01*
X006224Y016460D01*
X006224Y016420D01*
X006299Y016240D01*
X006365Y016174D01*
X006265Y016215D01*
X006034Y016215D01*
X006034Y016216D01*
X005460Y016216D01*
X006034Y016254D02*
X006293Y016254D01*
X006252Y016353D02*
X006153Y016353D01*
X006220Y016451D02*
X006224Y016451D01*
X006705Y017438D02*
X006503Y017640D01*
X006465Y017656D01*
X006465Y017822D01*
X006390Y018003D01*
X006253Y018140D01*
X006072Y018215D01*
X006034Y018215D01*
X006034Y018216D01*
X005460Y018216D01*
X005460Y018234D01*
X006034Y018234D01*
X006034Y018269D01*
X006094Y018293D01*
X006198Y018397D01*
X006230Y018474D01*
X006394Y018310D01*
X006574Y018235D01*
X006696Y018235D01*
X006696Y018033D01*
X006720Y017975D01*
X006696Y017917D01*
X006696Y017533D01*
X006720Y017475D01*
X006705Y017438D01*
X006696Y017535D02*
X006608Y017535D01*
X006696Y017633D02*
X006510Y017633D01*
X006465Y017732D02*
X006696Y017732D01*
X006696Y017830D02*
X006462Y017830D01*
X006421Y017929D02*
X006700Y017929D01*
X006698Y018027D02*
X006366Y018027D01*
X006267Y018126D02*
X006696Y018126D01*
X006696Y018224D02*
X005460Y018224D01*
X006123Y018323D02*
X006381Y018323D01*
X006283Y018421D02*
X006208Y018421D01*
X009241Y022164D02*
X009847Y022164D01*
X009810Y022066D02*
X009321Y022066D01*
X009362Y021967D02*
X009810Y021967D01*
X009810Y021869D02*
X009383Y021869D01*
X009383Y021770D02*
X009810Y021770D01*
X009810Y021672D02*
X009383Y021672D01*
X009383Y021573D02*
X009810Y021573D01*
X009810Y021475D02*
X009383Y021475D01*
X009383Y021376D02*
X009843Y021376D01*
X009908Y021278D02*
X009383Y021278D01*
X009383Y021179D02*
X010030Y021179D01*
X010030Y020982D02*
X009383Y020982D01*
X009383Y020884D02*
X009916Y020884D01*
X009846Y020785D02*
X009383Y020785D01*
X009383Y020687D02*
X009810Y020687D01*
X009810Y020588D02*
X009383Y020588D01*
X009383Y020490D02*
X009810Y020490D01*
X009568Y020391D02*
X009383Y020391D01*
X009383Y021081D02*
X011017Y021081D01*
X009917Y022263D02*
X009142Y022263D01*
X009044Y022361D02*
X009926Y022361D01*
X009926Y022460D02*
X008945Y022460D01*
X008847Y022558D02*
X009511Y022558D01*
X009338Y022657D02*
X008830Y022657D01*
X008830Y022755D02*
X009240Y022755D01*
X009190Y022854D02*
X008830Y022854D01*
X008830Y022952D02*
X009149Y022952D01*
X009138Y023051D02*
X008830Y023051D01*
X008830Y023149D02*
X009138Y023149D01*
X009156Y023248D02*
X008830Y023248D01*
X008830Y023346D02*
X009197Y023346D01*
X009255Y023445D02*
X008830Y023445D01*
X008811Y023543D02*
X009354Y023543D01*
X009548Y023642D02*
X008830Y023642D01*
X009129Y023740D02*
X009768Y023740D01*
X009768Y023839D02*
X009239Y023839D01*
X009337Y023937D02*
X009768Y023937D01*
X009768Y024036D02*
X009379Y024036D01*
X009420Y024134D02*
X009768Y024134D01*
X009768Y024233D02*
X009443Y024233D01*
X009443Y024331D02*
X009781Y024331D01*
X009822Y024430D02*
X009443Y024430D01*
X009415Y024528D02*
X009901Y024528D01*
X010050Y024627D02*
X009374Y024627D01*
X009324Y024725D02*
X012834Y024725D01*
X012834Y024824D02*
X012168Y024824D01*
X012278Y024922D02*
X012834Y024922D01*
X012834Y025021D02*
X012285Y025021D01*
X012285Y025119D02*
X012834Y025119D01*
X012834Y025218D02*
X012285Y025218D01*
X012285Y025415D02*
X012834Y025415D01*
X012834Y025513D02*
X012285Y025513D01*
X012285Y025612D02*
X012834Y025612D01*
X012834Y025710D02*
X012237Y025710D01*
X012395Y025809D02*
X012840Y025809D01*
X012881Y025907D02*
X012467Y025907D01*
X012505Y026006D02*
X012755Y026006D01*
X012706Y026104D02*
X012505Y026104D01*
X012505Y026203D02*
X012706Y026203D01*
X012706Y026301D02*
X012562Y026301D01*
X012661Y026400D02*
X012985Y026400D01*
X012834Y025316D02*
X011831Y025316D01*
X011831Y025218D02*
X011731Y025218D01*
X011731Y025316D02*
X008793Y025316D01*
X008733Y025316D02*
X005991Y025316D01*
X005991Y025218D02*
X008303Y025218D01*
X008318Y025119D02*
X005991Y025119D01*
X005991Y025021D02*
X008416Y025021D01*
X008429Y024922D02*
X005991Y024922D01*
X005991Y024824D02*
X006030Y024824D01*
X006532Y024824D02*
X008300Y024824D01*
X008202Y024725D02*
X006672Y024725D01*
X006766Y024627D02*
X008152Y024627D01*
X008111Y024528D02*
X006807Y024528D01*
X006848Y024430D02*
X007051Y024430D01*
X006953Y024331D02*
X006849Y024331D01*
X006849Y024233D02*
X006882Y024233D01*
X007716Y024430D02*
X008083Y024430D01*
X008020Y024331D02*
X007814Y024331D01*
X007885Y024233D02*
X007922Y024233D01*
X008303Y025354D02*
X008733Y025354D01*
X008733Y025784D01*
X008572Y025784D01*
X008303Y025515D01*
X008303Y025354D01*
X008303Y025415D02*
X005991Y025415D01*
X005991Y025513D02*
X008303Y025513D01*
X008400Y025612D02*
X005991Y025612D01*
X005991Y025710D02*
X008498Y025710D01*
X008733Y025710D02*
X008793Y025710D01*
X008793Y025612D02*
X008733Y025612D01*
X008733Y025513D02*
X008793Y025513D01*
X008793Y025415D02*
X008733Y025415D01*
X009028Y025710D02*
X011325Y025710D01*
X011277Y025612D02*
X009126Y025612D01*
X009223Y025513D02*
X011277Y025513D01*
X011277Y025415D02*
X009223Y025415D01*
X009223Y025218D02*
X011277Y025218D01*
X011277Y025119D02*
X009208Y025119D01*
X009110Y025021D02*
X011277Y025021D01*
X011284Y024922D02*
X009097Y024922D01*
X009226Y024824D02*
X011394Y024824D01*
X011125Y024627D02*
X012860Y024627D01*
X012901Y024528D02*
X011219Y024528D01*
X011343Y024477D02*
X011343Y024218D01*
X011642Y024218D01*
X011642Y024347D01*
X011632Y024385D01*
X011612Y024419D01*
X011584Y024447D01*
X011550Y024467D01*
X011511Y024477D01*
X011343Y024477D01*
X011343Y024430D02*
X011325Y024430D01*
X011325Y024331D02*
X011343Y024331D01*
X011343Y024233D02*
X011325Y024233D01*
X011642Y024233D02*
X013179Y024233D01*
X013049Y024331D02*
X011642Y024331D01*
X011602Y024430D02*
X012950Y024430D01*
X013188Y023839D02*
X015122Y023839D01*
X015122Y023937D02*
X012113Y023937D01*
X012219Y023839D02*
X012470Y023839D01*
X012313Y023740D02*
X012280Y023740D01*
X011632Y024036D02*
X015122Y024036D01*
X015064Y024134D02*
X011642Y024134D01*
X011731Y024824D02*
X011831Y024824D01*
X011831Y024922D02*
X011731Y024922D01*
X011731Y025021D02*
X011831Y025021D01*
X011831Y025119D02*
X011731Y025119D01*
X011167Y025809D02*
X005991Y025809D01*
X005991Y025907D02*
X011095Y025907D01*
X011057Y026006D02*
X005991Y026006D01*
X005991Y026104D02*
X011057Y026104D01*
X011057Y026203D02*
X005991Y026203D01*
X005991Y026301D02*
X011057Y026301D01*
X011057Y026400D02*
X005991Y026400D01*
X005991Y026498D02*
X011057Y026498D01*
X011057Y026597D02*
X005991Y026597D01*
X005991Y026695D02*
X008440Y026695D01*
X008346Y026794D02*
X005991Y026794D01*
X005991Y026892D02*
X008305Y026892D01*
X008293Y026991D02*
X005991Y026991D01*
X005991Y027089D02*
X008293Y027089D01*
X008293Y027188D02*
X005991Y027188D01*
X005991Y027286D02*
X008293Y027286D01*
X008293Y027385D02*
X005991Y027385D01*
X005991Y027483D02*
X008293Y027483D01*
X008293Y027582D02*
X005991Y027582D01*
X005991Y027680D02*
X008293Y027680D01*
X008293Y027779D02*
X005991Y027779D01*
X005991Y027877D02*
X007282Y027877D01*
X007316Y027877D02*
X007416Y027877D01*
X007416Y027872D02*
X007483Y027882D01*
X007559Y027907D01*
X007629Y027943D01*
X007693Y027989D01*
X007749Y028045D01*
X007796Y028109D01*
X007831Y028180D01*
X007856Y028255D01*
X007868Y028333D01*
X007868Y028675D01*
X007416Y028675D01*
X007416Y028775D01*
X007868Y028775D01*
X007868Y029117D01*
X007856Y029195D01*
X007831Y029270D01*
X007796Y029341D01*
X007749Y029405D01*
X007693Y029461D01*
X007629Y029507D01*
X007559Y029543D01*
X007483Y029568D01*
X007416Y029578D01*
X007416Y028775D01*
X007316Y028775D01*
X007316Y029578D01*
X007248Y029568D01*
X007173Y029543D01*
X007102Y029507D01*
X007038Y029461D01*
X006982Y029405D01*
X006936Y029341D01*
X006900Y029270D01*
X006876Y029195D01*
X006863Y029117D01*
X006863Y028775D01*
X007316Y028775D01*
X007316Y028675D01*
X007416Y028675D01*
X007416Y027872D01*
X007450Y027877D02*
X008293Y027877D01*
X008326Y027976D02*
X007674Y027976D01*
X007770Y028074D02*
X008392Y028074D01*
X008543Y028173D02*
X007828Y028173D01*
X007858Y028271D02*
X008612Y028271D01*
X008612Y028370D02*
X007868Y028370D01*
X007868Y028468D02*
X008612Y028468D01*
X008612Y028567D02*
X007868Y028567D01*
X007868Y028665D02*
X008612Y028665D01*
X008612Y028764D02*
X007416Y028764D01*
X007416Y028862D02*
X007316Y028862D01*
X007316Y028764D02*
X006057Y028764D01*
X006057Y028862D02*
X006863Y028862D01*
X006863Y028961D02*
X006057Y028961D01*
X006057Y029059D02*
X006863Y029059D01*
X006870Y029158D02*
X006057Y029158D01*
X006042Y029256D02*
X006895Y029256D01*
X006946Y029355D02*
X006002Y029355D01*
X005961Y029453D02*
X007031Y029453D01*
X007199Y029552D02*
X005882Y029552D01*
X005783Y029650D02*
X008885Y029650D01*
X008787Y029552D02*
X007533Y029552D01*
X007416Y029552D02*
X007316Y029552D01*
X007316Y029453D02*
X007416Y029453D01*
X007416Y029355D02*
X007316Y029355D01*
X007316Y029256D02*
X007416Y029256D01*
X007416Y029158D02*
X007316Y029158D01*
X007316Y029059D02*
X007416Y029059D01*
X007416Y028961D02*
X007316Y028961D01*
X007316Y028675D02*
X006863Y028675D01*
X006863Y028333D01*
X006876Y028255D01*
X006900Y028180D01*
X006936Y028109D01*
X006982Y028045D01*
X007038Y027989D01*
X007102Y027943D01*
X007173Y027907D01*
X007248Y027882D01*
X007316Y027872D01*
X007316Y028675D01*
X007316Y028665D02*
X007416Y028665D01*
X007416Y028567D02*
X007316Y028567D01*
X007316Y028468D02*
X007416Y028468D01*
X007416Y028370D02*
X007316Y028370D01*
X007316Y028271D02*
X007416Y028271D01*
X007416Y028173D02*
X007316Y028173D01*
X007316Y028074D02*
X007416Y028074D01*
X007416Y027976D02*
X007316Y027976D01*
X007057Y027976D02*
X005991Y027976D01*
X005993Y028074D02*
X006961Y028074D01*
X006904Y028173D02*
X006033Y028173D01*
X006057Y028271D02*
X006873Y028271D01*
X006863Y028370D02*
X006057Y028370D01*
X006057Y028468D02*
X006863Y028468D01*
X006863Y028567D02*
X006057Y028567D01*
X006057Y028665D02*
X006863Y028665D01*
X007836Y029256D02*
X008626Y029256D01*
X008612Y029158D02*
X007862Y029158D01*
X007868Y029059D02*
X008612Y029059D01*
X008612Y028961D02*
X007868Y028961D01*
X007868Y028862D02*
X008612Y028862D01*
X008667Y029355D02*
X007786Y029355D01*
X007701Y029453D02*
X008708Y029453D01*
X009066Y029749D02*
X005602Y029749D01*
X005066Y029749D02*
X003634Y029749D01*
X003815Y029650D02*
X004885Y029650D01*
X004787Y029552D02*
X003913Y029552D01*
X003992Y029453D02*
X004708Y029453D01*
X004667Y029355D02*
X004033Y029355D01*
X004074Y029256D02*
X004626Y029256D01*
X004612Y029158D02*
X004088Y029158D01*
X004088Y029059D02*
X004612Y029059D01*
X004612Y028961D02*
X004088Y028961D01*
X004088Y028862D02*
X004612Y028862D01*
X004612Y028764D02*
X004088Y028764D01*
X004088Y028665D02*
X004612Y028665D01*
X004612Y028567D02*
X004088Y028567D01*
X004088Y028468D02*
X004612Y028468D01*
X004612Y028370D02*
X004088Y028370D01*
X004088Y028271D02*
X004612Y028271D01*
X004635Y028173D02*
X004065Y028173D01*
X004024Y028074D02*
X004676Y028074D01*
X004717Y027976D02*
X003983Y027976D01*
X003896Y027877D02*
X004808Y027877D01*
X004906Y027779D02*
X003896Y027779D01*
X003896Y027680D02*
X005011Y027680D01*
X005011Y027582D02*
X003896Y027582D01*
X003896Y027483D02*
X005011Y027483D01*
X005011Y027385D02*
X003896Y027385D01*
X003896Y027286D02*
X005011Y027286D01*
X005011Y027188D02*
X003896Y027188D01*
X003896Y027089D02*
X005011Y027089D01*
X005011Y026991D02*
X003896Y026991D01*
X003896Y026892D02*
X005011Y026892D01*
X005011Y026794D02*
X003896Y026794D01*
X003896Y026695D02*
X005011Y026695D01*
X005011Y026597D02*
X003896Y026597D01*
X003896Y026498D02*
X005011Y026498D01*
X005011Y026400D02*
X003896Y026400D01*
X003896Y026301D02*
X005011Y026301D01*
X005011Y026203D02*
X003896Y026203D01*
X003896Y026104D02*
X005011Y026104D01*
X005011Y026006D02*
X003896Y026006D01*
X003896Y025907D02*
X005011Y025907D01*
X005011Y025809D02*
X003896Y025809D01*
X003896Y025710D02*
X005011Y025710D01*
X005011Y025612D02*
X003896Y025612D01*
X003896Y025513D02*
X005011Y025513D01*
X005011Y025415D02*
X003896Y025415D01*
X003898Y025316D02*
X005011Y025316D01*
X005011Y025218D02*
X003898Y025218D01*
X003898Y025119D02*
X005011Y025119D01*
X005011Y025021D02*
X003898Y025021D01*
X003898Y024922D02*
X005011Y024922D01*
X005011Y024824D02*
X003898Y024824D01*
X003898Y024725D02*
X005011Y024725D01*
X005011Y024627D02*
X003898Y024627D01*
X003898Y024528D02*
X005011Y024528D01*
X005011Y024430D02*
X003898Y024430D01*
X003898Y024331D02*
X005011Y024331D01*
X004933Y024233D02*
X003898Y024233D01*
X003898Y024134D02*
X004834Y024134D01*
X004792Y024036D02*
X003898Y024036D01*
X004553Y023937D02*
X004776Y023937D01*
X004776Y023839D02*
X004651Y023839D01*
X004694Y023740D02*
X004776Y023740D01*
X004776Y023642D02*
X004711Y023642D01*
X004711Y023543D02*
X004776Y023543D01*
X004776Y023445D02*
X004711Y023445D01*
X004711Y023346D02*
X004776Y023346D01*
X004776Y023248D02*
X004711Y023248D01*
X004791Y023149D02*
X004805Y023149D01*
X002652Y025294D02*
X002222Y025294D01*
X002222Y025134D01*
X002408Y024947D01*
X002297Y024901D01*
X002105Y024710D01*
X002002Y024460D01*
X002002Y024189D01*
X002105Y023939D01*
X002270Y023774D01*
X002239Y023699D01*
X002239Y022843D01*
X002295Y022707D01*
X002347Y022656D01*
X002287Y022596D01*
X002256Y022521D01*
X001892Y022521D01*
X001840Y022499D01*
X001840Y025350D01*
X002836Y026346D01*
X002836Y025784D01*
X002712Y025784D01*
X002712Y025354D01*
X002652Y025354D01*
X002652Y025294D01*
X002652Y025316D02*
X001840Y025316D01*
X001840Y025218D02*
X002222Y025218D01*
X002237Y025119D02*
X001840Y025119D01*
X001840Y025021D02*
X002335Y025021D01*
X002348Y024922D02*
X001840Y024922D01*
X001840Y024824D02*
X002219Y024824D01*
X002121Y024725D02*
X001840Y024725D01*
X001840Y024627D02*
X002071Y024627D01*
X002030Y024528D02*
X001840Y024528D01*
X001840Y024430D02*
X002002Y024430D01*
X002002Y024331D02*
X001840Y024331D01*
X001840Y024233D02*
X002002Y024233D01*
X002025Y024134D02*
X001840Y024134D01*
X001840Y024036D02*
X002065Y024036D01*
X002107Y023937D02*
X001840Y023937D01*
X001840Y023839D02*
X002206Y023839D01*
X002256Y023740D02*
X001840Y023740D01*
X001840Y023642D02*
X002239Y023642D01*
X002239Y023543D02*
X001840Y023543D01*
X001840Y023445D02*
X002239Y023445D01*
X002239Y023346D02*
X001840Y023346D01*
X001840Y023248D02*
X002239Y023248D01*
X002239Y023149D02*
X001840Y023149D01*
X001840Y023051D02*
X002239Y023051D01*
X002239Y022952D02*
X001840Y022952D01*
X001840Y022854D02*
X002239Y022854D01*
X002275Y022755D02*
X001840Y022755D01*
X001840Y022657D02*
X002346Y022657D01*
X002271Y022558D02*
X001840Y022558D01*
X002222Y025354D02*
X002652Y025354D01*
X002652Y025784D01*
X002491Y025784D01*
X002222Y025515D01*
X002222Y025354D01*
X002222Y025415D02*
X001905Y025415D01*
X002003Y025513D02*
X002222Y025513D01*
X002318Y025612D02*
X002102Y025612D01*
X002200Y025710D02*
X002417Y025710D01*
X002299Y025809D02*
X002836Y025809D01*
X002836Y025907D02*
X002397Y025907D01*
X002496Y026006D02*
X002836Y026006D01*
X002836Y026104D02*
X002594Y026104D01*
X002693Y026203D02*
X002836Y026203D01*
X002836Y026301D02*
X002791Y026301D01*
X002712Y025710D02*
X002652Y025710D01*
X002652Y025612D02*
X002712Y025612D01*
X002712Y025513D02*
X002652Y025513D01*
X002652Y025415D02*
X002712Y025415D01*
X001056Y028961D02*
X000550Y028961D01*
X000550Y029059D02*
X000958Y029059D01*
X000916Y029158D02*
X000579Y029158D01*
X000624Y029256D02*
X000900Y029256D01*
X000900Y029355D02*
X000676Y029355D01*
X000729Y029453D02*
X000900Y029453D01*
X000900Y029552D02*
X000788Y029552D01*
X001597Y030340D02*
X016840Y030340D01*
X016845Y030438D02*
X001689Y030438D01*
X001870Y030537D02*
X016896Y030537D01*
X016994Y030635D02*
X002075Y030635D01*
X009602Y029749D02*
X010938Y029749D01*
X010897Y029650D02*
X009783Y029650D01*
X009882Y029552D02*
X010858Y029552D01*
X010858Y029453D02*
X009961Y029453D01*
X010002Y029355D02*
X010858Y029355D01*
X010858Y029256D02*
X010042Y029256D01*
X010057Y029158D02*
X010858Y029158D01*
X010858Y029059D02*
X010057Y029059D01*
X010057Y028961D02*
X010858Y028961D01*
X010858Y028862D02*
X010057Y028862D01*
X010057Y028764D02*
X010858Y028764D01*
X010858Y028665D02*
X010057Y028665D01*
X010057Y028567D02*
X010858Y028567D01*
X010858Y028468D02*
X010057Y028468D01*
X010057Y028370D02*
X010858Y028370D01*
X010858Y028271D02*
X010057Y028271D01*
X010039Y028173D02*
X010033Y028173D01*
X009936Y026695D02*
X009886Y026695D01*
X009901Y022558D02*
X009935Y022558D01*
X013201Y020333D02*
X013289Y020370D01*
X013393Y020474D01*
X013410Y020514D01*
X013479Y020445D01*
X013688Y020359D01*
X013721Y020359D01*
X013794Y020184D01*
X013981Y019997D01*
X013449Y019997D01*
X013449Y020057D02*
X013393Y020193D01*
X013289Y020297D01*
X013201Y020333D01*
X013293Y020293D02*
X013749Y020293D01*
X013790Y020194D02*
X013392Y020194D01*
X013433Y020096D02*
X013882Y020096D01*
X013981Y019997D02*
X014226Y019895D01*
X014491Y019895D01*
X014532Y019912D01*
X014532Y017873D01*
X014026Y017873D01*
X013861Y017804D01*
X013734Y017678D01*
X013666Y017512D01*
X013666Y016991D01*
X013546Y017111D01*
X013449Y017207D01*
X013449Y017557D01*
X013438Y017583D01*
X013449Y017610D01*
X013449Y018057D01*
X013438Y018083D01*
X013449Y018110D01*
X013449Y018557D01*
X013438Y018583D01*
X013449Y018610D01*
X013449Y019057D01*
X013438Y019083D01*
X013449Y019110D01*
X013449Y019557D01*
X013438Y019583D01*
X013449Y019610D01*
X013449Y020057D01*
X013449Y019899D02*
X014218Y019899D01*
X014500Y019899D02*
X014532Y019899D01*
X014532Y019800D02*
X013449Y019800D01*
X013449Y019702D02*
X014532Y019702D01*
X014532Y019603D02*
X013447Y019603D01*
X013449Y019505D02*
X014532Y019505D01*
X014532Y019406D02*
X013449Y019406D01*
X013449Y019308D02*
X014532Y019308D01*
X014532Y019209D02*
X013449Y019209D01*
X013449Y019111D02*
X014532Y019111D01*
X014532Y019012D02*
X013449Y019012D01*
X013449Y018914D02*
X014532Y018914D01*
X014532Y018815D02*
X013449Y018815D01*
X013449Y018717D02*
X014532Y018717D01*
X014532Y018618D02*
X013449Y018618D01*
X013449Y018520D02*
X014532Y018520D01*
X014532Y018421D02*
X013449Y018421D01*
X013449Y018323D02*
X014532Y018323D01*
X014532Y018224D02*
X013449Y018224D01*
X013449Y018126D02*
X014532Y018126D01*
X014532Y018027D02*
X013449Y018027D01*
X013449Y017929D02*
X014532Y017929D01*
X013923Y017830D02*
X013449Y017830D01*
X013449Y017732D02*
X013788Y017732D01*
X013716Y017633D02*
X013449Y017633D01*
X013449Y017535D02*
X013675Y017535D01*
X013666Y017436D02*
X013449Y017436D01*
X013449Y017338D02*
X013666Y017338D01*
X013666Y017239D02*
X013449Y017239D01*
X013516Y017141D02*
X013666Y017141D01*
X013666Y017042D02*
X013615Y017042D01*
X012471Y014777D02*
X010038Y014777D01*
X010038Y014678D02*
X012512Y014678D01*
X012565Y014580D02*
X010038Y014580D01*
X010038Y014481D02*
X012664Y014481D01*
X012762Y014383D02*
X010006Y014383D01*
X009960Y014284D02*
X012861Y014284D01*
X012959Y014186D02*
X009861Y014186D01*
X009763Y014087D02*
X013068Y014087D01*
X013253Y013398D02*
X014846Y013398D01*
X014846Y013496D02*
X009644Y013496D01*
X009644Y013398D02*
X010166Y013398D01*
X010036Y013299D02*
X009644Y013299D01*
X009644Y013201D02*
X009762Y013201D01*
X009764Y013201D02*
X009729Y013182D01*
X009701Y013154D01*
X009682Y013120D01*
X009671Y013081D01*
X009671Y012805D01*
X009940Y012805D01*
X009940Y013212D01*
X009802Y013212D01*
X009764Y013201D01*
X009677Y013102D02*
X009644Y013102D01*
X009644Y013004D02*
X009671Y013004D01*
X009671Y012905D02*
X009644Y012905D01*
X009644Y012807D02*
X009671Y012807D01*
X009671Y012708D02*
X009644Y012708D01*
X009644Y012610D02*
X009671Y012610D01*
X009661Y012511D02*
X009644Y012511D01*
X009940Y012807D02*
X009951Y012807D01*
X009940Y012905D02*
X009951Y012905D01*
X009940Y013004D02*
X009951Y013004D01*
X009940Y013102D02*
X009951Y013102D01*
X009940Y013201D02*
X009978Y013201D01*
X009644Y013595D02*
X014846Y013595D01*
X014846Y013693D02*
X009644Y013693D01*
X009644Y013792D02*
X014846Y013792D01*
X014846Y013890D02*
X009644Y013890D01*
X009664Y013989D02*
X014810Y013989D01*
X014846Y013299D02*
X013383Y013299D01*
X013440Y013201D02*
X014846Y013201D01*
X014846Y013102D02*
X013467Y013102D01*
X013467Y013004D02*
X014102Y013004D01*
X013900Y012905D02*
X013467Y012905D01*
X013467Y012807D02*
X013801Y012807D01*
X013707Y012708D02*
X013467Y012708D01*
X013467Y012610D02*
X013667Y012610D01*
X013626Y012511D02*
X013467Y012511D01*
X013457Y012413D02*
X013594Y012413D01*
X013594Y012314D02*
X013416Y012314D01*
X013325Y012216D02*
X013594Y012216D01*
X013599Y012117D02*
X013148Y012117D01*
X013148Y012019D02*
X013640Y012019D01*
X013681Y011920D02*
X013148Y011920D01*
X013109Y011822D02*
X013738Y011822D01*
X013836Y011723D02*
X013068Y011723D01*
X013030Y011625D02*
X013947Y011625D01*
X014185Y011526D02*
X013030Y011526D01*
X013030Y011428D02*
X014846Y011428D01*
X014846Y011526D02*
X014533Y011526D01*
X014770Y011625D02*
X014846Y011625D01*
X014846Y011329D02*
X013030Y011329D01*
X013030Y011231D02*
X014846Y011231D01*
X014846Y011132D02*
X013030Y011132D01*
X013030Y011034D02*
X014846Y011034D01*
X014846Y010935D02*
X013030Y010935D01*
X013030Y010837D02*
X014846Y010837D01*
X014846Y010738D02*
X013030Y010738D01*
X013030Y010640D02*
X014846Y010640D01*
X014846Y010541D02*
X013030Y010541D01*
X013030Y010443D02*
X013940Y010443D01*
X013837Y010344D02*
X013030Y010344D01*
X013030Y010246D02*
X013791Y010246D01*
X013771Y010147D02*
X013030Y010147D01*
X013030Y010049D02*
X013771Y010049D01*
X013771Y009950D02*
X013030Y009950D01*
X013030Y009852D02*
X013771Y009852D01*
X013791Y009753D02*
X013030Y009753D01*
X013030Y009655D02*
X013771Y009655D01*
X013771Y009556D02*
X013005Y009556D01*
X012964Y009458D02*
X013771Y009458D01*
X013771Y009359D02*
X012869Y009359D01*
X012771Y009261D02*
X013788Y009261D01*
X013771Y009162D02*
X012672Y009162D01*
X012497Y009064D02*
X013771Y009064D01*
X013771Y008965D02*
X012413Y008965D01*
X012413Y008867D02*
X013771Y008867D01*
X013785Y008768D02*
X012400Y008768D01*
X012413Y008670D02*
X013771Y008670D01*
X013771Y008571D02*
X012413Y008571D01*
X012413Y008473D02*
X013771Y008473D01*
X013771Y008374D02*
X012413Y008374D01*
X012403Y008276D02*
X013781Y008276D01*
X013771Y008177D02*
X012413Y008177D01*
X012413Y008079D02*
X013771Y008079D01*
X013771Y007980D02*
X012413Y007980D01*
X012413Y007882D02*
X013771Y007882D01*
X013778Y007783D02*
X012406Y007783D01*
X012413Y007685D02*
X013771Y007685D01*
X013771Y007586D02*
X012413Y007586D01*
X012413Y007488D02*
X013771Y007488D01*
X013771Y007389D02*
X012413Y007389D01*
X012409Y007291D02*
X013775Y007291D01*
X013771Y007192D02*
X012413Y007192D01*
X012413Y007094D02*
X013771Y007094D01*
X013771Y006995D02*
X012413Y006995D01*
X012413Y006897D02*
X013771Y006897D01*
X013772Y006798D02*
X012412Y006798D01*
X012413Y006700D02*
X013771Y006700D01*
X013771Y006601D02*
X012413Y006601D01*
X012413Y006503D02*
X013771Y006503D01*
X013771Y006404D02*
X012413Y006404D01*
X012413Y006306D02*
X013771Y006306D01*
X013810Y006207D02*
X012374Y006207D01*
X012301Y006109D02*
X013883Y006109D01*
X014052Y006010D02*
X012132Y006010D01*
X011924Y005616D02*
X022650Y005616D01*
X022650Y005518D02*
X011983Y005518D01*
X011983Y005557D02*
X011714Y005827D01*
X011553Y005827D01*
X011553Y005397D01*
X011983Y005397D01*
X011983Y005557D01*
X011983Y005419D02*
X022650Y005419D01*
X022650Y005321D02*
X020881Y005321D01*
X020879Y005322D02*
X020530Y005415D01*
X020170Y005415D01*
X019821Y005322D01*
X019509Y005141D01*
X019254Y004886D01*
X019073Y004574D01*
X018980Y004225D01*
X018980Y003865D01*
X019073Y003516D01*
X019254Y003204D01*
X019509Y002949D01*
X019821Y002768D01*
X020170Y002675D01*
X020530Y002675D01*
X020879Y002768D01*
X021191Y002949D01*
X021446Y003204D01*
X021627Y003516D01*
X021720Y003865D01*
X021720Y004225D01*
X021627Y004574D01*
X021446Y004886D01*
X021191Y005141D01*
X020879Y005322D01*
X021051Y005222D02*
X022650Y005222D01*
X022650Y005124D02*
X021209Y005124D01*
X021307Y005025D02*
X022650Y005025D01*
X022650Y004927D02*
X021406Y004927D01*
X021480Y004828D02*
X022650Y004828D01*
X022650Y004730D02*
X021537Y004730D01*
X021594Y004631D02*
X022650Y004631D01*
X022650Y004533D02*
X021638Y004533D01*
X021664Y004434D02*
X022650Y004434D01*
X022650Y004336D02*
X021690Y004336D01*
X021717Y004237D02*
X022650Y004237D01*
X022650Y004139D02*
X021720Y004139D01*
X021720Y004040D02*
X022650Y004040D01*
X022650Y003942D02*
X021720Y003942D01*
X021714Y003843D02*
X022650Y003843D01*
X022650Y003745D02*
X021688Y003745D01*
X021661Y003646D02*
X022650Y003646D01*
X022650Y003548D02*
X021635Y003548D01*
X021588Y003449D02*
X022650Y003449D01*
X022650Y003351D02*
X021531Y003351D01*
X021474Y003252D02*
X022650Y003252D01*
X022650Y003154D02*
X021396Y003154D01*
X021297Y003055D02*
X022650Y003055D01*
X022650Y002957D02*
X021199Y002957D01*
X021034Y002858D02*
X022650Y002858D01*
X022650Y002760D02*
X020846Y002760D01*
X021117Y002267D02*
X002083Y002267D01*
X002215Y002169D02*
X020985Y002169D01*
X020928Y002070D02*
X002272Y002070D01*
X002300Y001972D02*
X004761Y001972D01*
X004523Y001873D02*
X002300Y001873D01*
X002300Y001775D02*
X004372Y001775D01*
X004273Y001676D02*
X002300Y001676D01*
X002300Y001578D02*
X004177Y001578D01*
X004137Y001479D02*
X002300Y001479D01*
X002300Y001381D02*
X004096Y001381D01*
X004055Y001282D02*
X002300Y001282D01*
X002295Y001184D02*
X004042Y001184D01*
X004042Y001085D02*
X002254Y001085D01*
X002170Y000987D02*
X004042Y000987D01*
X004044Y000888D02*
X001591Y000888D01*
X001656Y000790D02*
X004085Y000790D01*
X004125Y000691D02*
X001825Y000691D01*
X002029Y000593D02*
X004166Y000593D01*
X006189Y001972D02*
X020900Y001972D01*
X020900Y001873D02*
X006427Y001873D01*
X006578Y001775D02*
X020900Y001775D01*
X020900Y001676D02*
X006677Y001676D01*
X006773Y001578D02*
X020900Y001578D01*
X020900Y001479D02*
X006813Y001479D01*
X006854Y001381D02*
X020900Y001381D01*
X020900Y001282D02*
X006895Y001282D01*
X006908Y001184D02*
X020905Y001184D01*
X020946Y001085D02*
X006908Y001085D01*
X006908Y000987D02*
X021030Y000987D01*
X021375Y000691D02*
X006825Y000691D01*
X006865Y000790D02*
X021544Y000790D01*
X021609Y000888D02*
X006906Y000888D01*
X006784Y000593D02*
X021171Y000593D01*
X022300Y001676D02*
X022423Y001676D01*
X022481Y001775D02*
X022300Y001775D01*
X022300Y001873D02*
X022533Y001873D01*
X022584Y001972D02*
X022300Y001972D01*
X022272Y002070D02*
X022626Y002070D01*
X022650Y002169D02*
X022215Y002169D01*
X022083Y002267D02*
X022650Y002267D01*
X022650Y002366D02*
X000550Y002366D01*
X000550Y002464D02*
X022650Y002464D01*
X022650Y002563D02*
X000550Y002563D01*
X000550Y002661D02*
X022650Y002661D01*
X022650Y005715D02*
X011826Y005715D01*
X011727Y005813D02*
X022650Y005813D01*
X022650Y005912D02*
X011181Y005912D01*
X011181Y006010D02*
X011202Y006010D01*
X011181Y005813D02*
X011319Y005813D01*
X011220Y005715D02*
X011181Y005715D01*
X011493Y005715D02*
X011553Y005715D01*
X011553Y005813D02*
X011493Y005813D01*
X011493Y005616D02*
X011553Y005616D01*
X011553Y005518D02*
X011493Y005518D01*
X011493Y005419D02*
X011553Y005419D01*
X011832Y005025D02*
X019393Y005025D01*
X019491Y005124D02*
X011931Y005124D01*
X011983Y005222D02*
X019649Y005222D01*
X019819Y005321D02*
X011983Y005321D01*
X011925Y004927D02*
X019294Y004927D01*
X019220Y004828D02*
X012024Y004828D01*
X012109Y004730D02*
X019163Y004730D01*
X019106Y004631D02*
X012150Y004631D01*
X012191Y004533D02*
X019062Y004533D01*
X019036Y004434D02*
X012203Y004434D01*
X012203Y004336D02*
X019010Y004336D01*
X018983Y004237D02*
X012203Y004237D01*
X012165Y004139D02*
X018980Y004139D01*
X018980Y004040D02*
X012124Y004040D01*
X012060Y003942D02*
X018980Y003942D01*
X018986Y003843D02*
X011961Y003843D01*
X011798Y003745D02*
X019012Y003745D01*
X019039Y003646D02*
X000550Y003646D01*
X000550Y003548D02*
X019065Y003548D01*
X019112Y003449D02*
X000550Y003449D01*
X000550Y003351D02*
X019169Y003351D01*
X019226Y003252D02*
X000550Y003252D01*
X000550Y003154D02*
X019304Y003154D01*
X019403Y003055D02*
X000550Y003055D01*
X000550Y002957D02*
X019501Y002957D01*
X019666Y002858D02*
X000550Y002858D01*
X000550Y002760D02*
X019854Y002760D01*
X019840Y006265D02*
X020210Y006265D01*
X020248Y006275D01*
X020282Y006295D01*
X020310Y006323D01*
X020330Y006357D01*
X020340Y006395D01*
X020340Y006765D01*
X019840Y006765D01*
X019840Y006265D01*
X019840Y006306D02*
X019740Y006306D01*
X019740Y006265D02*
X019740Y006765D01*
X019240Y006765D01*
X019240Y006395D01*
X019250Y006357D01*
X019270Y006323D01*
X019298Y006295D01*
X019332Y006275D01*
X019370Y006265D01*
X019740Y006265D01*
X019740Y006404D02*
X019840Y006404D01*
X019840Y006503D02*
X019740Y006503D01*
X019740Y006601D02*
X019840Y006601D01*
X019840Y006700D02*
X019740Y006700D01*
X019740Y006798D02*
X015262Y006798D01*
X015263Y006700D02*
X019240Y006700D01*
X019240Y006601D02*
X015263Y006601D01*
X015263Y006503D02*
X019240Y006503D01*
X019240Y006404D02*
X015263Y006404D01*
X015263Y006306D02*
X019287Y006306D01*
X019240Y006897D02*
X015263Y006897D01*
X015263Y006995D02*
X019240Y006995D01*
X019240Y007094D02*
X015263Y007094D01*
X015263Y007192D02*
X019240Y007192D01*
X019260Y007291D02*
X015259Y007291D01*
X015263Y007389D02*
X019348Y007389D01*
X019250Y007488D02*
X015263Y007488D01*
X015263Y007586D02*
X019151Y007586D01*
X019120Y007685D02*
X015263Y007685D01*
X015256Y007783D02*
X019120Y007783D01*
X019120Y007882D02*
X015263Y007882D01*
X015263Y007980D02*
X019120Y007980D01*
X019120Y008079D02*
X015263Y008079D01*
X015263Y008177D02*
X019124Y008177D01*
X019166Y008276D02*
X015253Y008276D01*
X015263Y008374D02*
X019073Y008374D01*
X019032Y008473D02*
X015263Y008473D01*
X016650Y008571D02*
X018889Y008571D01*
X018790Y008670D02*
X016764Y008670D01*
X016834Y008768D02*
X018692Y008768D01*
X018593Y008867D02*
X016875Y008867D01*
X016889Y008965D02*
X018495Y008965D01*
X018396Y009064D02*
X016889Y009064D01*
X016889Y009162D02*
X018298Y009162D01*
X018199Y009261D02*
X016889Y009261D01*
X016889Y009359D02*
X018101Y009359D01*
X018002Y009458D02*
X016889Y009458D01*
X016889Y009556D02*
X017904Y009556D01*
X017805Y009655D02*
X016889Y009655D01*
X016889Y009753D02*
X017707Y009753D01*
X017608Y009852D02*
X016889Y009852D01*
X016889Y009950D02*
X017510Y009950D01*
X017411Y010049D02*
X016889Y010049D01*
X016889Y010147D02*
X017313Y010147D01*
X017231Y010246D02*
X016889Y010246D01*
X016889Y010344D02*
X017191Y010344D01*
X017169Y010443D02*
X016889Y010443D01*
X016889Y010541D02*
X017169Y010541D01*
X017169Y010640D02*
X016889Y010640D01*
X016889Y010738D02*
X017169Y010738D01*
X017169Y010837D02*
X016889Y010837D01*
X016889Y010935D02*
X017169Y010935D01*
X017169Y011034D02*
X016889Y011034D01*
X016889Y011132D02*
X017169Y011132D01*
X017059Y011231D02*
X016889Y011231D01*
X016889Y011329D02*
X016978Y011329D01*
X016937Y011428D02*
X016889Y011428D01*
X016889Y011526D02*
X016934Y011526D01*
X016934Y011625D02*
X016889Y011625D01*
X016889Y011723D02*
X016934Y011723D01*
X016934Y011822D02*
X016889Y011822D01*
X016889Y011920D02*
X016934Y011920D01*
X016928Y012019D02*
X016934Y012019D01*
X014846Y012905D02*
X014818Y012905D01*
X014846Y013004D02*
X014616Y013004D01*
X012166Y013398D02*
X011753Y013398D01*
X011883Y013299D02*
X012036Y013299D01*
X011978Y013201D02*
X011940Y013201D01*
X011808Y014875D02*
X012111Y014875D01*
X012012Y014974D02*
X011906Y014974D01*
X011950Y015072D02*
X011969Y015072D01*
X015786Y017929D02*
X015973Y017929D01*
X015973Y018027D02*
X015786Y018027D01*
X015786Y018126D02*
X015973Y018126D01*
X015973Y018224D02*
X015786Y018224D01*
X015786Y018323D02*
X015973Y018323D01*
X015973Y018421D02*
X015786Y018421D01*
X015786Y018520D02*
X015973Y018520D01*
X015973Y018618D02*
X015786Y018618D01*
X015786Y018717D02*
X015973Y018717D01*
X015973Y018815D02*
X015786Y018815D01*
X015786Y018914D02*
X015973Y018914D01*
X015973Y019012D02*
X015786Y019012D01*
X015786Y019111D02*
X015973Y019111D01*
X015973Y019209D02*
X015786Y019209D01*
X015786Y019308D02*
X015973Y019308D01*
X015973Y019406D02*
X015786Y019406D01*
X015786Y019505D02*
X015973Y019505D01*
X015976Y019603D02*
X015786Y019603D01*
X015786Y019702D02*
X015973Y019702D01*
X015973Y019800D02*
X015786Y019800D01*
X015786Y019899D02*
X015973Y019899D01*
X015973Y019997D02*
X015786Y019997D01*
X015786Y020096D02*
X015979Y020096D01*
X015973Y020194D02*
X015786Y020194D01*
X015786Y020293D02*
X015973Y020293D01*
X015973Y020391D02*
X015786Y020391D01*
X015786Y020490D02*
X015973Y020490D01*
X015982Y020588D02*
X015786Y020588D01*
X015786Y020687D02*
X015973Y020687D01*
X015973Y020785D02*
X015786Y020785D01*
X015786Y020884D02*
X015973Y020884D01*
X015973Y020982D02*
X015786Y020982D01*
X015786Y021081D02*
X015983Y021081D01*
X016024Y021179D02*
X015786Y021179D01*
X015786Y021278D02*
X016114Y021278D01*
X016127Y021376D02*
X015786Y021376D01*
X015786Y021475D02*
X016029Y021475D01*
X015988Y021573D02*
X015786Y021573D01*
X015786Y021672D02*
X015973Y021672D01*
X015973Y021770D02*
X015786Y021770D01*
X015786Y021869D02*
X015973Y021869D01*
X015973Y021967D02*
X015786Y021967D01*
X015786Y022066D02*
X015977Y022066D01*
X015973Y022164D02*
X015786Y022164D01*
X015786Y022263D02*
X015973Y022263D01*
X015973Y022361D02*
X015784Y022361D01*
X015743Y022460D02*
X015962Y022460D01*
X015864Y022558D02*
X015680Y022558D01*
X015765Y022657D02*
X015581Y022657D01*
X015667Y022755D02*
X015483Y022755D01*
X015568Y022854D02*
X015384Y022854D01*
X015470Y022952D02*
X015286Y022952D01*
X015371Y023051D02*
X015187Y023051D01*
X015273Y023149D02*
X015089Y023149D01*
X015184Y023248D02*
X014990Y023248D01*
X014892Y023346D02*
X015143Y023346D01*
X015122Y023445D02*
X014793Y023445D01*
X014695Y023543D02*
X015122Y023543D01*
X015122Y023642D02*
X014596Y023642D01*
X014462Y023740D02*
X015122Y023740D01*
X015023Y024233D02*
X014029Y024233D01*
X014159Y024331D02*
X015004Y024331D01*
X015004Y024430D02*
X014258Y024430D01*
X014307Y024528D02*
X015014Y024528D01*
X015055Y024627D02*
X014348Y024627D01*
X014374Y024725D02*
X015103Y024725D01*
X015108Y024818D02*
X015108Y025233D01*
X014654Y025233D01*
X014654Y024948D01*
X014664Y024910D01*
X014684Y024876D01*
X014712Y024848D01*
X014746Y024828D01*
X014784Y024818D01*
X015108Y024818D01*
X015108Y024824D02*
X015201Y024824D01*
X015208Y024922D02*
X015108Y024922D01*
X015108Y025021D02*
X015208Y025021D01*
X015208Y025119D02*
X015108Y025119D01*
X015108Y025218D02*
X015208Y025218D01*
X015208Y025233D02*
X015208Y025333D01*
X015662Y025333D01*
X015662Y025618D01*
X015652Y025656D01*
X015632Y025690D01*
X015612Y025711D01*
X015722Y025757D01*
X015826Y025861D01*
X015826Y025862D01*
X016280Y025866D01*
X016364Y025831D01*
X016907Y025831D01*
X017043Y025887D01*
X017147Y025992D01*
X017204Y026128D01*
X017204Y026606D01*
X017214Y026595D01*
X017736Y026595D01*
X017913Y026772D01*
X018089Y026595D01*
X018611Y026595D01*
X018787Y026772D01*
X018964Y026595D01*
X019486Y026595D01*
X019663Y026772D01*
X019839Y026595D01*
X020361Y026595D01*
X020730Y026964D01*
X020730Y027486D01*
X020361Y027855D01*
X019839Y027855D01*
X019663Y027678D01*
X019486Y027855D01*
X018964Y027855D01*
X018787Y027678D01*
X018611Y027855D01*
X018089Y027855D01*
X017913Y027678D01*
X017736Y027855D01*
X017214Y027855D01*
X017165Y027806D01*
X017165Y029166D01*
X017595Y029595D01*
X017736Y029595D01*
X017876Y029735D01*
X017949Y029735D01*
X018089Y029595D01*
X018611Y029595D01*
X018751Y029735D01*
X018824Y029735D01*
X018964Y029595D01*
X019486Y029595D01*
X019626Y029735D01*
X019699Y029735D01*
X019839Y029595D01*
X020361Y029595D01*
X020730Y029964D01*
X020730Y030486D01*
X020566Y030650D01*
X021170Y030650D01*
X021356Y030571D01*
X021617Y030422D01*
X021600Y030350D01*
X021612Y030300D01*
X021196Y030300D01*
X021060Y030244D01*
X020956Y030140D01*
X020900Y030004D01*
X020900Y029196D01*
X020956Y029060D01*
X021060Y028956D01*
X021196Y028900D01*
X022004Y028900D01*
X022140Y028956D01*
X022244Y029060D01*
X022300Y029196D01*
X022300Y029619D01*
X022416Y029619D01*
X022513Y029467D01*
X022650Y029181D01*
X022650Y027840D01*
X022613Y027891D01*
X022563Y027941D01*
X022506Y027982D01*
X022443Y028014D01*
X022376Y028036D01*
X022307Y028047D01*
X022023Y028047D01*
X022023Y027648D01*
X021927Y027648D01*
X021927Y027552D01*
X021233Y027552D01*
X021242Y027495D01*
X021264Y027428D01*
X021296Y027366D01*
X021337Y027309D01*
X021387Y027259D01*
X021438Y027222D01*
X021300Y027165D01*
X021113Y026978D01*
X021011Y026733D01*
X021011Y026467D01*
X021113Y026222D01*
X021235Y026100D01*
X021113Y025978D01*
X021011Y025733D01*
X021011Y025467D01*
X021113Y025222D01*
X021235Y025100D01*
X021113Y024978D01*
X021011Y024733D01*
X021011Y024657D01*
X019644Y023290D01*
X019662Y023332D01*
X019662Y024109D01*
X019605Y024245D01*
X019501Y024349D01*
X019365Y024406D01*
X019001Y024406D01*
X018812Y024595D01*
X018812Y024859D01*
X018455Y025216D01*
X018592Y025354D01*
X018592Y025531D01*
X018122Y025531D01*
X018122Y025591D01*
X018062Y025591D01*
X018062Y026061D01*
X017885Y026061D01*
X017592Y025768D01*
X017592Y025591D01*
X018062Y025591D01*
X018062Y025531D01*
X017592Y025531D01*
X017592Y025354D01*
X017729Y025216D01*
X017372Y024859D01*
X017372Y024262D01*
X017679Y023955D01*
X017532Y023808D01*
X017445Y023599D01*
X017445Y023373D01*
X017523Y023184D01*
X017523Y022987D01*
X017418Y023030D01*
X017213Y023030D01*
X017213Y023057D01*
X017202Y023083D01*
X017213Y023110D01*
X017213Y023557D01*
X017157Y023693D01*
X017053Y023797D01*
X016917Y023853D01*
X016731Y023853D01*
X016731Y023914D01*
X016645Y024123D01*
X016485Y024282D01*
X016276Y024369D01*
X016141Y024369D01*
X016141Y024504D01*
X016054Y024713D01*
X015894Y024873D01*
X015685Y024959D01*
X015662Y024959D01*
X015662Y025233D01*
X015208Y025233D01*
X015208Y025316D02*
X017630Y025316D01*
X017592Y025415D02*
X015662Y025415D01*
X015662Y025513D02*
X017592Y025513D01*
X017592Y025612D02*
X015662Y025612D01*
X015612Y025710D02*
X017592Y025710D01*
X017633Y025809D02*
X015774Y025809D01*
X015662Y025218D02*
X017728Y025218D01*
X017632Y025119D02*
X015662Y025119D01*
X015662Y025021D02*
X017534Y025021D01*
X017435Y024922D02*
X015776Y024922D01*
X015944Y024824D02*
X017372Y024824D01*
X017372Y024725D02*
X016042Y024725D01*
X016090Y024627D02*
X017372Y024627D01*
X017372Y024528D02*
X016131Y024528D01*
X016141Y024430D02*
X017372Y024430D01*
X017372Y024331D02*
X016367Y024331D01*
X016535Y024233D02*
X017402Y024233D01*
X017500Y024134D02*
X016633Y024134D01*
X016681Y024036D02*
X017599Y024036D01*
X017661Y023937D02*
X016721Y023937D01*
X016952Y023839D02*
X017563Y023839D01*
X017504Y023740D02*
X017110Y023740D01*
X017178Y023642D02*
X017463Y023642D01*
X017445Y023543D02*
X017213Y023543D01*
X017213Y023445D02*
X017445Y023445D01*
X017456Y023346D02*
X017213Y023346D01*
X017213Y023248D02*
X017497Y023248D01*
X017523Y023149D02*
X017213Y023149D01*
X017213Y023051D02*
X017523Y023051D01*
X018977Y024430D02*
X020784Y024430D01*
X020882Y024528D02*
X018879Y024528D01*
X018812Y024627D02*
X020981Y024627D01*
X021011Y024725D02*
X018812Y024725D01*
X018812Y024824D02*
X021049Y024824D01*
X021090Y024922D02*
X018749Y024922D01*
X018650Y025021D02*
X021156Y025021D01*
X021216Y025119D02*
X018552Y025119D01*
X018456Y025218D02*
X021118Y025218D01*
X021074Y025316D02*
X018555Y025316D01*
X018592Y025415D02*
X021033Y025415D01*
X021011Y025513D02*
X018592Y025513D01*
X018592Y025591D02*
X018592Y025768D01*
X018299Y026061D01*
X018122Y026061D01*
X018122Y025591D01*
X018592Y025591D01*
X018592Y025612D02*
X021011Y025612D01*
X021011Y025710D02*
X018592Y025710D01*
X018551Y025809D02*
X021043Y025809D01*
X021084Y025907D02*
X018453Y025907D01*
X018354Y026006D02*
X021141Y026006D01*
X021231Y026104D02*
X017194Y026104D01*
X017204Y026203D02*
X021133Y026203D01*
X021080Y026301D02*
X017204Y026301D01*
X017204Y026400D02*
X021039Y026400D01*
X021011Y026498D02*
X017204Y026498D01*
X017204Y026597D02*
X017212Y026597D01*
X017738Y026597D02*
X018087Y026597D01*
X017989Y026695D02*
X017836Y026695D01*
X017830Y026006D02*
X017153Y026006D01*
X017063Y025907D02*
X017731Y025907D01*
X018062Y025907D02*
X018122Y025907D01*
X018122Y025809D02*
X018062Y025809D01*
X018062Y025710D02*
X018122Y025710D01*
X018122Y025612D02*
X018062Y025612D01*
X018062Y026006D02*
X018122Y026006D01*
X018613Y026597D02*
X018962Y026597D01*
X018864Y026695D02*
X018711Y026695D01*
X019488Y026597D02*
X019837Y026597D01*
X019739Y026695D02*
X019586Y026695D01*
X020363Y026597D02*
X021011Y026597D01*
X021011Y026695D02*
X020461Y026695D01*
X020560Y026794D02*
X021037Y026794D01*
X021077Y026892D02*
X020658Y026892D01*
X020730Y026991D02*
X021126Y026991D01*
X021224Y027089D02*
X020730Y027089D01*
X020730Y027188D02*
X021354Y027188D01*
X021360Y027286D02*
X020730Y027286D01*
X020730Y027385D02*
X021286Y027385D01*
X021246Y027483D02*
X020730Y027483D01*
X020634Y027582D02*
X021927Y027582D01*
X021927Y027648D02*
X021233Y027648D01*
X021242Y027705D01*
X021264Y027772D01*
X021296Y027834D01*
X021337Y027891D01*
X021387Y027941D01*
X021444Y027982D01*
X021507Y028014D01*
X021574Y028036D01*
X021643Y028047D01*
X021927Y028047D01*
X021927Y027648D01*
X021927Y027680D02*
X022023Y027680D01*
X022023Y027779D02*
X021927Y027779D01*
X021927Y027877D02*
X022023Y027877D01*
X022023Y027976D02*
X021927Y027976D01*
X021435Y027976D02*
X017165Y027976D01*
X017165Y028074D02*
X022650Y028074D01*
X022650Y027976D02*
X022515Y027976D01*
X022623Y027877D02*
X022650Y027877D01*
X022650Y028173D02*
X017165Y028173D01*
X017165Y028271D02*
X022650Y028271D01*
X022650Y028370D02*
X017165Y028370D01*
X017165Y028468D02*
X022650Y028468D01*
X022650Y028567D02*
X017165Y028567D01*
X017165Y028665D02*
X022650Y028665D01*
X022650Y028764D02*
X017165Y028764D01*
X017165Y028862D02*
X022650Y028862D01*
X022650Y028961D02*
X022144Y028961D01*
X022242Y029059D02*
X022650Y029059D01*
X022650Y029158D02*
X022284Y029158D01*
X022300Y029256D02*
X022614Y029256D01*
X022567Y029355D02*
X022300Y029355D01*
X022300Y029453D02*
X022520Y029453D01*
X022459Y029552D02*
X022300Y029552D01*
X021603Y030340D02*
X020730Y030340D01*
X020730Y030438D02*
X021588Y030438D01*
X021417Y030537D02*
X020679Y030537D01*
X020581Y030635D02*
X021205Y030635D01*
X021058Y030241D02*
X020730Y030241D01*
X020730Y030143D02*
X020959Y030143D01*
X020917Y030044D02*
X020730Y030044D01*
X020712Y029946D02*
X020900Y029946D01*
X020900Y029847D02*
X020613Y029847D01*
X020515Y029749D02*
X020900Y029749D01*
X020900Y029650D02*
X020416Y029650D01*
X020900Y029552D02*
X017551Y029552D01*
X017453Y029453D02*
X020900Y029453D01*
X020900Y029355D02*
X017354Y029355D01*
X017256Y029256D02*
X020900Y029256D01*
X020916Y029158D02*
X017165Y029158D01*
X017165Y029059D02*
X020958Y029059D01*
X021056Y028961D02*
X017165Y028961D01*
X017791Y029650D02*
X018034Y029650D01*
X018666Y029650D02*
X018909Y029650D01*
X019541Y029650D02*
X019784Y029650D01*
X019763Y027779D02*
X019562Y027779D01*
X019661Y027680D02*
X019664Y027680D01*
X020437Y027779D02*
X021268Y027779D01*
X021238Y027680D02*
X020536Y027680D01*
X021327Y027877D02*
X017165Y027877D01*
X017812Y027779D02*
X018013Y027779D01*
X017914Y027680D02*
X017911Y027680D01*
X018687Y027779D02*
X018888Y027779D01*
X018789Y027680D02*
X018786Y027680D01*
X016643Y030143D02*
X016002Y030143D01*
X016101Y030044D02*
X016545Y030044D01*
X016446Y029946D02*
X016199Y029946D01*
X016272Y029847D02*
X016348Y029847D01*
X016742Y030241D02*
X015776Y030241D01*
X015174Y030241D02*
X013926Y030241D01*
X014152Y030143D02*
X014948Y030143D01*
X014849Y030044D02*
X014251Y030044D01*
X014349Y029946D02*
X014751Y029946D01*
X014678Y029847D02*
X014422Y029847D01*
X014462Y029749D02*
X014638Y029749D01*
X014597Y029650D02*
X014503Y029650D01*
X014542Y029552D02*
X014558Y029552D01*
X014558Y029453D02*
X014542Y029453D01*
X014542Y029355D02*
X014558Y029355D01*
X014558Y029256D02*
X014542Y029256D01*
X014542Y029158D02*
X014558Y029158D01*
X014558Y029059D02*
X014542Y029059D01*
X014542Y028961D02*
X014558Y028961D01*
X014558Y028862D02*
X014542Y028862D01*
X014542Y028764D02*
X014558Y028764D01*
X014558Y028665D02*
X014542Y028665D01*
X014542Y028567D02*
X014558Y028567D01*
X014558Y028468D02*
X014542Y028468D01*
X014542Y028370D02*
X014558Y028370D01*
X014558Y028271D02*
X014542Y028271D01*
X014542Y028173D02*
X014558Y028173D01*
X014566Y028074D02*
X014534Y028074D01*
X014493Y027976D02*
X014607Y027976D01*
X014648Y027877D02*
X014452Y027877D01*
X014411Y027779D02*
X014689Y027779D01*
X014775Y027680D02*
X014325Y027680D01*
X014227Y027582D02*
X014873Y027582D01*
X014995Y027483D02*
X014174Y027483D01*
X014174Y027385D02*
X015233Y027385D01*
X015717Y027385D02*
X016105Y027385D01*
X016105Y027483D02*
X015955Y027483D01*
X016077Y027582D02*
X016105Y027582D01*
X016105Y027286D02*
X014174Y027286D01*
X014174Y027188D02*
X016105Y027188D01*
X016105Y027089D02*
X014174Y027089D01*
X014538Y026991D02*
X014571Y026991D01*
X014704Y025710D02*
X014374Y025710D01*
X014374Y025612D02*
X014654Y025612D01*
X014654Y025513D02*
X014374Y025513D01*
X014374Y025415D02*
X014654Y025415D01*
X014654Y025218D02*
X014374Y025218D01*
X014374Y025316D02*
X015108Y025316D01*
X014654Y025119D02*
X014374Y025119D01*
X014374Y025021D02*
X014654Y025021D01*
X014661Y024922D02*
X014374Y024922D01*
X014374Y024824D02*
X014764Y024824D01*
X015745Y026991D02*
X016105Y026991D01*
X019520Y024331D02*
X020685Y024331D01*
X020587Y024233D02*
X019611Y024233D01*
X019651Y024134D02*
X020488Y024134D01*
X020390Y024036D02*
X019662Y024036D01*
X019662Y023937D02*
X020291Y023937D01*
X020193Y023839D02*
X019662Y023839D01*
X019662Y023740D02*
X020094Y023740D01*
X019996Y023642D02*
X019662Y023642D01*
X019662Y023543D02*
X019897Y023543D01*
X019799Y023445D02*
X019662Y023445D01*
X019662Y023346D02*
X019700Y023346D01*
X020945Y019110D02*
X021225Y019110D01*
X021300Y019035D01*
X021438Y018978D01*
X021387Y018941D01*
X021337Y018891D01*
X021296Y018834D01*
X021264Y018772D01*
X021242Y018705D01*
X021233Y018648D01*
X021927Y018648D01*
X021927Y018552D01*
X021233Y018552D01*
X021242Y018495D01*
X021264Y018428D01*
X021296Y018366D01*
X021337Y018309D01*
X021387Y018259D01*
X021438Y018222D01*
X021300Y018165D01*
X021225Y018090D01*
X019471Y018090D01*
X019291Y018015D01*
X019153Y017878D01*
X018599Y017323D01*
X017213Y017323D01*
X017213Y017343D01*
X018128Y017343D01*
X018308Y017418D01*
X019788Y018898D01*
X019815Y018833D01*
X019975Y018673D01*
X020184Y018587D01*
X020410Y018587D01*
X020619Y018673D01*
X020778Y018833D01*
X020857Y019022D01*
X020945Y019110D01*
X020853Y019012D02*
X021355Y019012D01*
X021360Y018914D02*
X020812Y018914D01*
X020760Y018815D02*
X021286Y018815D01*
X021246Y018717D02*
X020662Y018717D01*
X020485Y018618D02*
X021927Y018618D01*
X021435Y018224D02*
X019114Y018224D01*
X019212Y018323D02*
X021327Y018323D01*
X021268Y018421D02*
X019311Y018421D01*
X019409Y018520D02*
X021238Y018520D01*
X021261Y018126D02*
X019015Y018126D01*
X018917Y018027D02*
X019319Y018027D01*
X019204Y017929D02*
X018818Y017929D01*
X018720Y017830D02*
X019106Y017830D01*
X019007Y017732D02*
X018621Y017732D01*
X018523Y017633D02*
X018909Y017633D01*
X018810Y017535D02*
X018424Y017535D01*
X018326Y017436D02*
X018712Y017436D01*
X018613Y017338D02*
X017213Y017338D01*
X019508Y018618D02*
X020109Y018618D01*
X019932Y018717D02*
X019606Y018717D01*
X019705Y018815D02*
X019833Y018815D01*
X020196Y015762D02*
X022650Y015762D01*
X022650Y015860D02*
X021920Y015860D01*
X022466Y015959D02*
X022650Y015959D01*
X022650Y016035D02*
X022650Y016035D01*
X022650Y015663D02*
X020196Y015663D01*
X020196Y015565D02*
X022650Y015565D01*
X022650Y015466D02*
X020166Y015466D01*
X020125Y015368D02*
X022650Y015368D01*
X022650Y015269D02*
X020553Y015269D01*
X020898Y015171D02*
X022650Y015171D01*
X022650Y015072D02*
X021069Y015072D01*
X021219Y014974D02*
X022650Y014974D01*
X022650Y014875D02*
X021317Y014875D01*
X021416Y014777D02*
X022650Y014777D01*
X022650Y014678D02*
X021486Y014678D01*
X021542Y014580D02*
X022650Y014580D01*
X022650Y014481D02*
X021599Y014481D01*
X021640Y014383D02*
X022650Y014383D01*
X022650Y014284D02*
X021667Y014284D01*
X021693Y014186D02*
X022650Y014186D01*
X022650Y014087D02*
X021720Y014087D01*
X021720Y013989D02*
X022650Y013989D01*
X022650Y013890D02*
X021720Y013890D01*
X021720Y013792D02*
X022650Y013792D01*
X022650Y013693D02*
X021712Y013693D01*
X021685Y013595D02*
X022650Y013595D01*
X022650Y013496D02*
X021659Y013496D01*
X021632Y013398D02*
X022650Y013398D01*
X022650Y013299D02*
X021582Y013299D01*
X021525Y013201D02*
X022650Y013201D01*
X022650Y013102D02*
X021468Y013102D01*
X021386Y013004D02*
X022650Y013004D01*
X022650Y012905D02*
X021288Y012905D01*
X021187Y012807D02*
X022650Y012807D01*
X022650Y012708D02*
X021017Y012708D01*
X020809Y012610D02*
X022650Y012610D01*
X022650Y012511D02*
X019389Y012511D01*
X019408Y012610D02*
X019891Y012610D01*
X019683Y012708D02*
X019408Y012708D01*
X019408Y012807D02*
X019513Y012807D01*
X019412Y012905D02*
X019408Y012905D01*
X019345Y012413D02*
X022650Y012413D01*
X022650Y012314D02*
X019365Y012314D01*
X019406Y012216D02*
X022650Y012216D01*
X022650Y012117D02*
X019408Y012117D01*
X019408Y012019D02*
X022650Y012019D01*
X022650Y011920D02*
X019408Y011920D01*
X019408Y011822D02*
X022650Y011822D01*
X022650Y011723D02*
X020149Y011723D01*
X020248Y011625D02*
X022650Y011625D01*
X022650Y011526D02*
X020346Y011526D01*
X020445Y011428D02*
X022650Y011428D01*
X022650Y011329D02*
X020460Y011329D01*
X020460Y011231D02*
X020598Y011231D01*
X020500Y011132D02*
X020460Y011132D01*
X021222Y011231D02*
X022650Y011231D01*
X022650Y011132D02*
X021320Y011132D01*
X021419Y011034D02*
X022650Y011034D01*
X022650Y010935D02*
X021517Y010935D01*
X021580Y010837D02*
X022650Y010837D01*
X022650Y010738D02*
X021580Y010738D01*
X021580Y010640D02*
X022650Y010640D01*
X022650Y010541D02*
X021580Y010541D01*
X021580Y010443D02*
X022650Y010443D01*
X022650Y010344D02*
X021580Y010344D01*
X021508Y010246D02*
X022650Y010246D01*
X022650Y010147D02*
X021410Y010147D01*
X021324Y010049D02*
X022650Y010049D01*
X022650Y009950D02*
X021422Y009950D01*
X021521Y009852D02*
X022650Y009852D01*
X022650Y009753D02*
X021580Y009753D01*
X021580Y009655D02*
X022650Y009655D01*
X022650Y009556D02*
X021580Y009556D01*
X021580Y009458D02*
X022650Y009458D01*
X022650Y009359D02*
X021580Y009359D01*
X021580Y009261D02*
X022650Y009261D01*
X022650Y009162D02*
X021505Y009162D01*
X021406Y009064D02*
X022650Y009064D01*
X022650Y008965D02*
X021327Y008965D01*
X021426Y008867D02*
X022650Y008867D01*
X022650Y008768D02*
X021524Y008768D01*
X021580Y008670D02*
X022650Y008670D01*
X022650Y008571D02*
X021580Y008571D01*
X021580Y008473D02*
X022650Y008473D01*
X022650Y008374D02*
X021580Y008374D01*
X021580Y008276D02*
X022650Y008276D01*
X022650Y008177D02*
X021580Y008177D01*
X021501Y008079D02*
X022650Y008079D01*
X022650Y007980D02*
X021403Y007980D01*
X021331Y007882D02*
X022650Y007882D01*
X022650Y007783D02*
X021430Y007783D01*
X021528Y007685D02*
X022650Y007685D01*
X022650Y007586D02*
X021580Y007586D01*
X021580Y007488D02*
X022650Y007488D01*
X022650Y007389D02*
X021580Y007389D01*
X021580Y007291D02*
X022650Y007291D01*
X022650Y007192D02*
X021580Y007192D01*
X021580Y007094D02*
X022650Y007094D01*
X022650Y006995D02*
X021498Y006995D01*
X021399Y006897D02*
X022650Y006897D01*
X022650Y006798D02*
X021301Y006798D01*
X021202Y006700D02*
X022650Y006700D01*
X022650Y006601D02*
X020340Y006601D01*
X020340Y006503D02*
X022650Y006503D01*
X022650Y006404D02*
X020340Y006404D01*
X020293Y006306D02*
X022650Y006306D01*
X022650Y006207D02*
X015225Y006207D01*
X015151Y006109D02*
X022650Y006109D01*
X022650Y006010D02*
X014982Y006010D01*
X011248Y003745D02*
X000550Y003745D01*
X000550Y003843D02*
X011085Y003843D01*
X010987Y003942D02*
X000550Y003942D01*
X000550Y004040D02*
X010923Y004040D01*
X010882Y004139D02*
X000550Y004139D01*
X000550Y004237D02*
X010843Y004237D01*
X010841Y004336D02*
X000550Y004336D01*
X000550Y004434D02*
X010742Y004434D01*
X010644Y004533D02*
X000550Y004533D01*
X000550Y004631D02*
X010545Y004631D01*
X010447Y004730D02*
X000550Y004730D01*
X000550Y004828D02*
X010348Y004828D01*
X010265Y004927D02*
X000550Y004927D01*
X000550Y005025D02*
X010224Y005025D01*
X010201Y005124D02*
X000550Y005124D01*
X000550Y005222D02*
X010201Y005222D01*
X010201Y005321D02*
X000550Y005321D01*
X000550Y005419D02*
X010201Y005419D01*
X010201Y005518D02*
X000550Y005518D01*
X000550Y005616D02*
X010201Y005616D01*
X010201Y005715D02*
X000550Y005715D01*
X000550Y005813D02*
X010169Y005813D01*
X010071Y005912D02*
X000550Y005912D01*
X000550Y006010D02*
X009972Y006010D01*
X009874Y006109D02*
X000550Y006109D01*
X000550Y006207D02*
X009775Y006207D01*
X009677Y006306D02*
X000550Y006306D01*
X000550Y006404D02*
X009578Y006404D01*
X009480Y006503D02*
X000550Y006503D01*
X000550Y006601D02*
X009381Y006601D01*
X009283Y006700D02*
X000550Y006700D01*
X000550Y006798D02*
X009184Y006798D01*
X009086Y006897D02*
X000550Y006897D01*
X000550Y006995D02*
X008987Y006995D01*
X008889Y007094D02*
X000550Y007094D01*
X000550Y007192D02*
X008790Y007192D01*
X008692Y007291D02*
X000550Y007291D01*
X000550Y007389D02*
X008593Y007389D01*
X008495Y007488D02*
X000550Y007488D01*
X000550Y007586D02*
X008396Y007586D01*
X008298Y007685D02*
X000550Y007685D01*
X000550Y007783D02*
X008199Y007783D01*
X008101Y007882D02*
X000550Y007882D01*
X000550Y007980D02*
X008002Y007980D01*
X007922Y008079D02*
X000550Y008079D01*
X000550Y008177D02*
X007881Y008177D01*
X007860Y008276D02*
X000550Y008276D01*
X000550Y008374D02*
X007860Y008374D01*
X004533Y012117D02*
X000550Y012117D01*
X000550Y012019D02*
X004310Y012019D01*
X004533Y012216D02*
X000550Y012216D01*
X000550Y012314D02*
X004533Y012314D01*
X001117Y002267D02*
X000550Y002267D01*
X000550Y002169D02*
X000985Y002169D01*
X000928Y002070D02*
X000574Y002070D01*
X000616Y001972D02*
X000900Y001972D01*
X000900Y001873D02*
X000667Y001873D01*
X000719Y001775D02*
X000900Y001775D01*
X000900Y001676D02*
X000777Y001676D01*
X013310Y020391D02*
X013610Y020391D01*
X013435Y020490D02*
X013400Y020490D01*
X020049Y015269D02*
X020147Y015269D01*
X019431Y011723D02*
X019408Y011723D01*
X020340Y006897D02*
X020421Y006897D01*
X020519Y006798D02*
X019840Y006798D01*
X020340Y006700D02*
X020618Y006700D01*
D46*
X002915Y014109D02*
X002930Y014975D01*
D47*
X009163Y027408D02*
X009334Y027408D01*
X009334Y028725D01*
D48*
X010659Y027408D02*
X011775Y027408D01*
X011775Y028825D01*
D49*
X021600Y029600D03*
X001600Y029600D03*
X001600Y001600D03*
X021600Y001600D03*
D50*
X016635Y026399D03*
M02*
