G75*
%MOIN*%
%OFA0B0*%
%FSLAX24Y24*%
%IPPOS*%
%LPD*%
%AMOC8*
5,1,8,0,0,1.08239X$1,22.5*
%
%ADD10R,0.9000X0.8500*%
%ADD11OC8,0.0680*%
%ADD12R,0.0880X0.0880*%
%ADD13C,0.2080*%
%ADD14C,0.0785*%
%ADD15OC8,0.0700*%
%ADD16C,0.0700*%
%ADD17C,0.1175*%
%ADD18C,0.0674*%
%ADD19OC8,0.0600*%
%ADD20R,0.1005X0.0395*%
%ADD21R,0.1182X0.0671*%
%ADD22C,0.0710*%
%ADD23C,0.0513*%
%ADD24C,0.1143*%
%ADD25R,0.3230X0.3230*%
%ADD26OC8,0.0780*%
D10*
X005100Y005225D03*
D11*
X019790Y007895D03*
X020910Y007355D03*
X020910Y008435D03*
X020910Y009515D03*
X020910Y010595D03*
X019790Y011135D03*
D12*
X019790Y010055D03*
X019790Y008975D03*
X019790Y006815D03*
D13*
X020350Y004045D03*
X020350Y013905D03*
D14*
X009334Y028373D02*
X009334Y029078D01*
X007366Y029078D02*
X007366Y028373D01*
X005334Y028373D02*
X005334Y029078D01*
X003366Y029078D02*
X003366Y028373D01*
D15*
X002682Y025324D03*
X008763Y025324D03*
X011523Y005367D03*
D16*
X011523Y004367D03*
X008763Y024324D03*
X002682Y024324D03*
D17*
X011775Y028278D02*
X011775Y029373D01*
X013625Y029373D02*
X013625Y028278D01*
X015475Y028278D02*
X015475Y029373D01*
D18*
X021678Y027600D02*
X022272Y027600D01*
X022272Y026600D02*
X021678Y026600D01*
X021678Y025600D02*
X022272Y025600D01*
X022272Y024600D02*
X021678Y024600D01*
X021678Y023600D02*
X022272Y023600D01*
X022272Y022600D02*
X021678Y022600D01*
X021678Y021600D02*
X022272Y021600D01*
X022272Y020600D02*
X021678Y020600D01*
X021678Y019600D02*
X022272Y019600D01*
X022272Y018600D02*
X021678Y018600D01*
X021678Y017600D02*
X022272Y017600D01*
X022272Y016600D02*
X021678Y016600D01*
D19*
X020100Y027225D03*
X019225Y027225D03*
X018350Y027225D03*
X017475Y027225D03*
X017475Y030225D03*
X018350Y030225D03*
X019225Y030225D03*
X020100Y030225D03*
D20*
X015294Y020818D03*
X015294Y020325D03*
X015294Y019814D03*
X015294Y019144D03*
X015294Y018188D03*
X015294Y017203D03*
X015294Y016223D03*
X015294Y015235D03*
X015294Y014251D03*
X015294Y013266D03*
X015294Y012243D03*
D21*
X014753Y011424D03*
X014753Y021388D03*
X006288Y021388D03*
X006288Y010562D03*
D22*
X014359Y012282D03*
D23*
X014359Y020562D03*
D24*
X006006Y001071D02*
X004944Y001071D01*
X004944Y009379D02*
X006006Y009379D01*
D25*
X005318Y005166D03*
D26*
X018092Y024561D03*
X018092Y025561D03*
M02*
