G75*
%MOIN*%
%OFA0B0*%
%FSLAX24Y24*%
%IPPOS*%
%LPD*%
%AMOC8*
5,1,8,0,0,1.08239X$1,22.5*
%
%ADD10OC8,0.0600*%
%ADD11R,0.0800X0.0800*%
%ADD12C,0.2000*%
%ADD13C,0.0705*%
%ADD14OC8,0.0620*%
%ADD15C,0.0620*%
%ADD16C,0.1095*%
%ADD17C,0.0594*%
%ADD18OC8,0.0520*%
%ADD19R,0.0925X0.0315*%
%ADD20R,0.1102X0.0591*%
%ADD21C,0.1063*%
%ADD22R,0.3150X0.3150*%
%ADD23OC8,0.0700*%
%ADD24C,0.0320*%
%ADD25C,0.0400*%
%ADD26C,0.0160*%
%ADD27C,0.0396*%
%ADD28C,0.0100*%
%ADD29C,0.0240*%
%ADD30R,0.0660X0.0660*%
%ADD31R,0.0396X0.0396*%
D10*
X019790Y007895D03*
X020910Y007355D03*
X020910Y008435D03*
X020910Y009515D03*
X020910Y010595D03*
X019790Y011135D03*
D11*
X019790Y010055D03*
X019790Y008975D03*
X019790Y006815D03*
D12*
X020350Y004045D03*
X020350Y013905D03*
D13*
X009334Y028373D02*
X009334Y029078D01*
X007366Y029078D02*
X007366Y028373D01*
X005334Y028373D02*
X005334Y029078D01*
X003366Y029078D02*
X003366Y028373D01*
D14*
X002682Y025324D03*
X008763Y025324D03*
X011523Y005367D03*
D15*
X011523Y004367D03*
X008763Y024324D03*
X002682Y024324D03*
D16*
X011775Y028278D02*
X011775Y029373D01*
X013625Y029373D02*
X013625Y028278D01*
X015475Y028278D02*
X015475Y029373D01*
D17*
X021678Y027600D02*
X022272Y027600D01*
X022272Y026600D02*
X021678Y026600D01*
X021678Y025600D02*
X022272Y025600D01*
X022272Y024600D02*
X021678Y024600D01*
X021678Y023600D02*
X022272Y023600D01*
X022272Y022600D02*
X021678Y022600D01*
X021678Y021600D02*
X022272Y021600D01*
X022272Y020600D02*
X021678Y020600D01*
X021678Y019600D02*
X022272Y019600D01*
X022272Y018600D02*
X021678Y018600D01*
X021678Y017600D02*
X022272Y017600D01*
X022272Y016600D02*
X021678Y016600D01*
D18*
X020100Y027225D03*
X019225Y027225D03*
X018350Y027225D03*
X017475Y027225D03*
X017475Y030225D03*
X018350Y030225D03*
X019225Y030225D03*
X020100Y030225D03*
D19*
X015294Y020818D03*
X015294Y020325D03*
X015294Y019814D03*
X015294Y019144D03*
X015294Y018188D03*
X015294Y017203D03*
X015294Y016223D03*
X015294Y015235D03*
X015294Y014251D03*
X015294Y013266D03*
X015294Y012243D03*
D20*
X014753Y011424D03*
X014753Y021388D03*
X006288Y021388D03*
X006288Y010562D03*
D21*
X006006Y009379D02*
X004944Y009379D01*
X004944Y001071D02*
X006006Y001071D01*
D22*
X005318Y005166D03*
D23*
X018092Y024561D03*
X018092Y025561D03*
D24*
X016635Y024864D02*
X018013Y023486D01*
X016635Y024864D02*
X016635Y026399D01*
X015887Y027226D02*
X014706Y027226D01*
X013625Y028307D01*
X013625Y028825D01*
X012698Y027187D02*
X012698Y026163D01*
X010494Y023958D01*
X009431Y023958D01*
X009076Y023604D01*
X008368Y023604D01*
X008013Y023958D01*
X007383Y023958D01*
X006281Y024313D02*
X005545Y024324D01*
X002682Y024324D01*
X001950Y025139D02*
X001939Y025324D01*
X002682Y025324D01*
X003965Y025324D01*
X007366Y028725D01*
X010494Y023958D02*
X010494Y022423D01*
X006557Y021388D02*
X006557Y018210D01*
X006439Y018092D01*
X006439Y016439D01*
X006242Y016242D01*
X006350Y021326D02*
X006288Y021388D01*
X006557Y021388D01*
X006288Y021388D02*
X005647Y022029D01*
X001990Y022029D01*
X001950Y022029D01*
X001950Y025139D01*
X015887Y027226D02*
X016990Y028328D01*
X020139Y028328D01*
X020927Y027541D01*
X020927Y027265D01*
X021592Y026600D01*
X021975Y026600D01*
X021975Y018600D02*
X021600Y018600D01*
X020850Y017850D01*
X020850Y016225D01*
X021850Y015225D01*
X021850Y007350D01*
X021100Y006600D01*
X019975Y006600D01*
D25*
X019790Y006815D02*
X015117Y006815D01*
X013669Y005367D01*
X011523Y005367D01*
X005518Y005367D01*
X005318Y005166D01*
X005690Y004794D01*
X004706Y010533D02*
X001990Y013250D01*
X001990Y022029D01*
X007366Y028725D02*
X008991Y030350D01*
X015975Y030350D01*
X017225Y029100D01*
X020475Y029100D01*
X021975Y027600D01*
X011399Y010533D02*
X004706Y010533D01*
X011399Y010533D02*
X015117Y006815D01*
D26*
X012108Y010927D02*
X011872Y011163D01*
X006399Y011163D01*
X006202Y011360D01*
X006872Y011557D02*
X005966Y012462D01*
X006872Y011557D02*
X011754Y011557D01*
X011754Y012029D01*
X011163Y012029D02*
X011163Y012974D01*
X009391Y012974D01*
X009116Y013250D01*
X009116Y014391D01*
X010021Y015297D01*
X011557Y015297D01*
X013092Y016832D01*
X013092Y018643D01*
X013958Y019509D01*
X014588Y019509D01*
X014892Y019814D01*
X015294Y019814D01*
X015294Y020325D02*
X014853Y020325D01*
X014391Y019864D01*
X013801Y019864D01*
X013801Y020927D01*
X013368Y021242D02*
X013368Y020376D01*
X012423Y019431D01*
X012423Y017187D01*
X011242Y016006D01*
X009706Y016006D01*
X008407Y014706D01*
X008407Y012620D01*
X008998Y012029D01*
X009982Y012029D01*
X010572Y012029D02*
X010572Y011950D01*
X010572Y012029D02*
X010572Y012620D01*
X009155Y012620D01*
X008761Y013013D01*
X008761Y014509D01*
X009903Y015651D01*
X011399Y015651D01*
X012738Y016990D01*
X012738Y018880D01*
X013722Y019864D01*
X013801Y019864D01*
X014144Y019144D02*
X015294Y019144D01*
X016163Y019144D01*
X016163Y023801D01*
X015730Y022108D02*
X014588Y022108D01*
X014352Y022344D01*
X013525Y022344D01*
X013525Y021399D01*
X013368Y021242D01*
X014144Y019144D02*
X013446Y018446D01*
X013446Y016635D01*
X013328Y016517D01*
X013328Y013643D01*
X012580Y012895D01*
X012580Y012029D01*
X012462Y013289D02*
X009588Y013289D01*
X009588Y014313D01*
X010179Y014903D01*
X013013Y014903D01*
X013013Y013840D01*
X012462Y013289D01*
X012587Y013414D02*
X009588Y013414D01*
X009588Y013573D02*
X012746Y013573D01*
X012904Y013731D02*
X009588Y013731D01*
X009588Y013890D02*
X013013Y013890D01*
X013013Y014048D02*
X009588Y014048D01*
X009588Y014207D02*
X013013Y014207D01*
X013013Y014365D02*
X009641Y014365D01*
X009799Y014524D02*
X013013Y014524D01*
X013013Y014682D02*
X009958Y014682D01*
X010116Y014841D02*
X013013Y014841D01*
X014116Y015651D02*
X014116Y013266D01*
X015294Y013266D01*
X014549Y013722D02*
X016320Y013722D01*
X016320Y012817D01*
X013801Y012817D01*
X013801Y011424D01*
X014753Y011424D01*
X015280Y012243D02*
X015294Y012243D01*
X014549Y013722D02*
X014549Y015235D01*
X015294Y015235D01*
X016124Y015235D01*
X016124Y018188D01*
X015927Y018188D01*
X015294Y018188D01*
X015271Y018210D01*
X013998Y018210D01*
X014588Y016990D02*
X015005Y017203D01*
X015294Y017203D01*
X015316Y017225D01*
X015927Y018188D02*
X015927Y018643D01*
X015294Y020325D02*
X015269Y020350D01*
X015294Y020818D02*
X015730Y020818D01*
X015730Y022108D01*
X014352Y015887D02*
X014116Y015651D01*
X011675Y014076D02*
X010218Y014076D01*
X021783Y024600D02*
X021975Y024600D01*
D27*
X018013Y023486D03*
X017305Y022462D03*
X017305Y021793D03*
X017226Y020336D03*
X015927Y018643D03*
X014588Y016990D03*
X014352Y015887D03*
X014549Y013722D03*
X016399Y012226D03*
X015336Y010021D03*
X012580Y012029D03*
X011754Y012029D03*
X011163Y012029D03*
X010572Y012029D03*
X009982Y012029D03*
X010218Y014076D03*
X011675Y014076D03*
X012108Y010927D03*
X009470Y016596D03*
X009706Y019833D03*
X010494Y022423D03*
X009706Y023092D03*
X007383Y023958D03*
X006281Y024313D03*
X005887Y019509D03*
X006439Y018092D03*
X006242Y016242D03*
X006320Y015218D03*
X006725Y012540D03*
X005966Y012462D03*
X006202Y011360D03*
X004076Y016911D03*
X003286Y018874D03*
X011911Y018131D03*
X013998Y018210D03*
X013801Y020927D03*
X013525Y022344D03*
X015572Y024391D03*
X016163Y023801D03*
X012698Y027187D03*
X020297Y019155D03*
X019628Y015651D03*
X018407Y014706D03*
X017817Y014706D03*
D28*
X016736Y014240D02*
X016736Y012693D01*
X016721Y012708D01*
X016512Y012794D01*
X016286Y012794D01*
X016098Y012716D01*
X015961Y012716D01*
X015868Y012755D01*
X015966Y012795D01*
X016070Y012899D01*
X016126Y013035D01*
X016126Y013497D01*
X016070Y013633D01*
X015966Y013737D01*
X015915Y013758D01*
X015921Y013761D01*
X016024Y013761D01*
X016043Y013754D01*
X016120Y013761D01*
X016198Y013761D01*
X016217Y013768D01*
X016237Y013770D01*
X016306Y013805D01*
X016379Y013835D01*
X016393Y013849D01*
X016411Y013858D01*
X016461Y013918D01*
X016516Y013973D01*
X016524Y013992D01*
X016736Y014240D01*
X016736Y014186D02*
X016689Y014186D01*
X016736Y014087D02*
X016605Y014087D01*
X016523Y013989D02*
X016736Y013989D01*
X016736Y013890D02*
X016437Y013890D01*
X016279Y013792D02*
X016736Y013792D01*
X016736Y013693D02*
X016011Y013693D01*
X016086Y013595D02*
X016736Y013595D01*
X016736Y013496D02*
X016126Y013496D01*
X016126Y013398D02*
X016736Y013398D01*
X016736Y013299D02*
X016126Y013299D01*
X016126Y013201D02*
X016736Y013201D01*
X016736Y013102D02*
X016126Y013102D01*
X016113Y013004D02*
X016736Y013004D01*
X016736Y012905D02*
X016073Y012905D01*
X015977Y012807D02*
X016736Y012807D01*
X016736Y012708D02*
X016720Y012708D01*
X016736Y011759D02*
X016736Y010511D01*
X015638Y010511D01*
X015449Y010589D01*
X015223Y010589D01*
X015014Y010503D01*
X014855Y010343D01*
X014816Y010250D01*
X013858Y011208D01*
X013858Y011701D01*
X013926Y011634D01*
X014051Y011581D01*
X014051Y011474D01*
X014703Y011474D01*
X014703Y011374D01*
X014803Y011374D01*
X014803Y011474D01*
X015454Y011474D01*
X015454Y011715D01*
X015830Y011715D01*
X015880Y011736D01*
X016098Y011736D01*
X016286Y011658D01*
X016512Y011658D01*
X016721Y011744D01*
X016736Y011759D01*
X016736Y011723D02*
X016670Y011723D01*
X016736Y011625D02*
X015454Y011625D01*
X015454Y011526D02*
X016736Y011526D01*
X016736Y011428D02*
X014803Y011428D01*
X014803Y011374D02*
X015454Y011374D01*
X015454Y011109D01*
X015444Y011071D01*
X015424Y011036D01*
X015396Y011009D01*
X015362Y010989D01*
X015323Y010979D01*
X014803Y010979D01*
X014803Y011374D01*
X014803Y011329D02*
X014703Y011329D01*
X014703Y011374D02*
X014703Y010979D01*
X014182Y010979D01*
X014143Y010989D01*
X014109Y011009D01*
X014081Y011036D01*
X014062Y011071D01*
X014051Y011109D01*
X014051Y011374D01*
X014703Y011374D01*
X014703Y011428D02*
X013858Y011428D01*
X013858Y011526D02*
X014051Y011526D01*
X013947Y011625D02*
X013858Y011625D01*
X013858Y011329D02*
X014051Y011329D01*
X014051Y011231D02*
X013858Y011231D01*
X013934Y011132D02*
X014051Y011132D01*
X014033Y011034D02*
X014084Y011034D01*
X014131Y010935D02*
X016736Y010935D01*
X016736Y010837D02*
X014230Y010837D01*
X014328Y010738D02*
X016736Y010738D01*
X016736Y010640D02*
X014427Y010640D01*
X014525Y010541D02*
X015107Y010541D01*
X014954Y010443D02*
X014624Y010443D01*
X014722Y010344D02*
X014856Y010344D01*
X014803Y011034D02*
X014703Y011034D01*
X014703Y011132D02*
X014803Y011132D01*
X014803Y011231D02*
X014703Y011231D01*
X015421Y011034D02*
X016736Y011034D01*
X016736Y011132D02*
X015454Y011132D01*
X015454Y011231D02*
X016736Y011231D01*
X016736Y011329D02*
X015454Y011329D01*
X015849Y011723D02*
X016129Y011723D01*
X015566Y010541D02*
X016736Y010541D01*
X017827Y009064D02*
X019020Y009064D01*
X019020Y009162D02*
X017926Y009162D01*
X018024Y009261D02*
X019020Y009261D01*
X019020Y009359D02*
X018123Y009359D01*
X018221Y009458D02*
X019024Y009458D01*
X019020Y009449D02*
X019020Y008501D01*
X019076Y008365D01*
X019180Y008261D01*
X019200Y008253D01*
X019120Y008173D01*
X019120Y007617D01*
X019372Y007365D01*
X019370Y007365D01*
X019332Y007355D01*
X019298Y007335D01*
X019270Y007307D01*
X019250Y007273D01*
X019240Y007235D01*
X019240Y006865D01*
X019740Y006865D01*
X019740Y006765D01*
X019240Y006765D01*
X019240Y006395D01*
X019250Y006357D01*
X019270Y006323D01*
X019298Y006295D01*
X019332Y006275D01*
X019370Y006265D01*
X019740Y006265D01*
X019740Y006765D01*
X019840Y006765D01*
X019840Y006865D01*
X020340Y006865D01*
X020340Y006977D01*
X020632Y006685D01*
X021188Y006685D01*
X021580Y007077D01*
X021580Y007633D01*
X021318Y007895D01*
X021580Y008157D01*
X021580Y008713D01*
X021318Y008975D01*
X021580Y009237D01*
X021580Y009793D01*
X021318Y010055D01*
X021580Y010317D01*
X021580Y010873D01*
X021188Y011265D01*
X020632Y011265D01*
X020460Y011093D01*
X020460Y011413D01*
X020068Y011805D01*
X019512Y011805D01*
X019120Y011413D01*
X019120Y010857D01*
X019200Y010777D01*
X019180Y010769D01*
X019076Y010665D01*
X019020Y010529D01*
X019020Y009581D01*
X019048Y009515D01*
X019020Y009449D01*
X019031Y009556D02*
X018320Y009556D01*
X018370Y009606D02*
X018508Y009744D01*
X018582Y009924D01*
X018582Y012810D01*
X019101Y013329D01*
X019254Y013064D01*
X019509Y012809D01*
X019821Y012628D01*
X020170Y012535D01*
X020530Y012535D01*
X020879Y012628D01*
X021191Y012809D01*
X021446Y013064D01*
X021627Y013376D01*
X021720Y013725D01*
X021720Y014085D01*
X021627Y014434D01*
X021446Y014746D01*
X021191Y015001D01*
X020879Y015182D01*
X020530Y015275D01*
X020170Y015275D01*
X020013Y015233D01*
X020109Y015329D01*
X020196Y015538D01*
X020196Y015764D01*
X020118Y015953D01*
X020118Y017299D01*
X021244Y018425D01*
X021260Y018441D01*
X021264Y018428D01*
X021296Y018366D01*
X021337Y018309D01*
X021387Y018259D01*
X021438Y018222D01*
X021300Y018165D01*
X021113Y017978D01*
X021011Y017733D01*
X021011Y017467D01*
X021113Y017222D01*
X021235Y017100D01*
X021113Y016978D01*
X021011Y016733D01*
X021011Y016467D01*
X021113Y016222D01*
X021300Y016035D01*
X021546Y015933D01*
X022404Y015933D01*
X022650Y016035D01*
X022650Y002081D01*
X022578Y001907D01*
X022428Y001637D01*
X022300Y001456D01*
X022300Y002004D01*
X022244Y002140D01*
X022140Y002244D01*
X022004Y002300D01*
X021196Y002300D01*
X021060Y002244D01*
X020956Y002140D01*
X020900Y002004D01*
X020900Y001196D01*
X020956Y001060D01*
X021060Y000956D01*
X021196Y000900D01*
X021744Y000900D01*
X021563Y000772D01*
X021293Y000622D01*
X021119Y000550D01*
X009850Y000550D01*
X009850Y010350D01*
X007209Y010350D01*
X007209Y010713D01*
X011582Y010713D01*
X011626Y010605D01*
X011786Y010445D01*
X011995Y010359D01*
X012221Y010359D01*
X012430Y010445D01*
X012461Y010476D01*
X013204Y010476D01*
X014566Y009114D01*
X014704Y008976D01*
X014884Y008901D01*
X017560Y008901D01*
X017740Y008976D01*
X018370Y009606D01*
X018418Y009655D02*
X019020Y009655D01*
X019020Y009753D02*
X018511Y009753D01*
X018552Y009852D02*
X019020Y009852D01*
X019020Y009950D02*
X018582Y009950D01*
X018582Y010049D02*
X019020Y010049D01*
X019020Y010147D02*
X018582Y010147D01*
X018582Y010246D02*
X019020Y010246D01*
X019020Y010344D02*
X018582Y010344D01*
X018582Y010443D02*
X019020Y010443D01*
X019025Y010541D02*
X018582Y010541D01*
X018582Y010640D02*
X019066Y010640D01*
X019150Y010738D02*
X018582Y010738D01*
X018582Y010837D02*
X019141Y010837D01*
X019120Y010935D02*
X018582Y010935D01*
X018582Y011034D02*
X019120Y011034D01*
X019120Y011132D02*
X018582Y011132D01*
X018582Y011231D02*
X019120Y011231D01*
X019120Y011329D02*
X018582Y011329D01*
X018582Y011428D02*
X019135Y011428D01*
X019234Y011526D02*
X018582Y011526D01*
X018582Y011625D02*
X019332Y011625D01*
X019431Y011723D02*
X018582Y011723D01*
X018582Y011822D02*
X022650Y011822D01*
X022650Y011920D02*
X018582Y011920D01*
X018582Y012019D02*
X022650Y012019D01*
X022650Y012117D02*
X018582Y012117D01*
X018582Y012216D02*
X022650Y012216D01*
X022650Y012314D02*
X018582Y012314D01*
X018582Y012413D02*
X022650Y012413D01*
X022650Y012511D02*
X018582Y012511D01*
X018582Y012610D02*
X019891Y012610D01*
X019683Y012708D02*
X018582Y012708D01*
X018582Y012807D02*
X019513Y012807D01*
X019412Y012905D02*
X018677Y012905D01*
X018775Y013004D02*
X019314Y013004D01*
X019232Y013102D02*
X018874Y013102D01*
X018972Y013201D02*
X019175Y013201D01*
X019118Y013299D02*
X019071Y013299D01*
X020149Y011723D02*
X022650Y011723D01*
X022650Y011625D02*
X020248Y011625D01*
X020346Y011526D02*
X022650Y011526D01*
X022650Y011428D02*
X020445Y011428D01*
X020460Y011329D02*
X022650Y011329D01*
X022650Y011231D02*
X021222Y011231D01*
X021320Y011132D02*
X022650Y011132D01*
X022650Y011034D02*
X021419Y011034D01*
X021517Y010935D02*
X022650Y010935D01*
X022650Y010837D02*
X021580Y010837D01*
X021580Y010738D02*
X022650Y010738D01*
X022650Y010640D02*
X021580Y010640D01*
X021580Y010541D02*
X022650Y010541D01*
X022650Y010443D02*
X021580Y010443D01*
X021580Y010344D02*
X022650Y010344D01*
X022650Y010246D02*
X021508Y010246D01*
X021410Y010147D02*
X022650Y010147D01*
X022650Y010049D02*
X021324Y010049D01*
X021422Y009950D02*
X022650Y009950D01*
X022650Y009852D02*
X021521Y009852D01*
X021580Y009753D02*
X022650Y009753D01*
X022650Y009655D02*
X021580Y009655D01*
X021580Y009556D02*
X022650Y009556D01*
X022650Y009458D02*
X021580Y009458D01*
X021580Y009359D02*
X022650Y009359D01*
X022650Y009261D02*
X021580Y009261D01*
X021505Y009162D02*
X022650Y009162D01*
X022650Y009064D02*
X021406Y009064D01*
X021327Y008965D02*
X022650Y008965D01*
X022650Y008867D02*
X021426Y008867D01*
X021524Y008768D02*
X022650Y008768D01*
X022650Y008670D02*
X021580Y008670D01*
X021580Y008571D02*
X022650Y008571D01*
X022650Y008473D02*
X021580Y008473D01*
X021580Y008374D02*
X022650Y008374D01*
X022650Y008276D02*
X021580Y008276D01*
X021580Y008177D02*
X022650Y008177D01*
X022650Y008079D02*
X021501Y008079D01*
X021403Y007980D02*
X022650Y007980D01*
X022650Y007882D02*
X021331Y007882D01*
X021430Y007783D02*
X022650Y007783D01*
X022650Y007685D02*
X021528Y007685D01*
X021580Y007586D02*
X022650Y007586D01*
X022650Y007488D02*
X021580Y007488D01*
X021580Y007389D02*
X022650Y007389D01*
X022650Y007291D02*
X021580Y007291D01*
X021580Y007192D02*
X022650Y007192D01*
X022650Y007094D02*
X021580Y007094D01*
X021498Y006995D02*
X022650Y006995D01*
X022650Y006897D02*
X021399Y006897D01*
X021301Y006798D02*
X022650Y006798D01*
X022650Y006700D02*
X021202Y006700D01*
X020618Y006700D02*
X020340Y006700D01*
X020340Y006765D02*
X019840Y006765D01*
X019840Y006265D01*
X020210Y006265D01*
X020248Y006275D01*
X020282Y006295D01*
X020310Y006323D01*
X020330Y006357D01*
X020340Y006395D01*
X020340Y006765D01*
X020340Y006897D02*
X020421Y006897D01*
X020519Y006798D02*
X019840Y006798D01*
X019840Y006700D02*
X019740Y006700D01*
X019740Y006798D02*
X009850Y006798D01*
X009850Y006700D02*
X019240Y006700D01*
X019240Y006601D02*
X009850Y006601D01*
X009850Y006503D02*
X019240Y006503D01*
X019240Y006404D02*
X009850Y006404D01*
X009850Y006306D02*
X019287Y006306D01*
X019740Y006306D02*
X019840Y006306D01*
X019840Y006404D02*
X019740Y006404D01*
X019740Y006503D02*
X019840Y006503D01*
X019840Y006601D02*
X019740Y006601D01*
X020340Y006601D02*
X022650Y006601D01*
X022650Y006503D02*
X020340Y006503D01*
X020340Y006404D02*
X022650Y006404D01*
X022650Y006306D02*
X020293Y006306D01*
X020170Y005415D02*
X019821Y005322D01*
X019509Y005141D01*
X019254Y004886D01*
X019073Y004574D01*
X018980Y004225D01*
X018980Y003865D01*
X019073Y003516D01*
X019254Y003204D01*
X019509Y002949D01*
X019821Y002768D01*
X020170Y002675D01*
X020530Y002675D01*
X020879Y002768D01*
X021191Y002949D01*
X021446Y003204D01*
X021627Y003516D01*
X021720Y003865D01*
X021720Y004225D01*
X021627Y004574D01*
X021446Y004886D01*
X021191Y005141D01*
X020879Y005322D01*
X020530Y005415D01*
X020170Y005415D01*
X019819Y005321D02*
X011983Y005321D01*
X011983Y005337D02*
X011553Y005337D01*
X011553Y005397D01*
X011493Y005397D01*
X011493Y005827D01*
X011333Y005827D01*
X011063Y005557D01*
X011063Y005397D01*
X011493Y005397D01*
X011493Y005337D01*
X011063Y005337D01*
X011063Y005176D01*
X011250Y004990D01*
X011138Y004943D01*
X010947Y004752D01*
X010843Y004502D01*
X010843Y004231D01*
X010947Y003982D01*
X011138Y003790D01*
X011388Y003687D01*
X011658Y003687D01*
X011908Y003790D01*
X012100Y003982D01*
X012203Y004231D01*
X012203Y004502D01*
X012100Y004752D01*
X011908Y004943D01*
X011797Y004990D01*
X011983Y005176D01*
X011983Y005337D01*
X011983Y005397D02*
X011983Y005557D01*
X011714Y005827D01*
X011553Y005827D01*
X011553Y005397D01*
X011983Y005397D01*
X011983Y005419D02*
X022650Y005419D01*
X022650Y005321D02*
X020881Y005321D01*
X021051Y005222D02*
X022650Y005222D01*
X022650Y005124D02*
X021209Y005124D01*
X021307Y005025D02*
X022650Y005025D01*
X022650Y004927D02*
X021406Y004927D01*
X021480Y004828D02*
X022650Y004828D01*
X022650Y004730D02*
X021537Y004730D01*
X021594Y004631D02*
X022650Y004631D01*
X022650Y004533D02*
X021638Y004533D01*
X021664Y004434D02*
X022650Y004434D01*
X022650Y004336D02*
X021690Y004336D01*
X021717Y004237D02*
X022650Y004237D01*
X022650Y004139D02*
X021720Y004139D01*
X021720Y004040D02*
X022650Y004040D01*
X022650Y003942D02*
X021720Y003942D01*
X021714Y003843D02*
X022650Y003843D01*
X022650Y003745D02*
X021688Y003745D01*
X021661Y003646D02*
X022650Y003646D01*
X022650Y003548D02*
X021635Y003548D01*
X021588Y003449D02*
X022650Y003449D01*
X022650Y003351D02*
X021531Y003351D01*
X021474Y003252D02*
X022650Y003252D01*
X022650Y003154D02*
X021396Y003154D01*
X021297Y003055D02*
X022650Y003055D01*
X022650Y002957D02*
X021199Y002957D01*
X021034Y002858D02*
X022650Y002858D01*
X022650Y002760D02*
X020846Y002760D01*
X021117Y002267D02*
X009850Y002267D01*
X009850Y002169D02*
X020985Y002169D01*
X020928Y002070D02*
X009850Y002070D01*
X009850Y001972D02*
X020900Y001972D01*
X020900Y001873D02*
X009850Y001873D01*
X009850Y001775D02*
X020900Y001775D01*
X020900Y001676D02*
X009850Y001676D01*
X009850Y001578D02*
X020900Y001578D01*
X020900Y001479D02*
X009850Y001479D01*
X009850Y001381D02*
X020900Y001381D01*
X020900Y001282D02*
X009850Y001282D01*
X009850Y001184D02*
X020905Y001184D01*
X020946Y001085D02*
X009850Y001085D01*
X009850Y000987D02*
X021030Y000987D01*
X021221Y000593D02*
X009850Y000593D01*
X009850Y000691D02*
X021417Y000691D01*
X021588Y000790D02*
X009850Y000790D01*
X009850Y000888D02*
X021727Y000888D01*
X022300Y001479D02*
X022316Y001479D01*
X022300Y001578D02*
X022386Y001578D01*
X022450Y001676D02*
X022300Y001676D01*
X022300Y001775D02*
X022505Y001775D01*
X022559Y001873D02*
X022300Y001873D01*
X022300Y001972D02*
X022604Y001972D01*
X022645Y002070D02*
X022272Y002070D01*
X022215Y002169D02*
X022650Y002169D01*
X022650Y002267D02*
X022083Y002267D01*
X022650Y002366D02*
X009850Y002366D01*
X009850Y002464D02*
X022650Y002464D01*
X022650Y002563D02*
X009850Y002563D01*
X009850Y002661D02*
X022650Y002661D01*
X022650Y005518D02*
X011983Y005518D01*
X011924Y005616D02*
X022650Y005616D01*
X022650Y005715D02*
X011826Y005715D01*
X011727Y005813D02*
X022650Y005813D01*
X022650Y005912D02*
X009850Y005912D01*
X009850Y006010D02*
X022650Y006010D01*
X022650Y006109D02*
X009850Y006109D01*
X009850Y006207D02*
X022650Y006207D01*
X019854Y002760D02*
X009850Y002760D01*
X009850Y002858D02*
X019666Y002858D01*
X019501Y002957D02*
X009850Y002957D01*
X009850Y003055D02*
X019403Y003055D01*
X019304Y003154D02*
X009850Y003154D01*
X009850Y003252D02*
X019226Y003252D01*
X019169Y003351D02*
X009850Y003351D01*
X009850Y003449D02*
X019112Y003449D01*
X019065Y003548D02*
X009850Y003548D01*
X009850Y003646D02*
X019039Y003646D01*
X019012Y003745D02*
X011798Y003745D01*
X011961Y003843D02*
X018986Y003843D01*
X018980Y003942D02*
X012060Y003942D01*
X012124Y004040D02*
X018980Y004040D01*
X018980Y004139D02*
X012165Y004139D01*
X012203Y004237D02*
X018983Y004237D01*
X019010Y004336D02*
X012203Y004336D01*
X012203Y004434D02*
X019036Y004434D01*
X019062Y004533D02*
X012191Y004533D01*
X012150Y004631D02*
X019106Y004631D01*
X019163Y004730D02*
X012109Y004730D01*
X012024Y004828D02*
X019220Y004828D01*
X019294Y004927D02*
X011925Y004927D01*
X011832Y005025D02*
X019393Y005025D01*
X019491Y005124D02*
X011931Y005124D01*
X011983Y005222D02*
X019649Y005222D01*
X019240Y006897D02*
X009850Y006897D01*
X009850Y006995D02*
X019240Y006995D01*
X019240Y007094D02*
X009850Y007094D01*
X009850Y007192D02*
X019240Y007192D01*
X019260Y007291D02*
X009850Y007291D01*
X009850Y007389D02*
X019348Y007389D01*
X019250Y007488D02*
X009850Y007488D01*
X009850Y007586D02*
X019151Y007586D01*
X019120Y007685D02*
X009850Y007685D01*
X009850Y007783D02*
X019120Y007783D01*
X019120Y007882D02*
X009850Y007882D01*
X009850Y007980D02*
X019120Y007980D01*
X019120Y008079D02*
X009850Y008079D01*
X009850Y008177D02*
X019124Y008177D01*
X019166Y008276D02*
X009850Y008276D01*
X009850Y008374D02*
X019073Y008374D01*
X019032Y008473D02*
X009850Y008473D01*
X009850Y008571D02*
X019020Y008571D01*
X019020Y008670D02*
X009850Y008670D01*
X009850Y008768D02*
X019020Y008768D01*
X019020Y008867D02*
X009850Y008867D01*
X009850Y008965D02*
X014731Y008965D01*
X014617Y009064D02*
X009850Y009064D01*
X009850Y009162D02*
X014518Y009162D01*
X014420Y009261D02*
X009850Y009261D01*
X009850Y009359D02*
X014321Y009359D01*
X014223Y009458D02*
X009850Y009458D01*
X009850Y009556D02*
X014124Y009556D01*
X014026Y009655D02*
X009850Y009655D01*
X009850Y009753D02*
X013927Y009753D01*
X013829Y009852D02*
X009850Y009852D01*
X009850Y009950D02*
X013730Y009950D01*
X013632Y010049D02*
X009850Y010049D01*
X009850Y010147D02*
X013533Y010147D01*
X013435Y010246D02*
X009850Y010246D01*
X009850Y010344D02*
X013336Y010344D01*
X013238Y010443D02*
X012423Y010443D01*
X011792Y010443D02*
X007209Y010443D01*
X007209Y010541D02*
X011690Y010541D01*
X011612Y010640D02*
X007209Y010640D01*
X007058Y012007D02*
X007018Y012047D01*
X007047Y012058D01*
X007207Y012218D01*
X007293Y012427D01*
X007293Y012653D01*
X007207Y012862D01*
X007047Y013022D01*
X006858Y013100D01*
X003776Y016182D01*
X003776Y016421D01*
X003963Y016343D01*
X004189Y016343D01*
X004398Y016429D01*
X004558Y016589D01*
X004644Y016798D01*
X004644Y017024D01*
X004566Y017213D01*
X004566Y017495D01*
X006021Y018950D01*
X006209Y019028D01*
X006369Y019188D01*
X006456Y019396D01*
X006456Y019622D01*
X006369Y019831D01*
X006209Y019991D01*
X006000Y020078D01*
X005774Y020078D01*
X005566Y019991D01*
X005406Y019831D01*
X005328Y019643D01*
X003776Y018091D01*
X003776Y018572D01*
X003854Y018761D01*
X003854Y018987D01*
X003768Y019195D01*
X003608Y019355D01*
X003399Y019442D01*
X003173Y019442D01*
X002964Y019355D01*
X002804Y019195D01*
X002718Y018987D01*
X002718Y018761D01*
X002796Y018572D01*
X002796Y015881D01*
X002871Y015701D01*
X003008Y015564D01*
X005636Y012936D01*
X005485Y012784D01*
X005398Y012575D01*
X005398Y012349D01*
X005485Y012140D01*
X005644Y011981D01*
X005853Y011894D01*
X005898Y011894D01*
X005930Y011862D01*
X005881Y011841D01*
X005721Y011682D01*
X005634Y011473D01*
X005634Y011247D01*
X005646Y011220D01*
X005527Y011171D01*
X005423Y011066D01*
X005367Y010930D01*
X005367Y010350D01*
X000550Y010350D01*
X000550Y029119D01*
X000622Y029293D01*
X000772Y029563D01*
X000900Y029744D01*
X000900Y029196D01*
X000956Y029060D01*
X001060Y028956D01*
X001196Y028900D01*
X002004Y028900D01*
X002140Y028956D01*
X002244Y029060D01*
X002300Y029196D01*
X002300Y030004D01*
X002244Y030140D01*
X002140Y030244D01*
X002004Y030300D01*
X001456Y030300D01*
X001637Y030428D01*
X001907Y030578D01*
X002081Y030650D01*
X017009Y030650D01*
X016845Y030486D01*
X016845Y029964D01*
X017214Y029595D01*
X017736Y029595D01*
X017913Y029772D01*
X018089Y029595D01*
X018611Y029595D01*
X018787Y029772D01*
X018964Y029595D01*
X019486Y029595D01*
X019663Y029772D01*
X019839Y029595D01*
X020361Y029595D01*
X020730Y029964D01*
X020730Y030486D01*
X020566Y030650D01*
X021119Y030650D01*
X021293Y030578D01*
X021563Y030428D01*
X021744Y030300D01*
X021196Y030300D01*
X021060Y030244D01*
X020956Y030140D01*
X020900Y030004D01*
X020900Y029196D01*
X020956Y029060D01*
X021060Y028956D01*
X021196Y028900D01*
X022004Y028900D01*
X022140Y028956D01*
X022244Y029060D01*
X022300Y029196D01*
X022300Y029744D01*
X022428Y029563D01*
X022578Y029293D01*
X022650Y029119D01*
X022650Y027840D01*
X022613Y027891D01*
X022563Y027941D01*
X022506Y027982D01*
X022443Y028014D01*
X022376Y028036D01*
X022307Y028047D01*
X022023Y028047D01*
X022023Y027648D01*
X021927Y027648D01*
X021927Y028047D01*
X021643Y028047D01*
X021574Y028036D01*
X021507Y028014D01*
X021444Y027982D01*
X021387Y027941D01*
X021337Y027891D01*
X021333Y027885D01*
X020589Y028629D01*
X020440Y028778D01*
X020245Y028858D01*
X016884Y028858D01*
X016690Y028778D01*
X016392Y028481D01*
X016392Y029555D01*
X016253Y029892D01*
X015995Y030150D01*
X015658Y030290D01*
X015292Y030290D01*
X014955Y030150D01*
X014697Y029892D01*
X014558Y029555D01*
X014558Y028124D01*
X014542Y028139D01*
X014542Y029555D01*
X014403Y029892D01*
X014145Y030150D01*
X013808Y030290D01*
X013442Y030290D01*
X013105Y030150D01*
X012847Y029892D01*
X012708Y029555D01*
X012708Y028095D01*
X012847Y027758D01*
X012878Y027727D01*
X012811Y027755D01*
X012585Y027755D01*
X012525Y027730D01*
X012553Y027758D01*
X012692Y028095D01*
X012692Y029555D01*
X012553Y029892D01*
X012295Y030150D01*
X011958Y030290D01*
X011592Y030290D01*
X011255Y030150D01*
X010997Y029892D01*
X010858Y029555D01*
X010858Y028095D01*
X010997Y027758D01*
X011255Y027500D01*
X011592Y027360D01*
X011958Y027360D01*
X012196Y027459D01*
X012130Y027300D01*
X012130Y027074D01*
X012168Y026982D01*
X012168Y026383D01*
X010274Y024488D01*
X009431Y024488D01*
X009339Y024710D01*
X009148Y024901D01*
X009036Y024947D01*
X009223Y025134D01*
X009223Y025294D01*
X008793Y025294D01*
X008793Y025354D01*
X009223Y025354D01*
X009223Y025515D01*
X008954Y025784D01*
X008793Y025784D01*
X008793Y025354D01*
X008733Y025354D01*
X008733Y025294D01*
X008303Y025294D01*
X008303Y025134D01*
X008490Y024947D01*
X008378Y024901D01*
X008187Y024710D01*
X008095Y024488D01*
X007588Y024488D01*
X007496Y024526D01*
X007270Y024526D01*
X007062Y024440D01*
X006902Y024280D01*
X006815Y024071D01*
X006815Y023845D01*
X006902Y023636D01*
X007062Y023477D01*
X007270Y023390D01*
X007496Y023390D01*
X007588Y023428D01*
X007794Y023428D01*
X007918Y023304D01*
X008067Y023155D01*
X008262Y023074D01*
X009138Y023074D01*
X009138Y022979D01*
X009216Y022791D01*
X009216Y020135D01*
X009138Y019946D01*
X009138Y019720D01*
X009225Y019511D01*
X009384Y019352D01*
X009593Y019265D01*
X009819Y019265D01*
X010028Y019352D01*
X010188Y019511D01*
X010274Y019720D01*
X010274Y019946D01*
X010196Y020135D01*
X010196Y021931D01*
X010381Y021855D01*
X010607Y021855D01*
X010816Y021941D01*
X010975Y022101D01*
X011062Y022310D01*
X011062Y022536D01*
X011024Y022628D01*
X011024Y023739D01*
X012999Y025714D01*
X013148Y025863D01*
X013228Y026058D01*
X013228Y026982D01*
X013267Y027074D01*
X013267Y027300D01*
X013200Y027460D01*
X013442Y027360D01*
X013808Y027360D01*
X013818Y027364D01*
X014406Y026777D01*
X014601Y026696D01*
X015452Y026696D01*
X012598Y023842D01*
X012523Y023662D01*
X012523Y020775D01*
X011496Y019748D01*
X011421Y019568D01*
X011421Y018433D01*
X011343Y018245D01*
X011343Y018018D01*
X011429Y017810D01*
X011589Y017650D01*
X011798Y017563D01*
X011973Y017563D01*
X011973Y017373D01*
X011055Y016456D01*
X010027Y016456D01*
X010038Y016483D01*
X010038Y016709D01*
X009952Y016918D01*
X009792Y017078D01*
X009583Y017164D01*
X009357Y017164D01*
X009148Y017078D01*
X008988Y016918D01*
X008910Y016729D01*
X007889Y015708D01*
X006622Y015708D01*
X006433Y015786D01*
X006207Y015786D01*
X005999Y015700D01*
X005839Y015540D01*
X005752Y015331D01*
X005752Y015105D01*
X005839Y014896D01*
X005999Y014736D01*
X006207Y014650D01*
X006433Y014650D01*
X006622Y014728D01*
X007957Y014728D01*
X007957Y012530D01*
X008026Y012365D01*
X008384Y012007D01*
X007058Y012007D01*
X007046Y012019D02*
X008372Y012019D01*
X008273Y012117D02*
X007105Y012117D01*
X007204Y012216D02*
X008175Y012216D01*
X008076Y012314D02*
X007246Y012314D01*
X007287Y012413D02*
X008006Y012413D01*
X007965Y012511D02*
X007293Y012511D01*
X007293Y012610D02*
X007957Y012610D01*
X007957Y012708D02*
X007270Y012708D01*
X007229Y012807D02*
X007957Y012807D01*
X007957Y012905D02*
X007163Y012905D01*
X007065Y013004D02*
X007957Y013004D01*
X007957Y013102D02*
X006856Y013102D01*
X006757Y013201D02*
X007957Y013201D01*
X007957Y013299D02*
X006659Y013299D01*
X006560Y013398D02*
X007957Y013398D01*
X007957Y013496D02*
X006462Y013496D01*
X006363Y013595D02*
X007957Y013595D01*
X007957Y013693D02*
X006265Y013693D01*
X006166Y013792D02*
X007957Y013792D01*
X007957Y013890D02*
X006068Y013890D01*
X005969Y013989D02*
X007957Y013989D01*
X007957Y014087D02*
X005871Y014087D01*
X005772Y014186D02*
X007957Y014186D01*
X007957Y014284D02*
X005674Y014284D01*
X005575Y014383D02*
X007957Y014383D01*
X007957Y014481D02*
X005477Y014481D01*
X005378Y014580D02*
X007957Y014580D01*
X007957Y014678D02*
X006501Y014678D01*
X006140Y014678D02*
X005280Y014678D01*
X005181Y014777D02*
X005959Y014777D01*
X005860Y014875D02*
X005083Y014875D01*
X004984Y014974D02*
X005807Y014974D01*
X005766Y015072D02*
X004886Y015072D01*
X004787Y015171D02*
X005752Y015171D01*
X005752Y015269D02*
X004689Y015269D01*
X004590Y015368D02*
X005767Y015368D01*
X005808Y015466D02*
X004492Y015466D01*
X004393Y015565D02*
X005863Y015565D01*
X005962Y015663D02*
X004295Y015663D01*
X004196Y015762D02*
X006148Y015762D01*
X006493Y015762D02*
X007943Y015762D01*
X008041Y015860D02*
X004098Y015860D01*
X003999Y015959D02*
X008140Y015959D01*
X008238Y016057D02*
X003901Y016057D01*
X003802Y016156D02*
X008337Y016156D01*
X008435Y016254D02*
X003776Y016254D01*
X003776Y016353D02*
X003940Y016353D01*
X004213Y016353D02*
X008534Y016353D01*
X008632Y016451D02*
X004420Y016451D01*
X004518Y016550D02*
X008731Y016550D01*
X008829Y016648D02*
X004582Y016648D01*
X004623Y016747D02*
X008917Y016747D01*
X008958Y016845D02*
X004644Y016845D01*
X004644Y016944D02*
X009014Y016944D01*
X009113Y017042D02*
X004637Y017042D01*
X004596Y017141D02*
X009300Y017141D01*
X009640Y017141D02*
X011740Y017141D01*
X011839Y017239D02*
X004566Y017239D01*
X004566Y017338D02*
X011937Y017338D01*
X011973Y017436D02*
X004566Y017436D01*
X004605Y017535D02*
X011973Y017535D01*
X011630Y017633D02*
X004704Y017633D01*
X004802Y017732D02*
X011508Y017732D01*
X011421Y017830D02*
X004901Y017830D01*
X004999Y017929D02*
X011380Y017929D01*
X011343Y018027D02*
X005098Y018027D01*
X005196Y018126D02*
X011343Y018126D01*
X011343Y018224D02*
X005295Y018224D01*
X005393Y018323D02*
X011375Y018323D01*
X011416Y018421D02*
X005492Y018421D01*
X005590Y018520D02*
X011421Y018520D01*
X011421Y018618D02*
X005689Y018618D01*
X005787Y018717D02*
X011421Y018717D01*
X011421Y018815D02*
X005886Y018815D01*
X005984Y018914D02*
X011421Y018914D01*
X011421Y019012D02*
X006171Y019012D01*
X006292Y019111D02*
X011421Y019111D01*
X011421Y019209D02*
X006378Y019209D01*
X006419Y019308D02*
X009491Y019308D01*
X009330Y019406D02*
X006456Y019406D01*
X006456Y019505D02*
X009232Y019505D01*
X009187Y019603D02*
X006456Y019603D01*
X006423Y019702D02*
X009146Y019702D01*
X009138Y019800D02*
X006382Y019800D01*
X006302Y019899D02*
X009138Y019899D01*
X009159Y019997D02*
X006195Y019997D01*
X005580Y019997D02*
X000550Y019997D01*
X000550Y019899D02*
X005473Y019899D01*
X005393Y019800D02*
X000550Y019800D01*
X000550Y019702D02*
X005352Y019702D01*
X005288Y019603D02*
X000550Y019603D01*
X000550Y019505D02*
X005190Y019505D01*
X005091Y019406D02*
X003485Y019406D01*
X003656Y019308D02*
X004993Y019308D01*
X004894Y019209D02*
X003754Y019209D01*
X003803Y019111D02*
X004796Y019111D01*
X004697Y019012D02*
X003844Y019012D01*
X003854Y018914D02*
X004599Y018914D01*
X004500Y018815D02*
X003854Y018815D01*
X003836Y018717D02*
X004402Y018717D01*
X004303Y018618D02*
X003795Y018618D01*
X003776Y018520D02*
X004205Y018520D01*
X004106Y018421D02*
X003776Y018421D01*
X003776Y018323D02*
X004008Y018323D01*
X003909Y018224D02*
X003776Y018224D01*
X003776Y018126D02*
X003811Y018126D01*
X003087Y019406D02*
X000550Y019406D01*
X000550Y019308D02*
X002917Y019308D01*
X002818Y019209D02*
X000550Y019209D01*
X000550Y019111D02*
X002769Y019111D01*
X002728Y019012D02*
X000550Y019012D01*
X000550Y018914D02*
X002718Y018914D01*
X002718Y018815D02*
X000550Y018815D01*
X000550Y018717D02*
X002736Y018717D01*
X002777Y018618D02*
X000550Y018618D01*
X000550Y018520D02*
X002796Y018520D01*
X002796Y018421D02*
X000550Y018421D01*
X000550Y018323D02*
X002796Y018323D01*
X002796Y018224D02*
X000550Y018224D01*
X000550Y018126D02*
X002796Y018126D01*
X002796Y018027D02*
X000550Y018027D01*
X000550Y017929D02*
X002796Y017929D01*
X002796Y017830D02*
X000550Y017830D01*
X000550Y017732D02*
X002796Y017732D01*
X002796Y017633D02*
X000550Y017633D01*
X000550Y017535D02*
X002796Y017535D01*
X002796Y017436D02*
X000550Y017436D01*
X000550Y017338D02*
X002796Y017338D01*
X002796Y017239D02*
X000550Y017239D01*
X000550Y017141D02*
X002796Y017141D01*
X002796Y017042D02*
X000550Y017042D01*
X000550Y016944D02*
X002796Y016944D01*
X002796Y016845D02*
X000550Y016845D01*
X000550Y016747D02*
X002796Y016747D01*
X002796Y016648D02*
X000550Y016648D01*
X000550Y016550D02*
X002796Y016550D01*
X002796Y016451D02*
X000550Y016451D01*
X000550Y016353D02*
X002796Y016353D01*
X002796Y016254D02*
X000550Y016254D01*
X000550Y016156D02*
X002796Y016156D01*
X002796Y016057D02*
X000550Y016057D01*
X000550Y015959D02*
X002796Y015959D01*
X002805Y015860D02*
X000550Y015860D01*
X000550Y015762D02*
X002846Y015762D01*
X002909Y015663D02*
X000550Y015663D01*
X000550Y015565D02*
X003007Y015565D01*
X003106Y015466D02*
X000550Y015466D01*
X000550Y015368D02*
X003204Y015368D01*
X003303Y015269D02*
X000550Y015269D01*
X000550Y015171D02*
X003401Y015171D01*
X003500Y015072D02*
X000550Y015072D01*
X000550Y014974D02*
X003598Y014974D01*
X003697Y014875D02*
X000550Y014875D01*
X000550Y014777D02*
X003795Y014777D01*
X003894Y014678D02*
X000550Y014678D01*
X000550Y014580D02*
X003992Y014580D01*
X004091Y014481D02*
X000550Y014481D01*
X000550Y014383D02*
X004189Y014383D01*
X004288Y014284D02*
X000550Y014284D01*
X000550Y014186D02*
X004386Y014186D01*
X004485Y014087D02*
X000550Y014087D01*
X000550Y013989D02*
X004583Y013989D01*
X004682Y013890D02*
X000550Y013890D01*
X000550Y013792D02*
X004780Y013792D01*
X004879Y013693D02*
X000550Y013693D01*
X000550Y013595D02*
X004977Y013595D01*
X005076Y013496D02*
X000550Y013496D01*
X000550Y013398D02*
X005174Y013398D01*
X005273Y013299D02*
X000550Y013299D01*
X000550Y013201D02*
X005371Y013201D01*
X005470Y013102D02*
X000550Y013102D01*
X000550Y013004D02*
X005568Y013004D01*
X005606Y012905D02*
X000550Y012905D01*
X000550Y012807D02*
X005507Y012807D01*
X005453Y012708D02*
X000550Y012708D01*
X000550Y012610D02*
X005412Y012610D01*
X005398Y012511D02*
X000550Y012511D01*
X000550Y012413D02*
X005398Y012413D01*
X005413Y012314D02*
X000550Y012314D01*
X000550Y012216D02*
X005453Y012216D01*
X005508Y012117D02*
X000550Y012117D01*
X000550Y012019D02*
X005606Y012019D01*
X005791Y011920D02*
X000550Y011920D01*
X000550Y011822D02*
X005861Y011822D01*
X005762Y011723D02*
X000550Y011723D01*
X000550Y011625D02*
X005697Y011625D01*
X005656Y011526D02*
X000550Y011526D01*
X000550Y011428D02*
X005634Y011428D01*
X005634Y011329D02*
X000550Y011329D01*
X000550Y011231D02*
X005641Y011231D01*
X005489Y011132D02*
X000550Y011132D01*
X000550Y011034D02*
X005409Y011034D01*
X005369Y010935D02*
X000550Y010935D01*
X000550Y010837D02*
X005367Y010837D01*
X005367Y010738D02*
X000550Y010738D01*
X000550Y010640D02*
X005367Y010640D01*
X005367Y010541D02*
X000550Y010541D01*
X000550Y010443D02*
X005367Y010443D01*
X009566Y013436D02*
X009566Y014205D01*
X010208Y014847D01*
X011646Y014847D01*
X011812Y014915D01*
X012878Y015982D01*
X012878Y013830D01*
X012325Y013277D01*
X012199Y013150D01*
X012130Y012985D01*
X012130Y012456D01*
X012075Y012511D01*
X012130Y012511D01*
X012075Y012511D02*
X011867Y012597D01*
X011641Y012597D01*
X011613Y012586D01*
X011613Y013064D01*
X011544Y013229D01*
X011418Y013356D01*
X011253Y013424D01*
X009578Y013424D01*
X009566Y013436D01*
X009566Y013496D02*
X012545Y013496D01*
X012643Y013595D02*
X009566Y013595D01*
X009566Y013693D02*
X012742Y013693D01*
X012840Y013792D02*
X009566Y013792D01*
X009566Y013890D02*
X012878Y013890D01*
X012878Y013989D02*
X009566Y013989D01*
X009566Y014087D02*
X012878Y014087D01*
X012878Y014186D02*
X009566Y014186D01*
X009645Y014284D02*
X012878Y014284D01*
X012878Y014383D02*
X009743Y014383D01*
X009842Y014481D02*
X012878Y014481D01*
X012878Y014580D02*
X009940Y014580D01*
X010039Y014678D02*
X012878Y014678D01*
X012878Y014777D02*
X010137Y014777D01*
X011316Y013398D02*
X012446Y013398D01*
X012348Y013299D02*
X011474Y013299D01*
X011556Y013201D02*
X012249Y013201D01*
X012325Y013277D02*
X012325Y013277D01*
X012179Y013102D02*
X011597Y013102D01*
X011613Y013004D02*
X012138Y013004D01*
X012130Y012905D02*
X011613Y012905D01*
X011613Y012807D02*
X012130Y012807D01*
X012130Y012708D02*
X011613Y012708D01*
X011613Y012610D02*
X012130Y012610D01*
X011714Y014875D02*
X012878Y014875D01*
X012878Y014974D02*
X011870Y014974D01*
X011968Y015072D02*
X012878Y015072D01*
X012878Y015171D02*
X012067Y015171D01*
X012165Y015269D02*
X012878Y015269D01*
X012878Y015368D02*
X012264Y015368D01*
X012362Y015466D02*
X012878Y015466D01*
X012878Y015565D02*
X012461Y015565D01*
X012559Y015663D02*
X012878Y015663D01*
X012878Y015762D02*
X012658Y015762D01*
X012756Y015860D02*
X012878Y015860D01*
X012878Y015959D02*
X012855Y015959D01*
X013896Y016911D02*
X013896Y018260D01*
X014331Y018694D01*
X014601Y018694D01*
X014622Y018673D01*
X014758Y018617D01*
X015830Y018617D01*
X015966Y018673D01*
X015987Y018694D01*
X016067Y018694D01*
X016067Y017574D01*
X015966Y017674D01*
X015830Y017731D01*
X014758Y017731D01*
X014622Y017674D01*
X014518Y017570D01*
X014512Y017558D01*
X014475Y017558D01*
X014266Y017471D01*
X014107Y017312D01*
X014020Y017103D01*
X014020Y016929D01*
X013940Y016929D01*
X013896Y016911D01*
X013896Y016944D02*
X014020Y016944D01*
X014020Y017042D02*
X013896Y017042D01*
X013896Y017141D02*
X014036Y017141D01*
X014077Y017239D02*
X013896Y017239D01*
X013896Y017338D02*
X014133Y017338D01*
X014231Y017436D02*
X013896Y017436D01*
X013896Y017535D02*
X014419Y017535D01*
X014580Y017633D02*
X013896Y017633D01*
X013896Y017732D02*
X016067Y017732D01*
X016067Y017830D02*
X013896Y017830D01*
X013896Y017929D02*
X014721Y017929D01*
X014711Y017938D02*
X014739Y017910D01*
X014773Y017890D01*
X014812Y017880D01*
X015265Y017880D01*
X015265Y018159D01*
X014681Y018159D01*
X014681Y018010D01*
X014692Y017972D01*
X014711Y017938D01*
X014681Y018027D02*
X013896Y018027D01*
X013896Y018126D02*
X014681Y018126D01*
X014681Y018216D02*
X015265Y018216D01*
X015265Y018159D01*
X015323Y018159D01*
X015323Y018216D01*
X015906Y018216D01*
X015906Y018365D01*
X015896Y018403D01*
X015877Y018437D01*
X015849Y018465D01*
X015814Y018485D01*
X015776Y018495D01*
X015323Y018495D01*
X015323Y018216D01*
X015265Y018216D01*
X015265Y018495D01*
X014812Y018495D01*
X014773Y018485D01*
X014739Y018465D01*
X014711Y018437D01*
X014692Y018403D01*
X014681Y018365D01*
X014681Y018216D01*
X014681Y018224D02*
X013896Y018224D01*
X013959Y018323D02*
X014681Y018323D01*
X014702Y018421D02*
X014057Y018421D01*
X014156Y018520D02*
X016067Y018520D01*
X016067Y018618D02*
X015833Y018618D01*
X015886Y018421D02*
X016067Y018421D01*
X016067Y018323D02*
X015906Y018323D01*
X015906Y018224D02*
X016067Y018224D01*
X016067Y018126D02*
X015906Y018126D01*
X015906Y018159D02*
X015323Y018159D01*
X015323Y017880D01*
X015776Y017880D01*
X015814Y017890D01*
X015849Y017910D01*
X015877Y017938D01*
X015896Y017972D01*
X015906Y018010D01*
X015906Y018159D01*
X015906Y018027D02*
X016067Y018027D01*
X016067Y017929D02*
X015867Y017929D01*
X016008Y017633D02*
X016067Y017633D01*
X015323Y017929D02*
X015265Y017929D01*
X015265Y018027D02*
X015323Y018027D01*
X015323Y018126D02*
X015265Y018126D01*
X015265Y018224D02*
X015323Y018224D01*
X015323Y018323D02*
X015265Y018323D01*
X015265Y018421D02*
X015323Y018421D01*
X014755Y018618D02*
X014254Y018618D01*
X012435Y020687D02*
X010196Y020687D01*
X010196Y020785D02*
X012523Y020785D01*
X012523Y020884D02*
X010196Y020884D01*
X010196Y020982D02*
X012523Y020982D01*
X012523Y021081D02*
X010196Y021081D01*
X010196Y021179D02*
X012523Y021179D01*
X012523Y021278D02*
X010196Y021278D01*
X010196Y021376D02*
X012523Y021376D01*
X012523Y021475D02*
X010196Y021475D01*
X010196Y021573D02*
X012523Y021573D01*
X012523Y021672D02*
X010196Y021672D01*
X010196Y021770D02*
X012523Y021770D01*
X012523Y021869D02*
X010640Y021869D01*
X010841Y021967D02*
X012523Y021967D01*
X012523Y022066D02*
X010940Y022066D01*
X011001Y022164D02*
X012523Y022164D01*
X012523Y022263D02*
X011042Y022263D01*
X011062Y022361D02*
X012523Y022361D01*
X012523Y022460D02*
X011062Y022460D01*
X011053Y022558D02*
X012523Y022558D01*
X012523Y022657D02*
X011024Y022657D01*
X011024Y022755D02*
X012523Y022755D01*
X012523Y022854D02*
X011024Y022854D01*
X011024Y022952D02*
X012523Y022952D01*
X012523Y023051D02*
X011024Y023051D01*
X011024Y023149D02*
X012523Y023149D01*
X012523Y023248D02*
X011024Y023248D01*
X011024Y023346D02*
X012523Y023346D01*
X012523Y023445D02*
X011024Y023445D01*
X011024Y023543D02*
X012523Y023543D01*
X012523Y023642D02*
X011024Y023642D01*
X011025Y023740D02*
X012556Y023740D01*
X012597Y023839D02*
X011124Y023839D01*
X011222Y023937D02*
X012693Y023937D01*
X012791Y024036D02*
X011321Y024036D01*
X011419Y024134D02*
X012890Y024134D01*
X012988Y024233D02*
X011518Y024233D01*
X011616Y024331D02*
X013087Y024331D01*
X013185Y024430D02*
X011715Y024430D01*
X011813Y024528D02*
X013284Y024528D01*
X013382Y024627D02*
X011912Y024627D01*
X012010Y024725D02*
X013481Y024725D01*
X013579Y024824D02*
X012109Y024824D01*
X012207Y024922D02*
X013678Y024922D01*
X013776Y025021D02*
X012306Y025021D01*
X012404Y025119D02*
X013875Y025119D01*
X013973Y025218D02*
X012503Y025218D01*
X012601Y025316D02*
X014072Y025316D01*
X014170Y025415D02*
X012700Y025415D01*
X012798Y025513D02*
X014269Y025513D01*
X014367Y025612D02*
X012897Y025612D01*
X012995Y025710D02*
X014466Y025710D01*
X014564Y025809D02*
X013094Y025809D01*
X013166Y025907D02*
X014663Y025907D01*
X014761Y026006D02*
X013207Y026006D01*
X013228Y026104D02*
X014860Y026104D01*
X014958Y026203D02*
X013228Y026203D01*
X013228Y026301D02*
X015057Y026301D01*
X015155Y026400D02*
X013228Y026400D01*
X013228Y026498D02*
X015254Y026498D01*
X015352Y026597D02*
X013228Y026597D01*
X013228Y026695D02*
X015451Y026695D01*
X014389Y026794D02*
X013228Y026794D01*
X013228Y026892D02*
X014291Y026892D01*
X014192Y026991D02*
X013232Y026991D01*
X013267Y027089D02*
X014094Y027089D01*
X013995Y027188D02*
X013267Y027188D01*
X013267Y027286D02*
X013897Y027286D01*
X013383Y027385D02*
X013231Y027385D01*
X012839Y027779D02*
X012561Y027779D01*
X012602Y027877D02*
X012798Y027877D01*
X012757Y027976D02*
X012643Y027976D01*
X012684Y028074D02*
X012716Y028074D01*
X012708Y028173D02*
X012692Y028173D01*
X012692Y028271D02*
X012708Y028271D01*
X012708Y028370D02*
X012692Y028370D01*
X012692Y028468D02*
X012708Y028468D01*
X012708Y028567D02*
X012692Y028567D01*
X012692Y028665D02*
X012708Y028665D01*
X012708Y028764D02*
X012692Y028764D01*
X012692Y028862D02*
X012708Y028862D01*
X012708Y028961D02*
X012692Y028961D01*
X012692Y029059D02*
X012708Y029059D01*
X012708Y029158D02*
X012692Y029158D01*
X012692Y029256D02*
X012708Y029256D01*
X012708Y029355D02*
X012692Y029355D01*
X012692Y029453D02*
X012708Y029453D01*
X012708Y029552D02*
X012692Y029552D01*
X012653Y029650D02*
X012747Y029650D01*
X012788Y029749D02*
X012612Y029749D01*
X012572Y029847D02*
X012828Y029847D01*
X012901Y029946D02*
X012499Y029946D01*
X012401Y030044D02*
X012999Y030044D01*
X013098Y030143D02*
X012302Y030143D01*
X012076Y030241D02*
X013324Y030241D01*
X013926Y030241D02*
X015174Y030241D01*
X014948Y030143D02*
X014152Y030143D01*
X014251Y030044D02*
X014849Y030044D01*
X014751Y029946D02*
X014349Y029946D01*
X014422Y029847D02*
X014678Y029847D01*
X014638Y029749D02*
X014462Y029749D01*
X014503Y029650D02*
X014597Y029650D01*
X014558Y029552D02*
X014542Y029552D01*
X014542Y029453D02*
X014558Y029453D01*
X014558Y029355D02*
X014542Y029355D01*
X014542Y029256D02*
X014558Y029256D01*
X014558Y029158D02*
X014542Y029158D01*
X014542Y029059D02*
X014558Y029059D01*
X014558Y028961D02*
X014542Y028961D01*
X014542Y028862D02*
X014558Y028862D01*
X014558Y028764D02*
X014542Y028764D01*
X014542Y028665D02*
X014558Y028665D01*
X014558Y028567D02*
X014542Y028567D01*
X014542Y028468D02*
X014558Y028468D01*
X014558Y028370D02*
X014542Y028370D01*
X014542Y028271D02*
X014558Y028271D01*
X014558Y028173D02*
X014542Y028173D01*
X015776Y030241D02*
X016845Y030241D01*
X016845Y030143D02*
X016002Y030143D01*
X016101Y030044D02*
X016845Y030044D01*
X016863Y029946D02*
X016199Y029946D01*
X016272Y029847D02*
X016962Y029847D01*
X017060Y029749D02*
X016312Y029749D01*
X016353Y029650D02*
X017159Y029650D01*
X017791Y029650D02*
X018034Y029650D01*
X017935Y029749D02*
X017890Y029749D01*
X018666Y029650D02*
X018909Y029650D01*
X018810Y029749D02*
X018765Y029749D01*
X019541Y029650D02*
X019784Y029650D01*
X019685Y029749D02*
X019640Y029749D01*
X020416Y029650D02*
X020900Y029650D01*
X020900Y029552D02*
X016392Y029552D01*
X016392Y029453D02*
X020900Y029453D01*
X020900Y029355D02*
X016392Y029355D01*
X016392Y029256D02*
X020900Y029256D01*
X020916Y029158D02*
X016392Y029158D01*
X016392Y029059D02*
X020958Y029059D01*
X021056Y028961D02*
X016392Y028961D01*
X016392Y028862D02*
X022650Y028862D01*
X022650Y028764D02*
X020454Y028764D01*
X020552Y028665D02*
X022650Y028665D01*
X022650Y028567D02*
X020651Y028567D01*
X020749Y028468D02*
X022650Y028468D01*
X022650Y028370D02*
X020848Y028370D01*
X020946Y028271D02*
X022650Y028271D01*
X022650Y028173D02*
X021045Y028173D01*
X021143Y028074D02*
X022650Y028074D01*
X022650Y027976D02*
X022515Y027976D01*
X022623Y027877D02*
X022650Y027877D01*
X022023Y027877D02*
X021927Y027877D01*
X021927Y027779D02*
X022023Y027779D01*
X022023Y027680D02*
X021927Y027680D01*
X021927Y027976D02*
X022023Y027976D01*
X021435Y027976D02*
X021242Y027976D01*
X022144Y028961D02*
X022650Y028961D01*
X022650Y029059D02*
X022242Y029059D01*
X022284Y029158D02*
X022634Y029158D01*
X022593Y029256D02*
X022300Y029256D01*
X022300Y029355D02*
X022544Y029355D01*
X022489Y029453D02*
X022300Y029453D01*
X022300Y029552D02*
X022435Y029552D01*
X022367Y029650D02*
X022300Y029650D01*
X021688Y030340D02*
X020730Y030340D01*
X020730Y030438D02*
X021546Y030438D01*
X021368Y030537D02*
X020679Y030537D01*
X020581Y030635D02*
X021155Y030635D01*
X021058Y030241D02*
X020730Y030241D01*
X020730Y030143D02*
X020959Y030143D01*
X020917Y030044D02*
X020730Y030044D01*
X020712Y029946D02*
X020900Y029946D01*
X020900Y029847D02*
X020613Y029847D01*
X020515Y029749D02*
X020900Y029749D01*
X017412Y026595D02*
X017946Y026061D01*
X017885Y026061D01*
X017592Y025768D01*
X017592Y025591D01*
X018062Y025591D01*
X018062Y025531D01*
X017592Y025531D01*
X017592Y025354D01*
X017729Y025216D01*
X017381Y024868D01*
X017165Y025083D01*
X017165Y026035D01*
X017204Y026128D01*
X017204Y026606D01*
X017214Y026595D01*
X017412Y026595D01*
X017509Y026498D02*
X017204Y026498D01*
X017204Y026400D02*
X017607Y026400D01*
X017706Y026301D02*
X017204Y026301D01*
X017204Y026203D02*
X017804Y026203D01*
X017903Y026104D02*
X017194Y026104D01*
X017165Y026006D02*
X017830Y026006D01*
X017731Y025907D02*
X017165Y025907D01*
X017165Y025809D02*
X017633Y025809D01*
X017592Y025710D02*
X017165Y025710D01*
X017165Y025612D02*
X017592Y025612D01*
X017592Y025513D02*
X017165Y025513D01*
X017165Y025415D02*
X017592Y025415D01*
X017630Y025316D02*
X017165Y025316D01*
X017165Y025218D02*
X017728Y025218D01*
X017632Y025119D02*
X017165Y025119D01*
X017228Y025021D02*
X017534Y025021D01*
X017435Y024922D02*
X017327Y024922D01*
X017212Y026597D02*
X017204Y026597D01*
X016478Y028567D02*
X016392Y028567D01*
X016392Y028665D02*
X016577Y028665D01*
X016675Y028764D02*
X016392Y028764D01*
X016845Y030340D02*
X001512Y030340D01*
X001654Y030438D02*
X016845Y030438D01*
X016896Y030537D02*
X001832Y030537D01*
X002045Y030635D02*
X016994Y030635D01*
X012166Y027385D02*
X012017Y027385D01*
X012130Y027286D02*
X000550Y027286D01*
X000550Y027188D02*
X012130Y027188D01*
X012130Y027089D02*
X000550Y027089D01*
X000550Y026991D02*
X012165Y026991D01*
X012168Y026892D02*
X000550Y026892D01*
X000550Y026794D02*
X012168Y026794D01*
X012168Y026695D02*
X000550Y026695D01*
X000550Y026597D02*
X012168Y026597D01*
X012168Y026498D02*
X000550Y026498D01*
X000550Y026400D02*
X012168Y026400D01*
X012087Y026301D02*
X000550Y026301D01*
X000550Y026203D02*
X011988Y026203D01*
X011890Y026104D02*
X000550Y026104D01*
X000550Y026006D02*
X011791Y026006D01*
X011693Y025907D02*
X000550Y025907D01*
X000550Y025809D02*
X011594Y025809D01*
X011496Y025710D02*
X009028Y025710D01*
X009126Y025612D02*
X011397Y025612D01*
X011299Y025513D02*
X009223Y025513D01*
X009223Y025415D02*
X011200Y025415D01*
X011102Y025316D02*
X008793Y025316D01*
X008733Y025316D02*
X002712Y025316D01*
X002712Y025294D02*
X002712Y025354D01*
X003142Y025354D01*
X003142Y025515D01*
X002872Y025784D01*
X002712Y025784D01*
X002712Y025354D01*
X002652Y025354D01*
X002652Y025294D01*
X002222Y025294D01*
X002222Y025134D01*
X002408Y024947D01*
X002297Y024901D01*
X002105Y024710D01*
X002002Y024460D01*
X002002Y024189D01*
X002105Y023939D01*
X002297Y023748D01*
X002546Y023644D01*
X002817Y023644D01*
X003067Y023748D01*
X003113Y023794D01*
X005541Y023794D01*
X006068Y023786D01*
X006168Y023744D01*
X006394Y023744D01*
X006603Y023831D01*
X006763Y023991D01*
X006849Y024200D01*
X006849Y024426D01*
X006763Y024634D01*
X006603Y024794D01*
X006394Y024881D01*
X006168Y024881D01*
X006084Y024846D01*
X005654Y024853D01*
X005650Y024854D01*
X005549Y024854D01*
X005448Y024856D01*
X005444Y024854D01*
X003113Y024854D01*
X003067Y024901D01*
X002955Y024947D01*
X003142Y025134D01*
X003142Y025294D01*
X002712Y025294D01*
X002652Y025316D02*
X000550Y025316D01*
X000550Y025218D02*
X002222Y025218D01*
X002237Y025119D02*
X000550Y025119D01*
X000550Y025021D02*
X002335Y025021D01*
X002348Y024922D02*
X000550Y024922D01*
X000550Y024824D02*
X002219Y024824D01*
X002121Y024725D02*
X000550Y024725D01*
X000550Y024627D02*
X002071Y024627D01*
X002030Y024528D02*
X000550Y024528D01*
X000550Y024430D02*
X002002Y024430D01*
X002002Y024331D02*
X000550Y024331D01*
X000550Y024233D02*
X002002Y024233D01*
X002025Y024134D02*
X000550Y024134D01*
X000550Y024036D02*
X002065Y024036D01*
X002107Y023937D02*
X000550Y023937D01*
X000550Y023839D02*
X002206Y023839D01*
X002316Y023740D02*
X000550Y023740D01*
X000550Y023642D02*
X006900Y023642D01*
X006859Y023740D02*
X003048Y023740D01*
X003016Y024922D02*
X008429Y024922D01*
X008416Y025021D02*
X003028Y025021D01*
X003127Y025119D02*
X008318Y025119D01*
X008303Y025218D02*
X003142Y025218D01*
X003142Y025415D02*
X008303Y025415D01*
X008303Y025354D02*
X008733Y025354D01*
X008733Y025784D01*
X008572Y025784D01*
X008303Y025515D01*
X008303Y025354D01*
X008303Y025513D02*
X003142Y025513D01*
X003045Y025612D02*
X008400Y025612D01*
X008498Y025710D02*
X002947Y025710D01*
X002712Y025710D02*
X002652Y025710D01*
X002652Y025784D02*
X002491Y025784D01*
X002222Y025515D01*
X002222Y025354D01*
X002652Y025354D01*
X002652Y025784D01*
X002652Y025612D02*
X002712Y025612D01*
X002712Y025513D02*
X002652Y025513D01*
X002652Y025415D02*
X002712Y025415D01*
X002417Y025710D02*
X000550Y025710D01*
X000550Y025612D02*
X002318Y025612D01*
X002222Y025513D02*
X000550Y025513D01*
X000550Y025415D02*
X002222Y025415D01*
X003149Y027680D02*
X000550Y027680D01*
X000550Y027582D02*
X011173Y027582D01*
X011075Y027680D02*
X009551Y027680D01*
X009478Y027650D02*
X009744Y027760D01*
X009947Y027963D01*
X010057Y028229D01*
X010057Y029221D01*
X009947Y029487D01*
X009744Y029690D01*
X009478Y029800D01*
X009191Y029800D01*
X008925Y029690D01*
X008722Y029487D01*
X008612Y029221D01*
X008612Y028229D01*
X008722Y027963D01*
X008925Y027760D01*
X009191Y027650D01*
X009478Y027650D01*
X009118Y027680D02*
X005551Y027680D01*
X005478Y027650D02*
X005744Y027760D01*
X005947Y027963D01*
X006057Y028229D01*
X006057Y029221D01*
X005947Y029487D01*
X005744Y029690D01*
X005478Y029800D01*
X005191Y029800D01*
X004925Y029690D01*
X004722Y029487D01*
X004612Y029221D01*
X004612Y028229D01*
X004722Y027963D01*
X004925Y027760D01*
X005191Y027650D01*
X005478Y027650D01*
X005762Y027779D02*
X008906Y027779D01*
X008808Y027877D02*
X007450Y027877D01*
X007483Y027882D02*
X007559Y027907D01*
X007629Y027943D01*
X007693Y027989D01*
X007749Y028045D01*
X007796Y028109D01*
X007831Y028180D01*
X007856Y028255D01*
X007868Y028333D01*
X007868Y028675D01*
X007416Y028675D01*
X007416Y028775D01*
X007868Y028775D01*
X007868Y029117D01*
X007856Y029195D01*
X007831Y029270D01*
X007796Y029341D01*
X007749Y029405D01*
X007693Y029461D01*
X007629Y029507D01*
X007559Y029543D01*
X007483Y029568D01*
X007416Y029578D01*
X007416Y028775D01*
X007316Y028775D01*
X007316Y029578D01*
X007248Y029568D01*
X007173Y029543D01*
X007102Y029507D01*
X007038Y029461D01*
X006982Y029405D01*
X006936Y029341D01*
X006900Y029270D01*
X006876Y029195D01*
X006863Y029117D01*
X006863Y028775D01*
X007316Y028775D01*
X007316Y028675D01*
X007416Y028675D01*
X007416Y027872D01*
X007483Y027882D01*
X007416Y027877D02*
X007316Y027877D01*
X007316Y027872D02*
X007316Y028675D01*
X006863Y028675D01*
X006863Y028333D01*
X006876Y028255D01*
X006900Y028180D01*
X006936Y028109D01*
X006982Y028045D01*
X007038Y027989D01*
X007102Y027943D01*
X007173Y027907D01*
X007248Y027882D01*
X007316Y027872D01*
X007282Y027877D02*
X005861Y027877D01*
X005952Y027976D02*
X007057Y027976D01*
X006961Y028074D02*
X005993Y028074D01*
X006033Y028173D02*
X006904Y028173D01*
X006873Y028271D02*
X006057Y028271D01*
X006057Y028370D02*
X006863Y028370D01*
X006863Y028468D02*
X006057Y028468D01*
X006057Y028567D02*
X006863Y028567D01*
X006863Y028665D02*
X006057Y028665D01*
X006057Y028764D02*
X007316Y028764D01*
X007316Y028862D02*
X007416Y028862D01*
X007416Y028764D02*
X008612Y028764D01*
X008612Y028862D02*
X007868Y028862D01*
X007868Y028961D02*
X008612Y028961D01*
X008612Y029059D02*
X007868Y029059D01*
X007862Y029158D02*
X008612Y029158D01*
X008626Y029256D02*
X007836Y029256D01*
X007786Y029355D02*
X008667Y029355D01*
X008708Y029453D02*
X007701Y029453D01*
X007533Y029552D02*
X008787Y029552D01*
X008885Y029650D02*
X005783Y029650D01*
X005882Y029552D02*
X007199Y029552D01*
X007316Y029552D02*
X007416Y029552D01*
X007416Y029453D02*
X007316Y029453D01*
X007316Y029355D02*
X007416Y029355D01*
X007416Y029256D02*
X007316Y029256D01*
X007316Y029158D02*
X007416Y029158D01*
X007416Y029059D02*
X007316Y029059D01*
X007316Y028961D02*
X007416Y028961D01*
X007416Y028665D02*
X007316Y028665D01*
X007316Y028567D02*
X007416Y028567D01*
X007416Y028468D02*
X007316Y028468D01*
X007316Y028370D02*
X007416Y028370D01*
X007416Y028271D02*
X007316Y028271D01*
X007316Y028173D02*
X007416Y028173D01*
X007416Y028074D02*
X007316Y028074D01*
X007316Y027976D02*
X007416Y027976D01*
X007674Y027976D02*
X008717Y027976D01*
X008676Y028074D02*
X007770Y028074D01*
X007828Y028173D02*
X008635Y028173D01*
X008612Y028271D02*
X007858Y028271D01*
X007868Y028370D02*
X008612Y028370D01*
X008612Y028468D02*
X007868Y028468D01*
X007868Y028567D02*
X008612Y028567D01*
X008612Y028665D02*
X007868Y028665D01*
X006895Y029256D02*
X006042Y029256D01*
X006057Y029158D02*
X006870Y029158D01*
X006863Y029059D02*
X006057Y029059D01*
X006057Y028961D02*
X006863Y028961D01*
X006863Y028862D02*
X006057Y028862D01*
X006002Y029355D02*
X006946Y029355D01*
X007031Y029453D02*
X005961Y029453D01*
X005602Y029749D02*
X009066Y029749D01*
X009602Y029749D02*
X010938Y029749D01*
X010978Y029847D02*
X002300Y029847D01*
X002300Y029749D02*
X003098Y029749D01*
X003222Y029800D02*
X002956Y029690D01*
X002753Y029487D01*
X002643Y029221D01*
X002643Y028229D01*
X002753Y027963D01*
X002956Y027760D01*
X003222Y027650D01*
X003509Y027650D01*
X003775Y027760D01*
X003978Y027963D01*
X004088Y028229D01*
X004088Y029221D01*
X003978Y029487D01*
X003775Y029690D01*
X003509Y029800D01*
X003222Y029800D01*
X002917Y029650D02*
X002300Y029650D01*
X002300Y029552D02*
X002818Y029552D01*
X002739Y029453D02*
X002300Y029453D01*
X002300Y029355D02*
X002698Y029355D01*
X002658Y029256D02*
X002300Y029256D01*
X002284Y029158D02*
X002643Y029158D01*
X002643Y029059D02*
X002242Y029059D01*
X002144Y028961D02*
X002643Y028961D01*
X002643Y028862D02*
X000550Y028862D01*
X000550Y028764D02*
X002643Y028764D01*
X002643Y028665D02*
X000550Y028665D01*
X000550Y028567D02*
X002643Y028567D01*
X002643Y028468D02*
X000550Y028468D01*
X000550Y028370D02*
X002643Y028370D01*
X002643Y028271D02*
X000550Y028271D01*
X000550Y028173D02*
X002667Y028173D01*
X002707Y028074D02*
X000550Y028074D01*
X000550Y027976D02*
X002748Y027976D01*
X002839Y027877D02*
X000550Y027877D01*
X000550Y027779D02*
X002938Y027779D01*
X003582Y027680D02*
X005118Y027680D01*
X004906Y027779D02*
X003794Y027779D01*
X003892Y027877D02*
X004808Y027877D01*
X004717Y027976D02*
X003983Y027976D01*
X004024Y028074D02*
X004676Y028074D01*
X004635Y028173D02*
X004065Y028173D01*
X004088Y028271D02*
X004612Y028271D01*
X004612Y028370D02*
X004088Y028370D01*
X004088Y028468D02*
X004612Y028468D01*
X004612Y028567D02*
X004088Y028567D01*
X004088Y028665D02*
X004612Y028665D01*
X004612Y028764D02*
X004088Y028764D01*
X004088Y028862D02*
X004612Y028862D01*
X004612Y028961D02*
X004088Y028961D01*
X004088Y029059D02*
X004612Y029059D01*
X004612Y029158D02*
X004088Y029158D01*
X004074Y029256D02*
X004626Y029256D01*
X004667Y029355D02*
X004033Y029355D01*
X003992Y029453D02*
X004708Y029453D01*
X004787Y029552D02*
X003913Y029552D01*
X003815Y029650D02*
X004885Y029650D01*
X005066Y029749D02*
X003634Y029749D01*
X002300Y029946D02*
X011051Y029946D01*
X011149Y030044D02*
X002283Y030044D01*
X002241Y030143D02*
X011248Y030143D01*
X011474Y030241D02*
X002142Y030241D01*
X000958Y029059D02*
X000550Y029059D01*
X000550Y028961D02*
X001056Y028961D01*
X000916Y029158D02*
X000566Y029158D01*
X000607Y029256D02*
X000900Y029256D01*
X000900Y029355D02*
X000656Y029355D01*
X000711Y029453D02*
X000900Y029453D01*
X000900Y029552D02*
X000765Y029552D01*
X000833Y029650D02*
X000900Y029650D01*
X000550Y027483D02*
X011295Y027483D01*
X011533Y027385D02*
X000550Y027385D01*
X000550Y023543D02*
X006995Y023543D01*
X007139Y023445D02*
X000550Y023445D01*
X000550Y023346D02*
X007876Y023346D01*
X007975Y023248D02*
X000550Y023248D01*
X000550Y023149D02*
X008081Y023149D01*
X008111Y024528D02*
X006807Y024528D01*
X006848Y024430D02*
X007051Y024430D01*
X006953Y024331D02*
X006849Y024331D01*
X006849Y024233D02*
X006882Y024233D01*
X006841Y024134D02*
X006822Y024134D01*
X006815Y024036D02*
X006781Y024036D01*
X006815Y023937D02*
X006709Y023937D01*
X006610Y023839D02*
X006818Y023839D01*
X006766Y024627D02*
X008152Y024627D01*
X008202Y024725D02*
X006672Y024725D01*
X006532Y024824D02*
X008300Y024824D01*
X008733Y025415D02*
X008793Y025415D01*
X008793Y025513D02*
X008733Y025513D01*
X008733Y025612D02*
X008793Y025612D01*
X008793Y025710D02*
X008733Y025710D01*
X009223Y025218D02*
X011003Y025218D01*
X010905Y025119D02*
X009208Y025119D01*
X009110Y025021D02*
X010806Y025021D01*
X010708Y024922D02*
X009097Y024922D01*
X009226Y024824D02*
X010609Y024824D01*
X010511Y024725D02*
X009324Y024725D01*
X009374Y024627D02*
X010412Y024627D01*
X010314Y024528D02*
X009415Y024528D01*
X009138Y023051D02*
X000550Y023051D01*
X000550Y022952D02*
X009149Y022952D01*
X009190Y022854D02*
X000550Y022854D01*
X000550Y022755D02*
X009216Y022755D01*
X009216Y022657D02*
X000550Y022657D01*
X000550Y022558D02*
X009216Y022558D01*
X009216Y022460D02*
X000550Y022460D01*
X000550Y022361D02*
X009216Y022361D01*
X009216Y022263D02*
X000550Y022263D01*
X000550Y022164D02*
X009216Y022164D01*
X009216Y022066D02*
X000550Y022066D01*
X000550Y021967D02*
X009216Y021967D01*
X009216Y021869D02*
X000550Y021869D01*
X000550Y021770D02*
X005613Y021770D01*
X005617Y021776D02*
X005597Y021742D01*
X005587Y021703D01*
X005587Y021438D01*
X006238Y021438D01*
X006238Y021338D01*
X006338Y021338D01*
X006338Y020943D01*
X006859Y020943D01*
X006897Y020953D01*
X006931Y020973D01*
X006959Y021001D01*
X006979Y021035D01*
X006989Y021073D01*
X006989Y021338D01*
X006338Y021338D01*
X006338Y021438D01*
X006989Y021438D01*
X006989Y021703D01*
X006979Y021742D01*
X006959Y021776D01*
X006931Y021804D01*
X006897Y021823D01*
X006859Y021834D01*
X006338Y021834D01*
X006338Y021438D01*
X006238Y021438D01*
X006238Y021834D01*
X005717Y021834D01*
X005679Y021823D01*
X005645Y021804D01*
X005617Y021776D01*
X005587Y021672D02*
X000550Y021672D01*
X000550Y021573D02*
X005587Y021573D01*
X005587Y021475D02*
X000550Y021475D01*
X000550Y021376D02*
X006238Y021376D01*
X006238Y021338D02*
X005587Y021338D01*
X005587Y021073D01*
X005597Y021035D01*
X005617Y021001D01*
X005645Y020973D01*
X005679Y020953D01*
X005717Y020943D01*
X006238Y020943D01*
X006238Y021338D01*
X006238Y021278D02*
X006338Y021278D01*
X006338Y021376D02*
X009216Y021376D01*
X009216Y021278D02*
X006989Y021278D01*
X006989Y021179D02*
X009216Y021179D01*
X009216Y021081D02*
X006989Y021081D01*
X006940Y020982D02*
X009216Y020982D01*
X009216Y020884D02*
X000550Y020884D01*
X000550Y020982D02*
X005636Y020982D01*
X005587Y021081D02*
X000550Y021081D01*
X000550Y021179D02*
X005587Y021179D01*
X005587Y021278D02*
X000550Y021278D01*
X000550Y020785D02*
X009216Y020785D01*
X009216Y020687D02*
X000550Y020687D01*
X000550Y020588D02*
X009216Y020588D01*
X009216Y020490D02*
X000550Y020490D01*
X000550Y020391D02*
X009216Y020391D01*
X009216Y020293D02*
X000550Y020293D01*
X000550Y020194D02*
X009216Y020194D01*
X009200Y020096D02*
X000550Y020096D01*
X006238Y020982D02*
X006338Y020982D01*
X006338Y021081D02*
X006238Y021081D01*
X006238Y021179D02*
X006338Y021179D01*
X006338Y021475D02*
X006238Y021475D01*
X006238Y021573D02*
X006338Y021573D01*
X006338Y021672D02*
X006238Y021672D01*
X006238Y021770D02*
X006338Y021770D01*
X006962Y021770D02*
X009216Y021770D01*
X009216Y021672D02*
X006989Y021672D01*
X006989Y021573D02*
X009216Y021573D01*
X009216Y021475D02*
X006989Y021475D01*
X009922Y019308D02*
X011421Y019308D01*
X011421Y019406D02*
X010083Y019406D01*
X010181Y019505D02*
X011421Y019505D01*
X011436Y019603D02*
X010226Y019603D01*
X010267Y019702D02*
X011477Y019702D01*
X011548Y019800D02*
X010274Y019800D01*
X010274Y019899D02*
X011647Y019899D01*
X011745Y019997D02*
X010253Y019997D01*
X010213Y020096D02*
X011844Y020096D01*
X011942Y020194D02*
X010196Y020194D01*
X010196Y020293D02*
X012041Y020293D01*
X012139Y020391D02*
X010196Y020391D01*
X010196Y020490D02*
X012238Y020490D01*
X012336Y020588D02*
X010196Y020588D01*
X010196Y021869D02*
X010347Y021869D01*
X009828Y017042D02*
X011642Y017042D01*
X011543Y016944D02*
X009926Y016944D01*
X009982Y016845D02*
X011445Y016845D01*
X011346Y016747D02*
X010023Y016747D01*
X010038Y016648D02*
X011248Y016648D01*
X011149Y016550D02*
X010038Y016550D01*
X014566Y015361D02*
X014566Y014666D01*
X014622Y014722D01*
X014758Y014778D01*
X015830Y014778D01*
X015887Y014755D01*
X016067Y014966D01*
X016067Y015852D01*
X015966Y015752D01*
X015830Y015696D01*
X014887Y015696D01*
X014834Y015566D01*
X014810Y015542D01*
X014812Y015542D01*
X015265Y015542D01*
X015265Y015264D01*
X015323Y015264D01*
X015906Y015264D01*
X015906Y015412D01*
X015896Y015450D01*
X015877Y015484D01*
X015849Y015512D01*
X015814Y015532D01*
X015776Y015542D01*
X015323Y015542D01*
X015323Y015264D01*
X015323Y015206D01*
X015906Y015206D01*
X015906Y015058D01*
X015896Y015019D01*
X015877Y014985D01*
X015849Y014957D01*
X015814Y014938D01*
X015776Y014927D01*
X015323Y014927D01*
X015323Y015206D01*
X015265Y015206D01*
X014681Y015206D01*
X014681Y015058D01*
X014692Y015019D01*
X014711Y014985D01*
X014739Y014957D01*
X014773Y014938D01*
X014812Y014927D01*
X015265Y014927D01*
X015265Y015206D01*
X015265Y015264D01*
X014681Y015264D01*
X014681Y015412D01*
X014682Y015414D01*
X014674Y015406D01*
X014566Y015361D01*
X014581Y015368D02*
X014681Y015368D01*
X014681Y015269D02*
X014566Y015269D01*
X014566Y015171D02*
X014681Y015171D01*
X014681Y015072D02*
X014566Y015072D01*
X014566Y014974D02*
X014723Y014974D01*
X014566Y014875D02*
X015989Y014875D01*
X016067Y014974D02*
X015865Y014974D01*
X015906Y015072D02*
X016067Y015072D01*
X016067Y015171D02*
X015906Y015171D01*
X015906Y015269D02*
X016067Y015269D01*
X016067Y015368D02*
X015906Y015368D01*
X015887Y015466D02*
X016067Y015466D01*
X016067Y015565D02*
X014833Y015565D01*
X014874Y015663D02*
X016067Y015663D01*
X016067Y015762D02*
X015976Y015762D01*
X015323Y015466D02*
X015265Y015466D01*
X015265Y015368D02*
X015323Y015368D01*
X015323Y015269D02*
X015265Y015269D01*
X015265Y015171D02*
X015323Y015171D01*
X015323Y015072D02*
X015265Y015072D01*
X015265Y014974D02*
X015323Y014974D01*
X015834Y014777D02*
X015906Y014777D01*
X014754Y014777D02*
X014566Y014777D01*
X014566Y014678D02*
X014578Y014678D01*
X017713Y008965D02*
X019020Y008965D01*
X020460Y011132D02*
X020500Y011132D01*
X020460Y011231D02*
X020598Y011231D01*
X020809Y012610D02*
X022650Y012610D01*
X022650Y012708D02*
X021017Y012708D01*
X021187Y012807D02*
X022650Y012807D01*
X022650Y012905D02*
X021288Y012905D01*
X021386Y013004D02*
X022650Y013004D01*
X022650Y013102D02*
X021468Y013102D01*
X021525Y013201D02*
X022650Y013201D01*
X022650Y013299D02*
X021582Y013299D01*
X021632Y013398D02*
X022650Y013398D01*
X022650Y013496D02*
X021659Y013496D01*
X021685Y013595D02*
X022650Y013595D01*
X022650Y013693D02*
X021712Y013693D01*
X021720Y013792D02*
X022650Y013792D01*
X022650Y013890D02*
X021720Y013890D01*
X021720Y013989D02*
X022650Y013989D01*
X022650Y014087D02*
X021720Y014087D01*
X021693Y014186D02*
X022650Y014186D01*
X022650Y014284D02*
X021667Y014284D01*
X021640Y014383D02*
X022650Y014383D01*
X022650Y014481D02*
X021599Y014481D01*
X021542Y014580D02*
X022650Y014580D01*
X022650Y014678D02*
X021486Y014678D01*
X021416Y014777D02*
X022650Y014777D01*
X022650Y014875D02*
X021317Y014875D01*
X021219Y014974D02*
X022650Y014974D01*
X022650Y015072D02*
X021069Y015072D01*
X020898Y015171D02*
X022650Y015171D01*
X022650Y015269D02*
X020553Y015269D01*
X020147Y015269D02*
X020049Y015269D01*
X020125Y015368D02*
X022650Y015368D01*
X022650Y015466D02*
X020166Y015466D01*
X020196Y015565D02*
X022650Y015565D01*
X022650Y015663D02*
X020196Y015663D01*
X020196Y015762D02*
X022650Y015762D01*
X022650Y015860D02*
X020156Y015860D01*
X020118Y015959D02*
X021484Y015959D01*
X021278Y016057D02*
X020118Y016057D01*
X020118Y016156D02*
X021180Y016156D01*
X021100Y016254D02*
X020118Y016254D01*
X020118Y016353D02*
X021059Y016353D01*
X021018Y016451D02*
X020118Y016451D01*
X020118Y016550D02*
X021011Y016550D01*
X021011Y016648D02*
X020118Y016648D01*
X020118Y016747D02*
X021017Y016747D01*
X021058Y016845D02*
X020118Y016845D01*
X020118Y016944D02*
X021099Y016944D01*
X021177Y017042D02*
X020118Y017042D01*
X020118Y017141D02*
X021195Y017141D01*
X021106Y017239D02*
X020118Y017239D01*
X020156Y017338D02*
X021065Y017338D01*
X021024Y017436D02*
X020255Y017436D01*
X020353Y017535D02*
X021011Y017535D01*
X021011Y017633D02*
X020452Y017633D01*
X020550Y017732D02*
X021011Y017732D01*
X021052Y017830D02*
X020649Y017830D01*
X020747Y017929D02*
X021092Y017929D01*
X021162Y018027D02*
X020846Y018027D01*
X020944Y018126D02*
X021261Y018126D01*
X021435Y018224D02*
X021043Y018224D01*
X021141Y018323D02*
X021327Y018323D01*
X021268Y018421D02*
X021240Y018421D01*
X021371Y018552D02*
X021382Y018563D01*
X021417Y018648D01*
X021927Y018648D01*
X021927Y018552D01*
X021371Y018552D01*
X021405Y018618D02*
X021927Y018618D01*
X022650Y016035D02*
X022650Y016035D01*
X022650Y015959D02*
X022466Y015959D01*
X011553Y005813D02*
X011493Y005813D01*
X011493Y005715D02*
X011553Y005715D01*
X011553Y005616D02*
X011493Y005616D01*
X011493Y005518D02*
X011553Y005518D01*
X011553Y005419D02*
X011493Y005419D01*
X011220Y005715D02*
X009850Y005715D01*
X009850Y005813D02*
X011319Y005813D01*
X011122Y005616D02*
X009850Y005616D01*
X009850Y005518D02*
X011063Y005518D01*
X011063Y005419D02*
X009850Y005419D01*
X009850Y005321D02*
X011063Y005321D01*
X011063Y005222D02*
X009850Y005222D01*
X009850Y005124D02*
X011116Y005124D01*
X011214Y005025D02*
X009850Y005025D01*
X009850Y004927D02*
X011121Y004927D01*
X011023Y004828D02*
X009850Y004828D01*
X009850Y004730D02*
X010937Y004730D01*
X010897Y004631D02*
X009850Y004631D01*
X009850Y004533D02*
X010856Y004533D01*
X010843Y004434D02*
X009850Y004434D01*
X009850Y004336D02*
X010843Y004336D01*
X010843Y004237D02*
X009850Y004237D01*
X009850Y004139D02*
X010882Y004139D01*
X010923Y004040D02*
X009850Y004040D01*
X009850Y003942D02*
X010987Y003942D01*
X011085Y003843D02*
X009850Y003843D01*
X009850Y003745D02*
X011248Y003745D01*
X010989Y027779D02*
X009762Y027779D01*
X009861Y027877D02*
X010948Y027877D01*
X010907Y027976D02*
X009952Y027976D01*
X009993Y028074D02*
X010866Y028074D01*
X010858Y028173D02*
X010033Y028173D01*
X010057Y028271D02*
X010858Y028271D01*
X010858Y028370D02*
X010057Y028370D01*
X010057Y028468D02*
X010858Y028468D01*
X010858Y028567D02*
X010057Y028567D01*
X010057Y028665D02*
X010858Y028665D01*
X010858Y028764D02*
X010057Y028764D01*
X010057Y028862D02*
X010858Y028862D01*
X010858Y028961D02*
X010057Y028961D01*
X010057Y029059D02*
X010858Y029059D01*
X010858Y029158D02*
X010057Y029158D01*
X010042Y029256D02*
X010858Y029256D01*
X010858Y029355D02*
X010002Y029355D01*
X009961Y029453D02*
X010858Y029453D01*
X010858Y029552D02*
X009882Y029552D01*
X009783Y029650D02*
X010897Y029650D01*
D29*
X013013Y023565D02*
X017305Y027856D01*
X019469Y027856D01*
X020100Y027225D01*
X021725Y025600D01*
X021975Y025600D01*
X021975Y024600D02*
X021309Y024600D01*
X020927Y024982D01*
X020927Y025523D01*
X019225Y027225D01*
X018369Y027225D02*
X020454Y025139D01*
X020454Y024431D01*
X021285Y023600D01*
X021975Y023600D01*
X021975Y022600D02*
X021261Y022600D01*
X019943Y023919D01*
X019943Y024757D01*
X017475Y027225D01*
X018350Y027225D02*
X018369Y027225D01*
X016320Y024391D02*
X015572Y024391D01*
X016320Y024391D02*
X016714Y023998D01*
X016714Y023446D01*
X016557Y023289D01*
X016557Y014785D01*
X016101Y014251D01*
X015294Y014251D01*
X015294Y016223D02*
X014922Y016223D01*
X014706Y016439D01*
X014037Y016439D01*
X013683Y016084D01*
X013683Y013368D01*
X013368Y013053D01*
X013368Y011006D01*
X013328Y010966D01*
X012147Y010966D01*
X012108Y010927D01*
X013368Y011006D02*
X014982Y009391D01*
X017462Y009391D01*
X018092Y010021D01*
X018092Y013013D01*
X019037Y013958D01*
X019037Y017895D01*
X020297Y019155D01*
X019746Y019706D01*
X019746Y021754D01*
X018013Y023486D01*
X017580Y022462D02*
X017305Y022462D01*
X017580Y022462D02*
X018407Y021635D01*
X018407Y014706D01*
X017817Y014706D02*
X017817Y021281D01*
X017305Y021793D01*
X017226Y020336D02*
X017226Y010021D01*
X015336Y010021D01*
X015294Y012226D02*
X016399Y012226D01*
X015294Y012226D02*
X015294Y012243D01*
X019628Y015651D02*
X019628Y017502D01*
X020966Y018840D01*
X020966Y020218D01*
X021348Y020600D01*
X021975Y020600D01*
X013013Y020572D02*
X013013Y023565D01*
X013013Y020572D02*
X011911Y019470D01*
X011911Y018131D01*
X009706Y019833D02*
X009706Y023092D01*
X005887Y019509D02*
X004076Y017698D01*
X004076Y016911D01*
X003286Y015979D02*
X003286Y018874D01*
X003286Y015979D02*
X006725Y012540D01*
X006320Y015218D02*
X008092Y015218D01*
X009470Y016596D01*
D30*
X001600Y001600D03*
X021600Y001600D03*
X021600Y029600D03*
X001600Y029600D03*
D31*
X016635Y026399D03*
M02*
